STARTFONT 2.1
COMMENT
COMMENT Converted from OpenType font "Ubuntu-MI.otf" by "otf2bdf 3.0".
COMMENT
FONT -FreeType-Ubuntu Light-Bold-I-Normal--17-120-100-100-P-102-ISO10646-1
SIZE 12 100 100
FONTBOUNDINGBOX 62 19 -2 -3
STARTPROPERTIES 19
FOUNDRY "FreeType"
FAMILY_NAME "Ubuntu Light"
WEIGHT_NAME "Bold"
SLANT "I"
SETWIDTH_NAME "Normal"
ADD_STYLE_NAME ""
PIXEL_SIZE 17
POINT_SIZE 120
RESOLUTION_X 100
RESOLUTION_Y 100
SPACING "P"
AVERAGE_WIDTH 102
CHARSET_REGISTRY "ISO10646"
CHARSET_ENCODING "1"
FONT_ASCENT 15
FONT_DESCENT 3
COPYRIGHT "Copyright 2011 Canonical Ltd.  Licensed under the Ubuntu Font Licence 1.0"
_OTF_FONTFILE "Ubuntu-MI.otf"
_OTF_PSNAME "Ubuntu-MediumItalic"
ENDPROPERTIES
CHARS 1194
STARTCHAR 0000
ENCODING 0
SWIDTH 0 0
DWIDTH 0 0
BBX 0 0 0 0
BITMAP
ENDCHAR
STARTCHAR 0008
ENCODING 8
SWIDTH 0 0
DWIDTH 0 0
BBX 0 0 0 0
BITMAP
ENDCHAR
STARTCHAR 0009
ENCODING 9
SWIDTH 240 0
DWIDTH 4 0
BBX 0 0 0 0
BITMAP
ENDCHAR
STARTCHAR 000D
ENCODING 13
SWIDTH 240 0
DWIDTH 4 0
BBX 0 0 0 0
BITMAP
ENDCHAR
STARTCHAR 001D
ENCODING 29
SWIDTH 0 0
DWIDTH 0 0
BBX 0 0 0 0
BITMAP
ENDCHAR
STARTCHAR 0020
ENCODING 32
SWIDTH 240 0
DWIDTH 4 0
BBX 0 0 0 0
BITMAP
ENDCHAR
STARTCHAR 0021
ENCODING 33
SWIDTH 300 0
DWIDTH 5 0
BBX 5 12 1 0
BITMAP
18
18
38
30
30
30
20
20
00
00
E0
E0
ENDCHAR
STARTCHAR 0022
ENCODING 34
SWIDTH 480 0
DWIDTH 8 0
BBX 6 5 3 8
BITMAP
6C
6C
CC
C8
D8
ENDCHAR
STARTCHAR 0023
ENCODING 35
SWIDTH 660 0
DWIDTH 11 0
BBX 10 12 2 0
BITMAP
0CC0
0CC0
0880
7FC0
7FC0
3300
3300
FF80
FF80
4400
CC00
8800
ENDCHAR
STARTCHAR 0024
ENCODING 36
SWIDTH 540 0
DWIDTH 9 0
BBX 8 15 2 -2
BITMAP
06
04
1F
3F
60
60
38
1C
0E
06
06
FC
78
20
60
ENDCHAR
STARTCHAR 0025
ENCODING 37
SWIDTH 900 0
DWIDTH 15 0
BBX 12 12 3 0
BITMAP
3060
F8C0
88C0
8980
9B00
F600
0CE0
0DB0
1B30
3320
6360
C3C0
ENDCHAR
STARTCHAR 0026
ENCODING 38
SWIDTH 660 0
DWIDTH 11 0
BBX 10 12 1 0
BITMAP
0700
1F80
1980
1980
1B00
1E00
3CC0
66C0
C780
C380
EF80
7CC0
ENDCHAR
STARTCHAR 0027
ENCODING 39
SWIDTH 240 0
DWIDTH 4 0
BBX 3 5 3 8
BITMAP
60
60
C0
C0
C0
ENDCHAR
STARTCHAR 0028
ENCODING 40
SWIDTH 360 0
DWIDTH 6 0
BBX 6 16 2 -3
BITMAP
04
0C
18
30
30
60
60
C0
C0
C0
C0
C0
C0
C0
60
40
ENDCHAR
STARTCHAR 0029
ENCODING 41
SWIDTH 360 0
DWIDTH 6 0
BBX 6 16 0 -3
BITMAP
10
18
18
18
08
0C
18
18
18
18
30
30
60
60
C0
80
ENDCHAR
STARTCHAR 002A
ENCODING 42
SWIDTH 480 0
DWIDTH 8 0
BBX 7 7 2 5
BITMAP
18
18
56
FE
38
6C
24
ENDCHAR
STARTCHAR 002B
ENCODING 43
SWIDTH 540 0
DWIDTH 9 0
BBX 8 8 2 1
BITMAP
0C
08
18
FF
FF
10
30
30
ENDCHAR
STARTCHAR 002C
ENCODING 44
SWIDTH 240 0
DWIDTH 4 0
BBX 4 5 0 -3
BITMAP
30
60
60
C0
40
ENDCHAR
STARTCHAR 002D
ENCODING 45
SWIDTH 300 0
DWIDTH 5 0
BBX 4 2 2 4
BITMAP
F0
F0
ENDCHAR
STARTCHAR 002E
ENCODING 46
SWIDTH 240 0
DWIDTH 4 0
BBX 3 2 1 0
BITMAP
E0
C0
ENDCHAR
STARTCHAR 002F
ENCODING 47
SWIDTH 420 0
DWIDTH 7 0
BBX 11 16 -1 -3
BITMAP
0060
00C0
00C0
0180
0180
0300
0600
0600
0C00
0C00
1800
3800
3000
6000
6000
C000
ENDCHAR
STARTCHAR 0030
ENCODING 48
SWIDTH 540 0
DWIDTH 9 0
BBX 8 12 2 0
BITMAP
0E
3F
73
63
E3
C3
C3
C3
C6
C6
FC
78
ENDCHAR
STARTCHAR 0031
ENCODING 49
SWIDTH 540 0
DWIDTH 9 0
BBX 5 12 4 0
BITMAP
08
38
F8
F0
30
30
30
60
60
60
60
60
ENDCHAR
STARTCHAR 0032
ENCODING 50
SWIDTH 540 0
DWIDTH 9 0
BBX 9 12 1 0
BITMAP
0F00
3F80
1180
0180
0180
0300
0E00
1C00
3800
6000
7F00
FE00
ENDCHAR
STARTCHAR 0033
ENCODING 51
SWIDTH 540 0
DWIDTH 9 0
BBX 9 12 1 0
BITMAP
0E00
1F80
0180
0180
0300
1E00
1E00
0300
0300
0300
4E00
FC00
ENDCHAR
STARTCHAR 0034
ENCODING 52
SWIDTH 540 0
DWIDTH 9 0
BBX 9 12 1 0
BITMAP
0180
0380
0780
0D80
1B00
3300
2300
6300
FF80
0600
0600
0600
ENDCHAR
STARTCHAR 0035
ENCODING 53
SWIDTH 540 0
DWIDTH 9 0
BBX 10 12 1 0
BITMAP
0FC0
0F80
1800
1800
1000
3E00
0F00
0300
0300
0300
6F00
FC00
ENDCHAR
STARTCHAR 0036
ENCODING 54
SWIDTH 540 0
DWIDTH 9 0
BBX 9 12 2 0
BITMAP
0180
0F80
3C00
3000
6000
FE00
E600
C300
C300
C600
EE00
7C00
ENDCHAR
STARTCHAR 0037
ENCODING 55
SWIDTH 540 0
DWIDTH 9 0
BBX 8 12 3 0
BITMAP
FF
FF
06
0C
18
18
30
60
60
C0
C0
C0
ENDCHAR
STARTCHAR 0038
ENCODING 56
SWIDTH 540 0
DWIDTH 9 0
BBX 8 12 2 0
BITMAP
1E
3F
73
63
63
3E
7C
C6
C6
C6
CE
FC
ENDCHAR
STARTCHAR 0039
ENCODING 57
SWIDTH 540 0
DWIDTH 9 0
BBX 9 12 1 0
BITMAP
0E00
1F80
3180
3180
6180
3180
3F80
1B00
0300
0600
7C00
F000
ENDCHAR
STARTCHAR 003A
ENCODING 58
SWIDTH 240 0
DWIDTH 4 0
BBX 4 9 1 0
BITMAP
30
30
30
00
00
00
00
E0
C0
ENDCHAR
STARTCHAR 003B
ENCODING 59
SWIDTH 240 0
DWIDTH 4 0
BBX 5 12 0 -3
BITMAP
18
18
18
00
00
00
00
30
60
60
C0
40
ENDCHAR
STARTCHAR 003C
ENCODING 60
SWIDTH 540 0
DWIDTH 9 0
BBX 8 7 2 2
BITMAP
07
3E
F0
E0
78
1E
06
ENDCHAR
STARTCHAR 003D
ENCODING 61
SWIDTH 540 0
DWIDTH 9 0
BBX 9 5 1 2
BITMAP
7F80
0000
0000
7F00
FF00
ENDCHAR
STARTCHAR 003E
ENCODING 62
SWIDTH 540 0
DWIDTH 9 0
BBX 9 8 1 1
BITMAP
2000
3800
1E00
0780
0300
1E00
F800
C000
ENDCHAR
STARTCHAR 003F
ENCODING 63
SWIDTH 420 0
DWIDTH 7 0
BBX 7 12 2 0
BITMAP
38
7C
06
0C
0C
38
70
60
00
00
E0
C0
ENDCHAR
STARTCHAR 0040
ENCODING 64
SWIDTH 960 0
DWIDTH 16 0
BBX 14 15 2 -3
BITMAP
03E0
0FF8
3818
318C
67EC
CC44
C8CC
D8CC
98CC
98D8
CFF0
C000
6000
3F80
0F00
ENDCHAR
STARTCHAR 0041
ENCODING 65
SWIDTH 660 0
DWIDTH 11 0
BBX 11 12 0 0
BITMAP
0180
0180
03C0
06C0
06C0
0CC0
18C0
18C0
3FE0
3060
6060
E060
ENDCHAR
STARTCHAR 0042
ENCODING 66
SWIDTH 660 0
DWIDTH 11 0
BBX 10 12 1 0
BITMAP
0F00
1FC0
18C0
30C0
30C0
3F80
3F80
61C0
60C0
6180
7F80
FE00
ENDCHAR
STARTCHAR 0043
ENCODING 67
SWIDTH 600 0
DWIDTH 10 0
BBX 10 12 2 0
BITMAP
0780
1FC0
3800
7000
6000
C000
C000
C000
C000
E000
7F00
3F00
ENDCHAR
STARTCHAR 0044
ENCODING 68
SWIDTH 720 0
DWIDTH 12 0
BBX 11 12 1 0
BITMAP
0F00
1FC0
18E0
3060
3060
3060
3060
6060
60E0
61C0
7F80
FE00
ENDCHAR
STARTCHAR 0045
ENCODING 69
SWIDTH 600 0
DWIDTH 10 0
BBX 10 12 1 0
BITMAP
1FC0
1FC0
1800
3000
3000
3F00
3F00
6000
6000
6000
7F00
FF00
ENDCHAR
STARTCHAR 0046
ENCODING 70
SWIDTH 540 0
DWIDTH 9 0
BBX 10 12 1 0
BITMAP
1FC0
1FC0
1800
3000
3000
3F00
3F00
6000
6000
6000
6000
E000
ENDCHAR
STARTCHAR 0047
ENCODING 71
SWIDTH 660 0
DWIDTH 11 0
BBX 10 12 2 0
BITMAP
0780
1FC0
3840
7000
6000
C000
C180
C180
C180
E180
7F00
3F00
ENDCHAR
STARTCHAR 0048
ENCODING 72
SWIDTH 720 0
DWIDTH 12 0
BBX 12 12 1 0
BITMAP
1830
1830
1870
3060
3060
3FE0
3FE0
60C0
60C0
60C0
61C0
E180
ENDCHAR
STARTCHAR 0049
ENCODING 73
SWIDTH 300 0
DWIDTH 5 0
BBX 5 12 1 0
BITMAP
18
18
18
30
30
30
30
60
60
60
60
E0
ENDCHAR
STARTCHAR 004A
ENCODING 74
SWIDTH 480 0
DWIDTH 8 0
BBX 9 12 1 0
BITMAP
0180
0300
0300
0300
0300
0700
0600
0600
0600
0C00
FC00
F800
ENDCHAR
STARTCHAR 004B
ENCODING 75
SWIDTH 660 0
DWIDTH 11 0
BBX 12 12 1 0
BITMAP
1870
18E0
19C0
3380
3600
3C00
3C00
6E00
6700
6300
6380
E180
ENDCHAR
STARTCHAR 004C
ENCODING 76
SWIDTH 540 0
DWIDTH 9 0
BBX 8 12 1 0
BITMAP
18
18
18
30
30
30
30
60
60
60
7F
FF
ENDCHAR
STARTCHAR 004D
ENCODING 77
SWIDTH 840 0
DWIDTH 14 0
BBX 14 12 1 0
BITMAP
0C0C
1C1C
1C1C
1C3C
346C
3668
36D8
6798
6798
6318
C018
C030
ENDCHAR
STARTCHAR 004E
ENCODING 78
SWIDTH 720 0
DWIDTH 12 0
BBX 12 12 1 0
BITMAP
1830
1830
1C30
3C30
3660
3660
3360
6360
61C0
61C0
61C0
C0C0
ENDCHAR
STARTCHAR 004F
ENCODING 79
SWIDTH 720 0
DWIDTH 12 0
BBX 11 12 2 0
BITMAP
0700
1FC0
38E0
7060
6060
C060
C060
C0E0
C0C0
E1C0
7F80
3E00
ENDCHAR
STARTCHAR 0050
ENCODING 80
SWIDTH 600 0
DWIDTH 10 0
BBX 10 12 1 0
BITMAP
0F00
1FC0
18C0
30C0
30C0
31C0
3F80
7E00
6000
6000
6000
E000
ENDCHAR
STARTCHAR 0051
ENCODING 81
SWIDTH 720 0
DWIDTH 12 0
BBX 11 15 2 -3
BITMAP
0700
1FC0
38E0
7060
6060
C060
C060
C0E0
C0C0
E1C0
7F80
3E00
0C00
0F00
0700
ENDCHAR
STARTCHAR 0052
ENCODING 82
SWIDTH 600 0
DWIDTH 10 0
BBX 10 12 1 0
BITMAP
0F00
1FC0
18C0
30C0
30C0
31C0
3F80
7E00
6300
6300
6380
E180
ENDCHAR
STARTCHAR 0053
ENCODING 83
SWIDTH 540 0
DWIDTH 9 0
BBX 9 12 1 0
BITMAP
0F00
3F80
3000
3000
3000
3C00
1E00
0700
0300
0300
FE00
FC00
ENDCHAR
STARTCHAR 0054
ENCODING 84
SWIDTH 600 0
DWIDTH 10 0
BBX 9 12 3 0
BITMAP
FF80
FF80
1800
1800
1800
3000
3000
3000
3000
7000
6000
6000
ENDCHAR
STARTCHAR 0055
ENCODING 85
SWIDTH 660 0
DWIDTH 11 0
BBX 11 12 2 0
BITMAP
3060
30C0
70C0
60C0
60C0
61C0
6180
C180
C180
C300
FF00
7E00
ENDCHAR
STARTCHAR 0056
ENCODING 86
SWIDTH 660 0
DWIDTH 11 0
BBX 10 12 3 0
BITMAP
C0C0
C1C0
C180
C380
C300
C600
C600
6C00
6C00
7800
7000
7000
ENDCHAR
STARTCHAR 0057
ENCODING 87
SWIDTH 900 0
DWIDTH 15 0
BBX 15 12 3 0
BITMAP
C00E
C00C
C30C
C718
C718
CF38
CB30
D970
F160
F1E0
E1C0
C180
ENDCHAR
STARTCHAR 0058
ENCODING 88
SWIDTH 600 0
DWIDTH 10 0
BBX 11 12 1 0
BITMAP
3060
18E0
18C0
1D80
0F00
0E00
0E00
1F00
3B00
7300
E180
C180
ENDCHAR
STARTCHAR 0059
ENCODING 89
SWIDTH 600 0
DWIDTH 10 0
BBX 10 12 3 0
BITMAP
C1C0
C380
C300
6600
6E00
7C00
3800
3000
3000
7000
6000
6000
ENDCHAR
STARTCHAR 005A
ENCODING 90
SWIDTH 600 0
DWIDTH 10 0
BBX 11 12 1 0
BITMAP
1FE0
3FC0
01C0
0380
0700
0E00
1C00
3800
3000
6000
FF00
FF00
ENDCHAR
STARTCHAR 005B
ENCODING 91
SWIDTH 360 0
DWIDTH 6 0
BBX 8 16 1 -3
BITMAP
1F
1E
18
18
10
30
30
30
20
60
60
60
60
C0
F0
F0
ENDCHAR
STARTCHAR 005C
ENCODING 92
SWIDTH 420 0
DWIDTH 7 0
BBX 3 16 3 -3
BITMAP
C0
C0
C0
C0
C0
C0
C0
C0
40
60
60
60
60
60
60
60
ENDCHAR
STARTCHAR 005D
ENCODING 93
SWIDTH 360 0
DWIDTH 6 0
BBX 8 16 -1 -3
BITMAP
0F
0F
03
06
06
06
06
04
0C
0C
0C
08
18
18
78
F8
ENDCHAR
STARTCHAR 005E
ENCODING 94
SWIDTH 540 0
DWIDTH 9 0
BBX 8 7 2 5
BITMAP
0C
0E
1E
36
63
E3
42
ENDCHAR
STARTCHAR 005F
ENCODING 95
SWIDTH 480 0
DWIDTH 8 0
BBX 9 2 -1 -3
BITMAP
7F80
FF80
ENDCHAR
STARTCHAR 0060
ENCODING 96
SWIDTH 300 0
DWIDTH 5 0
BBX 3 3 3 10
BITMAP
80
C0
60
ENDCHAR
STARTCHAR 0061
ENCODING 97
SWIDTH 540 0
DWIDTH 9 0
BBX 8 9 2 0
BITMAP
1F
3F
63
C6
C6
C6
C6
FE
FE
ENDCHAR
STARTCHAR 0062
ENCODING 98
SWIDTH 540 0
DWIDTH 9 0
BBX 9 13 1 0
BITMAP
1800
1800
1800
3000
3F00
3F00
3180
3180
6180
6380
6300
6E00
FC00
ENDCHAR
STARTCHAR 0063
ENCODING 99
SWIDTH 480 0
DWIDTH 8 0
BBX 7 9 2 0
BITMAP
1E
7E
E0
C0
C0
C0
C0
F8
7C
ENDCHAR
STARTCHAR 0064
ENCODING 100
SWIDTH 600 0
DWIDTH 10 0
BBX 9 13 2 0
BITMAP
0180
0180
0180
0300
1F00
7F00
6300
C600
C600
C600
C600
FE00
FE00
ENDCHAR
STARTCHAR 0065
ENCODING 101
SWIDTH 540 0
DWIDTH 9 0
BBX 7 9 2 0
BITMAP
1C
7E
62
C6
FE
F0
C0
EC
7C
ENDCHAR
STARTCHAR 0066
ENCODING 102
SWIDTH 360 0
DWIDTH 6 0
BBX 10 16 0 -3
BITMAP
03C0
0F80
0C00
0C00
1F00
1F00
1800
1800
3000
3000
3000
3000
6000
6000
6000
C000
ENDCHAR
STARTCHAR 0067
ENCODING 103
SWIDTH 540 0
DWIDTH 9 0
BBX 9 12 1 -3
BITMAP
0F80
1F80
3180
6180
6300
6300
6300
7F00
1600
0600
FC00
F800
ENDCHAR
STARTCHAR 0068
ENCODING 104
SWIDTH 540 0
DWIDTH 9 0
BBX 9 13 1 0
BITMAP
1800
1800
1800
3800
3E00
3F00
3380
3180
6300
6300
6300
6300
C600
ENDCHAR
STARTCHAR 0069
ENCODING 105
SWIDTH 300 0
DWIDTH 5 0
BBX 5 12 1 1
BITMAP
18
18
00
30
30
30
30
60
60
60
60
C0
ENDCHAR
STARTCHAR 006A
ENCODING 106
SWIDTH 300 0
DWIDTH 5 0
BBX 8 15 -2 -2
BITMAP
03
03
00
06
06
06
06
0C
0C
0C
0C
18
18
78
F0
ENDCHAR
STARTCHAR 006B
ENCODING 107
SWIDTH 540 0
DWIDTH 9 0
BBX 9 13 1 0
BITMAP
1800
1800
1800
3800
3180
3300
3600
3C00
7800
6C00
6E00
6600
C300
ENDCHAR
STARTCHAR 006C
ENCODING 108
SWIDTH 300 0
DWIDTH 5 0
BBX 4 13 2 0
BITMAP
30
30
30
60
60
60
60
C0
C0
C0
C0
E0
E0
ENDCHAR
STARTCHAR 006D
ENCODING 109
SWIDTH 840 0
DWIDTH 14 0
BBX 13 9 1 0
BITMAP
1E70
3FF8
3318
3318
6318
6318
6318
6630
C630
ENDCHAR
STARTCHAR 006E
ENCODING 110
SWIDTH 540 0
DWIDTH 9 0
BBX 9 9 1 0
BITMAP
1E00
3F00
3380
3180
6300
6300
6300
6300
C600
ENDCHAR
STARTCHAR 006F
ENCODING 111
SWIDTH 540 0
DWIDTH 9 0
BBX 8 9 2 0
BITMAP
1C
7E
63
C3
C3
C6
C6
FC
78
ENDCHAR
STARTCHAR 0070
ENCODING 112
SWIDTH 540 0
DWIDTH 9 0
BBX 9 12 1 -3
BITMAP
1E00
3F00
3180
3180
6180
6300
6300
7E00
FC00
C000
C000
C000
ENDCHAR
STARTCHAR 0071
ENCODING 113
SWIDTH 540 0
DWIDTH 9 0
BBX 8 12 2 -3
BITMAP
1F
7F
63
C6
C6
C6
C6
FC
7C
0C
0C
0C
ENDCHAR
STARTCHAR 0072
ENCODING 114
SWIDTH 420 0
DWIDTH 7 0
BBX 7 9 1 0
BITMAP
1E
3E
30
30
60
60
60
60
C0
ENDCHAR
STARTCHAR 0073
ENCODING 115
SWIDTH 420 0
DWIDTH 7 0
BBX 7 9 1 0
BITMAP
1E
3E
60
70
3C
0C
0C
CC
F8
ENDCHAR
STARTCHAR 0074
ENCODING 116
SWIDTH 420 0
DWIDTH 7 0
BBX 6 11 2 0
BITMAP
30
60
7C
7C
60
C0
C0
C0
C0
F8
F8
ENDCHAR
STARTCHAR 0075
ENCODING 117
SWIDTH 540 0
DWIDTH 9 0
BBX 8 9 2 0
BITMAP
63
63
63
C6
C6
C6
C6
FE
FE
ENDCHAR
STARTCHAR 0076
ENCODING 118
SWIDTH 540 0
DWIDTH 9 0
BBX 8 9 2 0
BITMAP
C3
C3
C6
C6
CC
5C
78
70
60
ENDCHAR
STARTCHAR 0077
ENCODING 119
SWIDTH 840 0
DWIDTH 14 0
BBX 13 9 2 0
BITMAP
C318
C718
C730
4F30
4F60
7B60
7BC0
7380
6180
ENDCHAR
STARTCHAR 0078
ENCODING 120
SWIDTH 480 0
DWIDTH 8 0
BBX 9 9 1 0
BITMAP
6180
3300
3600
1C00
1800
3C00
7C00
E600
C600
ENDCHAR
STARTCHAR 0079
ENCODING 121
SWIDTH 480 0
DWIDTH 8 0
BBX 11 12 -1 -3
BITMAP
1860
18C0
18C0
1980
1980
0980
0F00
0E00
0E00
0C00
7800
F000
ENDCHAR
STARTCHAR 007A
ENCODING 122
SWIDTH 480 0
DWIDTH 8 0
BBX 8 9 1 0
BITMAP
3F
7F
06
0C
18
30
60
FE
FC
ENDCHAR
STARTCHAR 007B
ENCODING 123
SWIDTH 360 0
DWIDTH 6 0
BBX 7 16 2 -3
BITMAP
0E
1E
18
10
30
30
30
E0
E0
60
60
40
C0
C0
E0
60
ENDCHAR
STARTCHAR 007C
ENCODING 124
SWIDTH 300 0
DWIDTH 5 0
BBX 5 16 1 -3
BITMAP
18
18
18
18
10
30
30
30
20
60
60
60
40
C0
C0
C0
ENDCHAR
STARTCHAR 007D
ENCODING 125
SWIDTH 360 0
DWIDTH 6 0
BBX 8 16 -1 -3
BITMAP
0E
0E
06
06
06
04
0C
07
0E
0C
18
18
18
10
70
E0
ENDCHAR
STARTCHAR 007E
ENCODING 126
SWIDTH 540 0
DWIDTH 9 0
BBX 8 3 2 3
BITMAP
FB
DE
0C
ENDCHAR
STARTCHAR 00A0
ENCODING 160
SWIDTH 240 0
DWIDTH 4 0
BBX 0 0 0 0
BITMAP
ENDCHAR
STARTCHAR 00A1
ENCODING 161
SWIDTH 240 0
DWIDTH 4 0
BBX 4 12 1 -3
BITMAP
30
30
30
00
20
60
60
60
C0
C0
C0
C0
ENDCHAR
STARTCHAR 00A2
ENCODING 162
SWIDTH 540 0
DWIDTH 9 0
BBX 7 14 3 -2
BITMAP
0C
0C
0C
3E
74
C0
C0
C0
C0
C0
F8
20
60
60
ENDCHAR
STARTCHAR 00A3
ENCODING 163
SWIDTH 540 0
DWIDTH 9 0
BBX 9 12 2 0
BITMAP
0700
0F80
1800
1800
3000
3000
FE00
2000
6000
6000
7E00
FE00
ENDCHAR
STARTCHAR 00A4
ENCODING 164
SWIDTH 540 0
DWIDTH 9 0
BBX 8 7 2 3
BITMAP
FF
7E
42
42
66
FF
C3
ENDCHAR
STARTCHAR 00A5
ENCODING 165
SWIDTH 540 0
DWIDTH 9 0
BBX 10 12 2 0
BITMAP
60C0
6180
6300
3300
3600
3C00
FE00
1800
3000
FE00
3000
3000
ENDCHAR
STARTCHAR 00A6
ENCODING 166
SWIDTH 300 0
DWIDTH 5 0
BBX 5 16 1 -3
BITMAP
18
18
18
18
10
30
00
00
00
00
60
60
40
C0
C0
C0
ENDCHAR
STARTCHAR 00A7
ENCODING 167
SWIDTH 480 0
DWIDTH 8 0
BBX 8 14 1 -2
BITMAP
0F
1F
30
38
1C
67
63
63
76
1C
0C
0C
FC
F0
ENDCHAR
STARTCHAR 00A8
ENCODING 168
SWIDTH 480 0
DWIDTH 8 0
BBX 6 2 3 10
BITMAP
CC
C8
ENDCHAR
STARTCHAR 00A9
ENCODING 169
SWIDTH 840 0
DWIDTH 14 0
BBX 12 12 2 0
BITMAP
0F00
3FC0
6060
4F20
4D30
D830
D830
D830
4F20
6060
30C0
1F80
ENDCHAR
STARTCHAR 00AA
ENCODING 170
SWIDTH 420 0
DWIDTH 7 0
BBX 6 7 3 5
BITMAP
3C
78
C8
98
98
F8
68
ENDCHAR
STARTCHAR 00AB
ENCODING 171
SWIDTH 540 0
DWIDTH 9 0
BBX 8 7 2 2
BITMAP
33
66
CC
CC
CC
66
66
ENDCHAR
STARTCHAR 00AC
ENCODING 172
SWIDTH 540 0
DWIDTH 9 0
BBX 8 6 2 1
BITMAP
FF
FF
02
06
06
06
ENDCHAR
STARTCHAR 00AD
ENCODING 173
SWIDTH 300 0
DWIDTH 5 0
BBX 4 2 2 4
BITMAP
F0
F0
ENDCHAR
STARTCHAR 00AE
ENCODING 174
SWIDTH 840 0
DWIDTH 14 0
BBX 12 12 2 0
BITMAP
0F00
3FC0
6060
4F20
4930
C930
CF30
CB30
49A0
6060
30C0
1F80
ENDCHAR
STARTCHAR 00AF
ENCODING 175
SWIDTH 360 0
DWIDTH 6 0
BBX 5 1 3 11
BITMAP
F8
ENDCHAR
STARTCHAR 00B0
ENCODING 176
SWIDTH 360 0
DWIDTH 6 0
BBX 5 5 3 8
BITMAP
70
D0
98
D0
70
ENDCHAR
STARTCHAR 00B1
ENCODING 177
SWIDTH 540 0
DWIDTH 9 0
BBX 9 10 1 0
BITMAP
0600
0600
0400
7F80
0C00
0C00
0800
1800
FF00
FF00
ENDCHAR
STARTCHAR 00B2
ENCODING 178
SWIDTH 360 0
DWIDTH 6 0
BBX 5 7 2 5
BITMAP
38
78
08
18
60
C0
F8
ENDCHAR
STARTCHAR 00B3
ENCODING 179
SWIDTH 360 0
DWIDTH 6 0
BBX 5 7 2 5
BITMAP
38
68
08
30
08
98
F0
ENDCHAR
STARTCHAR 00B4
ENCODING 180
SWIDTH 360 0
DWIDTH 6 0
BBX 3 3 3 10
BITMAP
60
E0
80
ENDCHAR
STARTCHAR 00B5
ENCODING 181
SWIDTH 600 0
DWIDTH 10 0
BBX 9 12 1 -3
BITMAP
3180
3180
3180
7180
6300
6300
6300
7780
FF80
C000
C000
C000
ENDCHAR
STARTCHAR 00B6
ENCODING 182
SWIDTH 660 0
DWIDTH 11 0
BBX 9 15 3 -3
BITMAP
0F80
7F80
F980
F980
FB00
FB00
F300
7300
3200
3600
2600
6600
6400
6C00
6C00
ENDCHAR
STARTCHAR 00B7
ENCODING 183
SWIDTH 240 0
DWIDTH 4 0
BBX 3 2 2 4
BITMAP
E0
E0
ENDCHAR
STARTCHAR 00B8
ENCODING 184
SWIDTH 360 0
DWIDTH 6 0
BBX 3 3 1 -3
BITMAP
60
60
E0
ENDCHAR
STARTCHAR 00B9
ENCODING 185
SWIDTH 360 0
DWIDTH 6 0
BBX 4 7 3 5
BITMAP
30
F0
A0
20
60
60
40
ENDCHAR
STARTCHAR 00BA
ENCODING 186
SWIDTH 480 0
DWIDTH 8 0
BBX 6 7 3 5
BITMAP
38
6C
CC
8C
88
F8
60
ENDCHAR
STARTCHAR 00BB
ENCODING 187
SWIDTH 540 0
DWIDTH 9 0
BBX 9 7 1 2
BITMAP
2200
3300
3300
3B80
3300
6600
CC00
ENDCHAR
STARTCHAR 00BC
ENCODING 188
SWIDTH 900 0
DWIDTH 15 0
BBX 12 12 3 0
BITMAP
3060
E0C0
A180
6100
6300
4630
4C60
18A0
1920
33F0
6060
C040
ENDCHAR
STARTCHAR 00BD
ENCODING 189
SWIDTH 900 0
DWIDTH 15 0
BBX 12 12 3 0
BITMAP
30C0
E0C0
A180
6300
6600
6660
4DF0
1830
3060
20C0
6100
C3E0
ENDCHAR
STARTCHAR 00BE
ENCODING 190
SWIDTH 900 0
DWIDTH 15 0
BBX 13 12 2 0
BITMAP
3830
5860
0860
30C0
1980
9B18
F338
0670
0CD0
19F8
3030
3020
ENDCHAR
STARTCHAR 00BF
ENCODING 191
SWIDTH 420 0
DWIDTH 7 0
BBX 6 12 1 -3
BITMAP
0C
0C
0C
00
08
18
30
60
C0
C0
F8
F8
ENDCHAR
STARTCHAR 00C0
ENCODING 192
SWIDTH 660 0
DWIDTH 11 0
BBX 11 16 0 0
BITMAP
0100
0380
01C0
0000
0180
0180
03C0
06C0
06C0
0CC0
18C0
18C0
3FE0
3060
6060
E060
ENDCHAR
STARTCHAR 00C1
ENCODING 193
SWIDTH 660 0
DWIDTH 11 0
BBX 11 16 0 0
BITMAP
0040
00E0
0180
0000
0180
0180
03C0
06C0
06C0
0CC0
18C0
18C0
3FE0
3060
6060
E060
ENDCHAR
STARTCHAR 00C2
ENCODING 194
SWIDTH 660 0
DWIDTH 11 0
BBX 11 15 0 1
BITMAP
00C0
0360
0000
0180
0180
03C0
06C0
06C0
0CC0
18C0
18C0
3FE0
3060
6060
E060
ENDCHAR
STARTCHAR 00C3
ENCODING 195
SWIDTH 660 0
DWIDTH 11 0
BBX 12 15 0 0
BITMAP
01B0
03E0
0000
0180
0180
03C0
06C0
06C0
0CC0
18C0
18C0
3FE0
3060
6060
E060
ENDCHAR
STARTCHAR 00C4
ENCODING 196
SWIDTH 660 0
DWIDTH 11 0
BBX 12 15 0 0
BITMAP
0330
0370
0000
0180
0180
03C0
06C0
06C0
0CC0
18C0
18C0
3FE0
3060
6060
E060
ENDCHAR
STARTCHAR 00C5
ENCODING 197
SWIDTH 660 0
DWIDTH 11 0
BBX 11 14 0 0
BITMAP
01C0
0140
01C0
0180
03C0
06C0
06C0
0CC0
18C0
18C0
3FE0
3060
6060
E060
ENDCHAR
STARTCHAR 00C6
ENCODING 198
SWIDTH 960 0
DWIDTH 16 0
BBX 18 12 0 0
BITMAP
003FC0
007F80
00F000
01B000
033000
067F00
0C7F00
0FE000
1FE000
30C000
60FF00
E0FE00
ENDCHAR
STARTCHAR 00C7
ENCODING 199
SWIDTH 600 0
DWIDTH 10 0
BBX 10 15 2 -3
BITMAP
0780
1FC0
3800
7000
6000
C000
C000
C000
C000
E000
7F00
3F00
1000
1800
3800
ENDCHAR
STARTCHAR 00C8
ENCODING 200
SWIDTH 600 0
DWIDTH 10 0
BBX 10 15 1 1
BITMAP
0600
0300
0100
1FC0
1FC0
1800
3000
3000
3F00
3F00
6000
6000
6000
7F00
FF00
ENDCHAR
STARTCHAR 00C9
ENCODING 201
SWIDTH 600 0
DWIDTH 10 0
BBX 10 16 1 0
BITMAP
0080
01C0
0300
0200
1FC0
1FC0
1800
3000
3000
3F00
3F00
6000
6000
6000
7F00
FF00
ENDCHAR
STARTCHAR 00CA
ENCODING 202
SWIDTH 600 0
DWIDTH 10 0
BBX 10 16 1 0
BITMAP
0100
0300
0680
0480
1FC0
1FC0
1800
3000
3000
3F00
3F00
6000
6000
6000
7F00
FF00
ENDCHAR
STARTCHAR 00CB
ENCODING 203
SWIDTH 600 0
DWIDTH 10 0
BBX 10 15 1 0
BITMAP
04C0
0CC0
0000
1FC0
1FC0
1800
3000
3000
3F00
3F00
6000
6000
6000
7F00
FF00
ENDCHAR
STARTCHAR 00CC
ENCODING 204
SWIDTH 300 0
DWIDTH 5 0
BBX 5 16 1 0
BITMAP
10
38
18
00
18
18
18
30
30
30
30
60
60
60
60
E0
ENDCHAR
STARTCHAR 00CD
ENCODING 205
SWIDTH 300 0
DWIDTH 5 0
BBX 7 16 1 0
BITMAP
04
0E
18
00
18
18
18
30
30
30
30
60
60
60
60
E0
ENDCHAR
STARTCHAR 00CE
ENCODING 206
SWIDTH 300 0
DWIDTH 5 0
BBX 7 15 1 1
BITMAP
0C
36
00
18
18
18
30
30
30
30
60
60
60
60
E0
ENDCHAR
STARTCHAR 00CF
ENCODING 207
SWIDTH 300 0
DWIDTH 5 0
BBX 7 15 1 0
BITMAP
32
36
00
18
18
18
30
30
30
30
60
60
60
60
E0
ENDCHAR
STARTCHAR 00D0
ENCODING 208
SWIDTH 720 0
DWIDTH 12 0
BBX 11 12 2 0
BITMAP
1E00
3F80
31C0
30E0
7060
F860
F8E0
60C0
E1C0
C380
FF00
FE00
ENDCHAR
STARTCHAR 00D1
ENCODING 209
SWIDTH 720 0
DWIDTH 12 0
BBX 12 15 1 0
BITMAP
03A0
07E0
0000
1830
1830
1C30
3C30
3660
3660
3360
6360
61C0
61C0
61C0
C0C0
ENDCHAR
STARTCHAR 00D2
ENCODING 210
SWIDTH 720 0
DWIDTH 12 0
BBX 11 16 2 0
BITMAP
0200
0700
0380
0000
0700
1FC0
38E0
7060
6060
C060
C060
C0E0
C0C0
E1C0
7F80
3E00
ENDCHAR
STARTCHAR 00D3
ENCODING 211
SWIDTH 720 0
DWIDTH 12 0
BBX 11 16 2 0
BITMAP
0080
0180
0700
0000
0700
1FC0
38E0
7060
6060
C060
C060
C0E0
C0C0
E1C0
7F80
3E00
ENDCHAR
STARTCHAR 00D4
ENCODING 212
SWIDTH 720 0
DWIDTH 12 0
BBX 11 16 2 0
BITMAP
0100
0300
0780
0080
0700
1FC0
38E0
7060
6060
C060
C060
C0E0
C0C0
E1C0
7F80
3E00
ENDCHAR
STARTCHAR 00D5
ENCODING 213
SWIDTH 720 0
DWIDTH 12 0
BBX 11 15 2 0
BITMAP
0740
0F80
0000
0700
1FC0
38E0
7060
6060
C060
C060
C0E0
C0C0
E1C0
7F80
3E00
ENDCHAR
STARTCHAR 00D6
ENCODING 214
SWIDTH 720 0
DWIDTH 12 0
BBX 11 15 2 0
BITMAP
06C0
0CC0
0000
0700
1FC0
38E0
7060
6060
C060
C060
C0E0
C0C0
E1C0
7F80
3E00
ENDCHAR
STARTCHAR 00D7
ENCODING 215
SWIDTH 540 0
DWIDTH 9 0
BBX 8 7 2 1
BITMAP
63
36
3C
38
6C
C6
04
ENDCHAR
STARTCHAR 00D8
ENCODING 216
SWIDTH 720 0
DWIDTH 12 0
BBX 11 12 2 -1
BITMAP
0720
1FE0
38E0
71E0
6360
E660
CC60
C8E0
D8C0
F1C0
7F80
FF00
ENDCHAR
STARTCHAR 00D9
ENCODING 217
SWIDTH 660 0
DWIDTH 11 0
BBX 11 16 2 0
BITMAP
0400
0E00
0300
0000
3060
30C0
70C0
60C0
60C0
61C0
6180
C180
C180
C300
FF00
7E00
ENDCHAR
STARTCHAR 00DA
ENCODING 218
SWIDTH 660 0
DWIDTH 11 0
BBX 11 16 2 0
BITMAP
0100
0380
0600
0000
3060
30C0
70C0
60C0
60C0
61C0
6180
C180
C180
C300
FF00
7E00
ENDCHAR
STARTCHAR 00DB
ENCODING 219
SWIDTH 660 0
DWIDTH 11 0
BBX 11 15 2 1
BITMAP
0300
0D80
0000
3060
30C0
70C0
60C0
60C0
61C0
6180
C180
C180
C300
FF00
7E00
ENDCHAR
STARTCHAR 00DC
ENCODING 220
SWIDTH 660 0
DWIDTH 11 0
BBX 11 15 2 0
BITMAP
0C80
0D80
0000
3060
30C0
70C0
60C0
60C0
61C0
6180
C180
C180
C300
FF00
7E00
ENDCHAR
STARTCHAR 00DD
ENCODING 221
SWIDTH 600 0
DWIDTH 10 0
BBX 10 15 3 1
BITMAP
0E00
1C00
0000
C1C0
C380
C300
6600
6E00
7C00
3800
3000
3000
7000
6000
6000
ENDCHAR
STARTCHAR 00DE
ENCODING 222
SWIDTH 600 0
DWIDTH 10 0
BBX 10 12 1 0
BITMAP
1800
1800
1F00
3FC0
30C0
30C0
30C0
6180
7F80
7C00
6000
C000
ENDCHAR
STARTCHAR 00DF
ENCODING 223
SWIDTH 600 0
DWIDTH 10 0
BBX 11 16 0 -3
BITMAP
03C0
0FE0
0C60
0C60
18C0
1980
1B00
1B80
31C0
30E0
3060
35C0
6F80
6000
6000
C000
ENDCHAR
STARTCHAR 00E0
ENCODING 224
SWIDTH 540 0
DWIDTH 9 0
BBX 8 13 2 0
BITMAP
08
0C
06
00
1F
3F
63
C6
C6
C6
C6
FE
FE
ENDCHAR
STARTCHAR 00E1
ENCODING 225
SWIDTH 540 0
DWIDTH 9 0
BBX 8 13 2 0
BITMAP
02
06
0C
00
1F
3F
63
C6
C6
C6
C6
FE
FE
ENDCHAR
STARTCHAR 00E2
ENCODING 226
SWIDTH 540 0
DWIDTH 9 0
BBX 8 13 2 0
BITMAP
04
0E
1B
00
1F
3F
63
C6
C6
C6
C6
FE
FE
ENDCHAR
STARTCHAR 00E3
ENCODING 227
SWIDTH 540 0
DWIDTH 9 0
BBX 8 12 2 0
BITMAP
1F
16
00
1F
3F
63
C6
C6
C6
C6
FE
FE
ENDCHAR
STARTCHAR 00E4
ENCODING 228
SWIDTH 540 0
DWIDTH 9 0
BBX 8 12 2 0
BITMAP
1B
13
00
1F
3F
63
C6
C6
C6
C6
FE
FE
ENDCHAR
STARTCHAR 00E5
ENCODING 229
SWIDTH 540 0
DWIDTH 9 0
BBX 8 13 2 0
BITMAP
0E
0A
0E
00
1F
3F
63
C6
C6
C6
C6
FE
FE
ENDCHAR
STARTCHAR 00E6
ENCODING 230
SWIDTH 840 0
DWIDTH 14 0
BBX 14 9 1 0
BITMAP
3C78
3EFC
038C
031C
3FF8
63E0
C700
CFB0
7DF0
ENDCHAR
STARTCHAR 00E7
ENCODING 231
SWIDTH 480 0
DWIDTH 8 0
BBX 7 12 2 -3
BITMAP
1E
7E
E0
C0
C0
C0
C0
F8
7C
20
30
F0
ENDCHAR
STARTCHAR 00E8
ENCODING 232
SWIDTH 540 0
DWIDTH 9 0
BBX 7 13 2 0
BITMAP
18
1C
06
00
1C
7E
62
C6
FE
F0
C0
EC
7C
ENDCHAR
STARTCHAR 00E9
ENCODING 233
SWIDTH 540 0
DWIDTH 9 0
BBX 7 13 2 0
BITMAP
06
0E
18
00
1C
7E
62
C6
FE
F0
C0
EC
7C
ENDCHAR
STARTCHAR 00EA
ENCODING 234
SWIDTH 540 0
DWIDTH 9 0
BBX 7 13 2 0
BITMAP
04
0E
12
00
1C
7E
62
C6
FE
F0
C0
EC
7C
ENDCHAR
STARTCHAR 00EB
ENCODING 235
SWIDTH 540 0
DWIDTH 9 0
BBX 8 12 2 0
BITMAP
1B
13
00
1C
7E
62
C6
FE
F0
C0
EC
7C
ENDCHAR
STARTCHAR 00EC
ENCODING 236
SWIDTH 300 0
DWIDTH 5 0
BBX 5 13 1 0
BITMAP
20
30
18
00
30
30
30
30
60
60
60
60
C0
ENDCHAR
STARTCHAR 00ED
ENCODING 237
SWIDTH 300 0
DWIDTH 5 0
BBX 6 13 1 0
BITMAP
0C
1C
30
00
30
30
30
30
60
60
60
60
C0
ENDCHAR
STARTCHAR 00EE
ENCODING 238
SWIDTH 300 0
DWIDTH 5 0
BBX 6 13 1 0
BITMAP
08
38
6C
00
30
30
30
30
60
60
60
60
C0
ENDCHAR
STARTCHAR 00EF
ENCODING 239
SWIDTH 300 0
DWIDTH 5 0
BBX 7 12 1 0
BITMAP
66
64
00
30
30
30
30
60
60
60
60
C0
ENDCHAR
STARTCHAR 00F0
ENCODING 240
SWIDTH 600 0
DWIDTH 10 0
BBX 9 13 2 0
BITMAP
0400
0F80
0F00
0B00
0300
3F00
7F00
C300
C300
C700
C600
FC00
7800
ENDCHAR
STARTCHAR 00F1
ENCODING 241
SWIDTH 540 0
DWIDTH 9 0
BBX 9 12 1 0
BITMAP
0F80
0B00
0000
1E00
3F00
3380
3180
6300
6300
6300
6300
C600
ENDCHAR
STARTCHAR 00F2
ENCODING 242
SWIDTH 540 0
DWIDTH 9 0
BBX 8 13 2 0
BITMAP
18
1C
0C
00
1C
7E
63
C3
C3
C6
C6
FC
78
ENDCHAR
STARTCHAR 00F3
ENCODING 243
SWIDTH 540 0
DWIDTH 9 0
BBX 8 13 2 0
BITMAP
06
0E
08
00
1C
7E
63
C3
C3
C6
C6
FC
78
ENDCHAR
STARTCHAR 00F4
ENCODING 244
SWIDTH 540 0
DWIDTH 9 0
BBX 8 13 2 0
BITMAP
04
0E
12
00
1C
7E
63
C3
C3
C6
C6
FC
78
ENDCHAR
STARTCHAR 00F5
ENCODING 245
SWIDTH 540 0
DWIDTH 9 0
BBX 8 12 2 0
BITMAP
1F
06
00
1C
7E
63
C3
C3
C6
C6
FC
78
ENDCHAR
STARTCHAR 00F6
ENCODING 246
SWIDTH 540 0
DWIDTH 9 0
BBX 8 12 2 0
BITMAP
3B
13
00
1C
7E
63
C3
C3
C6
C6
FC
78
ENDCHAR
STARTCHAR 00F7
ENCODING 247
SWIDTH 540 0
DWIDTH 9 0
BBX 8 9 2 0
BITMAP
1C
1C
00
FF
FF
00
30
30
30
ENDCHAR
STARTCHAR 00F8
ENCODING 248
SWIDTH 540 0
DWIDTH 9 0
BBX 9 9 1 -1
BITMAP
0F80
3F00
3380
6580
6D80
7B00
7300
7E00
FC00
ENDCHAR
STARTCHAR 00F9
ENCODING 249
SWIDTH 540 0
DWIDTH 9 0
BBX 8 13 2 0
BITMAP
10
18
0C
00
63
63
63
C6
C6
C6
C6
FE
FE
ENDCHAR
STARTCHAR 00FA
ENCODING 250
SWIDTH 540 0
DWIDTH 9 0
BBX 8 13 2 0
BITMAP
02
0E
08
00
63
63
63
C6
C6
C6
C6
FE
FE
ENDCHAR
STARTCHAR 00FB
ENCODING 251
SWIDTH 540 0
DWIDTH 9 0
BBX 8 13 2 0
BITMAP
04
0E
12
00
63
63
63
C6
C6
C6
C6
FE
FE
ENDCHAR
STARTCHAR 00FC
ENCODING 252
SWIDTH 540 0
DWIDTH 9 0
BBX 8 12 2 0
BITMAP
3B
13
00
63
63
63
C6
C6
C6
C6
FE
FE
ENDCHAR
STARTCHAR 00FD
ENCODING 253
SWIDTH 480 0
DWIDTH 8 0
BBX 11 16 -1 -3
BITMAP
0080
0180
0300
0000
1860
18C0
18C0
1980
1980
0980
0F00
0E00
0E00
0C00
7800
F000
ENDCHAR
STARTCHAR 00FE
ENCODING 254
SWIDTH 540 0
DWIDTH 9 0
BBX 9 16 1 -3
BITMAP
1800
1800
1800
1800
3E00
3F00
3180
3180
6180
6300
6300
7E00
FC00
C000
C000
C000
ENDCHAR
STARTCHAR 00FF
ENCODING 255
SWIDTH 480 0
DWIDTH 8 0
BBX 11 15 -1 -3
BITMAP
06C0
04C0
0000
1860
18C0
18C0
1980
1980
0980
0F00
0E00
0E00
0C00
7800
F000
ENDCHAR
STARTCHAR 0100
ENCODING 256
SWIDTH 660 0
DWIDTH 11 0
BBX 11 15 0 0
BITMAP
03E0
03E0
0000
0180
0180
03C0
06C0
06C0
0CC0
18C0
18C0
3FE0
3060
6060
E060
ENDCHAR
STARTCHAR 0101
ENCODING 257
SWIDTH 540 0
DWIDTH 9 0
BBX 8 12 2 0
BITMAP
1F
00
00
1F
3F
63
C6
C6
C6
C6
FE
FE
ENDCHAR
STARTCHAR 0102
ENCODING 258
SWIDTH 660 0
DWIDTH 11 0
BBX 11 15 0 0
BITMAP
0120
01E0
0000
0180
0180
03C0
06C0
06C0
0CC0
18C0
18C0
3FE0
3060
6060
E060
ENDCHAR
STARTCHAR 0103
ENCODING 259
SWIDTH 540 0
DWIDTH 9 0
BBX 8 13 2 0
BITMAP
19
1B
0E
00
1F
3F
63
C6
C6
C6
C6
FE
FE
ENDCHAR
STARTCHAR 0104
ENCODING 260
SWIDTH 660 0
DWIDTH 11 0
BBX 11 15 0 -3
BITMAP
0180
0180
03C0
06C0
06C0
0CC0
18C0
18C0
3FE0
3060
6060
E060
00C0
0080
01C0
ENDCHAR
STARTCHAR 0105
ENCODING 261
SWIDTH 540 0
DWIDTH 9 0
BBX 8 12 2 -3
BITMAP
1F
3F
63
C6
C6
C6
C6
FE
FE
04
08
0E
ENDCHAR
STARTCHAR 0106
ENCODING 262
SWIDTH 600 0
DWIDTH 10 0
BBX 10 15 2 1
BITMAP
0380
0700
0000
0780
1FC0
3800
7000
6000
C000
C000
C000
C000
E000
7F00
3F00
ENDCHAR
STARTCHAR 0107
ENCODING 263
SWIDTH 480 0
DWIDTH 8 0
BBX 7 13 2 0
BITMAP
06
0E
18
00
1E
7E
E0
C0
C0
C0
C0
F8
7C
ENDCHAR
STARTCHAR 0108
ENCODING 264
SWIDTH 600 0
DWIDTH 10 0
BBX 10 16 2 0
BITMAP
0100
0300
0680
0480
0780
1FC0
3800
7000
6000
C000
C000
C000
C000
E000
7F00
3F00
ENDCHAR
STARTCHAR 0109
ENCODING 265
SWIDTH 480 0
DWIDTH 8 0
BBX 7 13 2 0
BITMAP
04
0E
12
00
1E
7E
E0
C0
C0
C0
C0
F8
7C
ENDCHAR
STARTCHAR 010A
ENCODING 266
SWIDTH 600 0
DWIDTH 10 0
BBX 10 15 2 0
BITMAP
0300
0300
0000
0780
1FC0
3800
7000
6000
C000
C000
C000
C000
E000
7F00
3F00
ENDCHAR
STARTCHAR 010B
ENCODING 267
SWIDTH 480 0
DWIDTH 8 0
BBX 7 12 2 0
BITMAP
0C
0C
00
1E
7E
E0
C0
C0
C0
C0
F8
7C
ENDCHAR
STARTCHAR 010C
ENCODING 268
SWIDTH 600 0
DWIDTH 10 0
BBX 10 15 2 1
BITMAP
0780
0300
0000
0780
1FC0
3800
7000
6000
C000
C000
C000
C000
E000
7F00
3F00
ENDCHAR
STARTCHAR 010D
ENCODING 269
SWIDTH 480 0
DWIDTH 8 0
BBX 8 13 2 0
BITMAP
13
0E
0C
00
1E
7E
E0
C0
C0
C0
C0
F8
7C
ENDCHAR
STARTCHAR 010E
ENCODING 270
SWIDTH 720 0
DWIDTH 12 0
BBX 11 16 1 0
BITMAP
0240
02C0
0180
0100
0F00
1FC0
18E0
3060
3060
3060
3060
6060
60E0
61C0
7F80
FE00
ENDCHAR
STARTCHAR 010F
ENCODING 271
SWIDTH 600 0
DWIDTH 10 0
BBX 12 13 2 0
BITMAP
01B0
01B0
01A0
0320
1F00
7F00
6300
C600
C600
C600
C600
FE00
FE00
ENDCHAR
STARTCHAR 0110
ENCODING 272
SWIDTH 720 0
DWIDTH 12 0
BBX 11 12 2 0
BITMAP
1E00
3F80
31C0
30E0
7060
F860
F8E0
60C0
E1C0
C380
FF00
FE00
ENDCHAR
STARTCHAR 0111
ENCODING 273
SWIDTH 600 0
DWIDTH 10 0
BBX 10 13 2 0
BITMAP
0180
0180
0FC0
0300
1F00
7F00
6300
C600
C600
C600
C600
FE00
FE00
ENDCHAR
STARTCHAR 0112
ENCODING 274
SWIDTH 600 0
DWIDTH 10 0
BBX 10 15 1 0
BITMAP
07C0
07C0
0000
1FC0
1FC0
1800
3000
3000
3F00
3F00
6000
6000
6000
7F00
FF00
ENDCHAR
STARTCHAR 0113
ENCODING 275
SWIDTH 540 0
DWIDTH 9 0
BBX 8 12 2 0
BITMAP
1F
00
00
1C
7E
62
C6
FE
F0
C0
EC
7C
ENDCHAR
STARTCHAR 0114
ENCODING 276
SWIDTH 600 0
DWIDTH 10 0
BBX 10 15 1 0
BITMAP
04C0
0780
0000
1FC0
1FC0
1800
3000
3000
3F00
3F00
6000
6000
6000
7F00
FF00
ENDCHAR
STARTCHAR 0115
ENCODING 277
SWIDTH 540 0
DWIDTH 9 0
BBX 8 13 2 0
BITMAP
13
1A
0E
00
1C
7E
62
C6
FE
F0
C0
EC
7C
ENDCHAR
STARTCHAR 0116
ENCODING 278
SWIDTH 600 0
DWIDTH 10 0
BBX 10 15 1 0
BITMAP
0300
0300
0000
1FC0
1FC0
1800
3000
3000
3F00
3F00
6000
6000
6000
7F00
FF00
ENDCHAR
STARTCHAR 0117
ENCODING 279
SWIDTH 540 0
DWIDTH 9 0
BBX 7 12 2 0
BITMAP
0C
0C
00
1C
7E
62
C6
FE
F0
C0
EC
7C
ENDCHAR
STARTCHAR 0118
ENCODING 280
SWIDTH 600 0
DWIDTH 10 0
BBX 10 15 1 -3
BITMAP
1FC0
1FC0
1800
3000
3000
3F00
3F00
6000
6000
6000
7F00
FF00
0600
0C00
0E00
ENDCHAR
STARTCHAR 0119
ENCODING 281
SWIDTH 540 0
DWIDTH 9 0
BBX 7 12 2 -3
BITMAP
1C
7E
62
C6
FE
F0
C0
EC
7C
18
30
38
ENDCHAR
STARTCHAR 011A
ENCODING 282
SWIDTH 600 0
DWIDTH 10 0
BBX 10 16 1 0
BITMAP
0400
0780
0300
0000
1FC0
1FC0
1800
3000
3000
3F00
3F00
6000
6000
6000
7F00
FF00
ENDCHAR
STARTCHAR 011B
ENCODING 283
SWIDTH 540 0
DWIDTH 9 0
BBX 8 13 2 0
BITMAP
13
0E
0C
00
1C
7E
62
C6
FE
F0
C0
EC
7C
ENDCHAR
STARTCHAR 011C
ENCODING 284
SWIDTH 660 0
DWIDTH 11 0
BBX 10 16 2 0
BITMAP
0100
0300
0780
0080
0780
1FC0
3840
7000
6000
C000
C180
C180
C180
E180
7F00
3F00
ENDCHAR
STARTCHAR 011D
ENCODING 285
SWIDTH 540 0
DWIDTH 9 0
BBX 9 16 1 -3
BITMAP
0200
0700
0D80
0000
0F80
1F80
3180
6180
6300
6300
6300
7F00
1600
0600
FC00
F800
ENDCHAR
STARTCHAR 011E
ENCODING 286
SWIDTH 660 0
DWIDTH 11 0
BBX 10 15 2 0
BITMAP
04C0
0780
0000
0780
1FC0
3840
7000
6000
C000
C180
C180
C180
E180
7F00
3F00
ENDCHAR
STARTCHAR 011F
ENCODING 287
SWIDTH 540 0
DWIDTH 9 0
BBX 9 16 1 -3
BITMAP
0480
0580
0700
0000
0F80
1F80
3180
6180
6300
6300
6300
7F00
1600
0600
FC00
F800
ENDCHAR
STARTCHAR 0120
ENCODING 288
SWIDTH 660 0
DWIDTH 11 0
BBX 10 15 2 0
BITMAP
0300
0300
0000
0780
1FC0
3840
7000
6000
C000
C180
C180
C180
E180
7F00
3F00
ENDCHAR
STARTCHAR 0121
ENCODING 289
SWIDTH 540 0
DWIDTH 9 0
BBX 9 15 1 -3
BITMAP
0300
0200
0000
0F80
1F80
3180
6180
6300
6300
6300
7F00
1600
0600
FC00
F800
ENDCHAR
STARTCHAR 0122
ENCODING 290
SWIDTH 660 0
DWIDTH 11 0
BBX 10 15 2 -3
BITMAP
0780
1FC0
3840
7000
6000
C000
C180
C180
C180
E180
7F00
3F00
0000
1800
3800
ENDCHAR
STARTCHAR 0123
ENCODING 291
SWIDTH 540 0
DWIDTH 9 0
BBX 9 16 1 -3
BITMAP
0100
0300
0200
0000
0F80
1F80
3180
6180
6300
6300
6300
7F00
1600
0600
FC00
F800
ENDCHAR
STARTCHAR 0124
ENCODING 292
SWIDTH 720 0
DWIDTH 12 0
BBX 12 15 1 1
BITMAP
0180
03C0
0000
1830
1830
1870
3060
3060
3FE0
3FE0
60C0
60C0
60C0
61C0
E180
ENDCHAR
STARTCHAR 0125
ENCODING 293
SWIDTH 540 0
DWIDTH 9 0
BBX 9 16 1 0
BITMAP
0400
0E00
0000
1800
1800
1800
3800
3E00
3F00
3380
3180
6300
6300
6300
6300
C600
ENDCHAR
STARTCHAR 0126
ENCODING 294
SWIDTH 720 0
DWIDTH 12 0
BBX 13 12 1 0
BITMAP
1830
1830
7FF8
3060
3060
3FE0
3FE0
60C0
60C0
60C0
61C0
C180
ENDCHAR
STARTCHAR 0127
ENCODING 295
SWIDTH 540 0
DWIDTH 9 0
BBX 9 13 1 0
BITMAP
1800
1800
3E00
1800
3E00
3F00
3380
3180
6300
6300
6300
6300
C600
ENDCHAR
STARTCHAR 0128
ENCODING 296
SWIDTH 300 0
DWIDTH 5 0
BBX 8 15 1 0
BITMAP
1B
3E
00
18
18
18
30
30
30
30
60
60
60
60
E0
ENDCHAR
STARTCHAR 0129
ENCODING 297
SWIDTH 300 0
DWIDTH 5 0
BBX 7 12 1 0
BITMAP
7E
4C
00
30
30
30
30
60
60
60
60
C0
ENDCHAR
STARTCHAR 012A
ENCODING 298
SWIDTH 300 0
DWIDTH 5 0
BBX 7 15 1 0
BITMAP
3E
3E
00
18
18
18
30
30
30
30
60
60
60
60
E0
ENDCHAR
STARTCHAR 012B
ENCODING 299
SWIDTH 300 0
DWIDTH 5 0
BBX 6 12 1 0
BITMAP
7C
00
00
30
30
30
30
60
60
60
60
C0
ENDCHAR
STARTCHAR 012C
ENCODING 300
SWIDTH 300 0
DWIDTH 5 0
BBX 7 15 1 0
BITMAP
32
1E
00
18
18
18
30
30
30
30
60
60
60
60
E0
ENDCHAR
STARTCHAR 012D
ENCODING 301
SWIDTH 300 0
DWIDTH 5 0
BBX 7 13 1 0
BITMAP
26
2C
38
00
30
30
30
30
60
60
60
60
C0
ENDCHAR
STARTCHAR 012E
ENCODING 302
SWIDTH 300 0
DWIDTH 5 0
BBX 6 15 0 -3
BITMAP
0C
0C
0C
18
18
18
18
30
30
30
30
70
60
C0
E0
ENDCHAR
STARTCHAR 012F
ENCODING 303
SWIDTH 300 0
DWIDTH 5 0
BBX 6 15 0 -2
BITMAP
0C
0C
00
18
18
18
18
30
30
30
30
60
60
C0
E0
ENDCHAR
STARTCHAR 0130
ENCODING 304
SWIDTH 300 0
DWIDTH 5 0
BBX 6 15 1 0
BITMAP
0C
1C
00
18
18
18
30
30
30
30
60
60
60
60
E0
ENDCHAR
STARTCHAR 0131
ENCODING 305
SWIDTH 300 0
DWIDTH 5 0
BBX 4 9 1 0
BITMAP
30
30
30
30
60
60
60
60
C0
ENDCHAR
STARTCHAR 0132
ENCODING 306
SWIDTH 780 0
DWIDTH 13 0
BBX 14 12 1 0
BITMAP
180C
1818
1818
3018
3018
3030
3030
6030
6030
6060
67E0
E7C0
ENDCHAR
STARTCHAR 0133
ENCODING 307
SWIDTH 540 0
DWIDTH 9 0
BBX 10 15 1 -2
BITMAP
19C0
18C0
0000
3180
3180
3180
3300
6300
6300
6300
6600
C600
0600
3C00
3C00
ENDCHAR
STARTCHAR 0134
ENCODING 308
SWIDTH 480 0
DWIDTH 8 0
BBX 10 16 1 0
BITMAP
0080
0180
03C0
0040
0180
0300
0300
0300
0300
0700
0600
0600
0600
0C00
FC00
F800
ENDCHAR
STARTCHAR 0135
ENCODING 309
SWIDTH 300 0
DWIDTH 5 0
BBX 9 16 -2 -3
BITMAP
0300
0700
0D80
0000
0600
0600
0600
0600
0C00
0C00
0C00
0C00
1800
1800
7800
F000
ENDCHAR
STARTCHAR 0136
ENCODING 310
SWIDTH 660 0
DWIDTH 11 0
BBX 12 15 1 -3
BITMAP
1870
18E0
19C0
3380
3600
3C00
3C00
6E00
6700
6300
6380
E180
0000
0800
3800
ENDCHAR
STARTCHAR 0137
ENCODING 311
SWIDTH 540 0
DWIDTH 9 0
BBX 9 16 1 -3
BITMAP
1800
1800
1800
3800
3180
3300
3600
3C00
7800
6C00
6E00
6600
C300
0000
1800
3000
ENDCHAR
STARTCHAR 0138
ENCODING 312
SWIDTH 540 0
DWIDTH 9 0
BBX 10 9 1 0
BITMAP
31C0
3380
3600
3C00
7800
6C00
6E00
6600
C300
ENDCHAR
STARTCHAR 0139
ENCODING 313
SWIDTH 540 0
DWIDTH 9 0
BBX 8 15 1 1
BITMAP
0E
1C
00
18
18
18
30
30
30
30
60
60
60
7F
FF
ENDCHAR
STARTCHAR 013A
ENCODING 314
SWIDTH 300 0
DWIDTH 5 0
BBX 6 16 2 0
BITMAP
0C
3C
00
30
30
30
60
60
60
60
C0
C0
C0
C0
E0
E0
ENDCHAR
STARTCHAR 013B
ENCODING 315
SWIDTH 540 0
DWIDTH 9 0
BBX 8 15 1 -3
BITMAP
18
18
18
30
30
30
30
60
60
60
7F
FF
00
18
30
ENDCHAR
STARTCHAR 013C
ENCODING 316
SWIDTH 300 0
DWIDTH 5 0
BBX 5 16 1 -3
BITMAP
18
18
18
30
30
30
30
60
60
60
60
70
70
00
60
C0
ENDCHAR
STARTCHAR 013D
ENCODING 317
SWIDTH 540 0
DWIDTH 9 0
BBX 8 12 1 0
BITMAP
19
1B
1B
32
30
30
30
60
60
60
7F
FF
ENDCHAR
STARTCHAR 013E
ENCODING 318
SWIDTH 360 0
DWIDTH 6 0
BBX 7 13 2 0
BITMAP
32
36
36
64
60
60
60
C0
C0
C0
C0
E0
E0
ENDCHAR
STARTCHAR 013F
ENCODING 319
SWIDTH 540 0
DWIDTH 9 0
BBX 8 12 1 0
BITMAP
18
18
18
30
30
33
33
60
60
60
7F
FF
ENDCHAR
STARTCHAR 0140
ENCODING 320
SWIDTH 420 0
DWIDTH 7 0
BBX 6 13 2 0
BITMAP
30
30
30
60
60
60
6C
CC
C0
C0
C0
E0
E0
ENDCHAR
STARTCHAR 0141
ENCODING 321
SWIDTH 600 0
DWIDTH 10 0
BBX 8 12 1 0
BITMAP
1C
18
18
18
3E
3C
70
F0
30
60
7F
7F
ENDCHAR
STARTCHAR 0142
ENCODING 322
SWIDTH 360 0
DWIDTH 6 0
BBX 6 13 1 0
BITMAP
18
18
18
18
3C
3C
70
F0
30
60
60
70
30
ENDCHAR
STARTCHAR 0143
ENCODING 323
SWIDTH 720 0
DWIDTH 12 0
BBX 12 16 1 0
BITMAP
0040
00C0
0180
0000
1830
1830
1C30
3C30
3660
3660
3360
6360
61C0
61C0
61C0
C0C0
ENDCHAR
STARTCHAR 0144
ENCODING 324
SWIDTH 540 0
DWIDTH 9 0
BBX 9 13 1 0
BITMAP
0100
0300
0600
0000
1E00
3F00
3380
3180
6300
6300
6300
6300
C600
ENDCHAR
STARTCHAR 0145
ENCODING 325
SWIDTH 720 0
DWIDTH 12 0
BBX 12 15 1 -3
BITMAP
1830
1830
1C30
3C30
3660
3660
3360
6360
61C0
61C0
61C0
C0C0
0000
0C00
1800
ENDCHAR
STARTCHAR 0146
ENCODING 326
SWIDTH 540 0
DWIDTH 9 0
BBX 9 12 1 -3
BITMAP
1E00
3F00
3380
3180
6300
6300
6300
6300
C600
0000
3000
7000
ENDCHAR
STARTCHAR 0147
ENCODING 327
SWIDTH 720 0
DWIDTH 12 0
BBX 12 16 1 0
BITMAP
0200
03C0
0180
0000
1830
1830
1C30
3C30
3660
3660
3360
6360
61C0
61C0
61C0
C0C0
ENDCHAR
STARTCHAR 0148
ENCODING 328
SWIDTH 540 0
DWIDTH 9 0
BBX 9 13 1 0
BITMAP
0D80
0700
0600
0000
1E00
3F00
3380
3180
6300
6300
6300
6300
C600
ENDCHAR
STARTCHAR 0149
ENCODING 329
SWIDTH 600 0
DWIDTH 10 0
BBX 9 13 1 0
BITMAP
3000
2000
6000
0000
1F00
3F00
3180
3180
6380
6300
6300
6300
E300
ENDCHAR
STARTCHAR 014A
ENCODING 330
SWIDTH 720 0
DWIDTH 12 0
BBX 12 15 1 -3
BITMAP
1830
1830
1C30
3C30
3660
3660
3360
6360
61C0
61C0
61C0
C0C0
0180
0780
0700
ENDCHAR
STARTCHAR 014B
ENCODING 331
SWIDTH 540 0
DWIDTH 9 0
BBX 9 12 1 -3
BITMAP
1E00
3F00
3380
3180
6300
6300
6300
6300
C600
0600
0E00
1C00
ENDCHAR
STARTCHAR 014C
ENCODING 332
SWIDTH 720 0
DWIDTH 12 0
BBX 11 15 2 0
BITMAP
07C0
07C0
0000
0700
1FC0
38E0
7060
6060
C060
C060
C0E0
C0C0
E1C0
7F80
3E00
ENDCHAR
STARTCHAR 014D
ENCODING 333
SWIDTH 540 0
DWIDTH 9 0
BBX 8 12 2 0
BITMAP
1F
00
00
1C
7E
63
C3
C3
C6
C6
FC
78
ENDCHAR
STARTCHAR 014E
ENCODING 334
SWIDTH 720 0
DWIDTH 12 0
BBX 11 15 2 0
BITMAP
04C0
0780
0000
0700
1FC0
38E0
7060
6060
C060
C060
C0E0
C0C0
E1C0
7F80
3E00
ENDCHAR
STARTCHAR 014F
ENCODING 335
SWIDTH 540 0
DWIDTH 9 0
BBX 8 13 2 0
BITMAP
13
1A
0E
00
1C
7E
63
C3
C3
C6
C6
FC
78
ENDCHAR
STARTCHAR 0150
ENCODING 336
SWIDTH 720 0
DWIDTH 12 0
BBX 12 16 2 0
BITMAP
0120
0370
0640
0000
0700
1FC0
38E0
7060
6060
C060
C060
C0E0
C0C0
E1C0
7F80
3E00
ENDCHAR
STARTCHAR 0151
ENCODING 337
SWIDTH 540 0
DWIDTH 9 0
BBX 9 13 2 0
BITMAP
0480
0D80
1B00
0000
1C00
7E00
6300
C300
C300
C600
C600
FC00
7800
ENDCHAR
STARTCHAR 0152
ENCODING 338
SWIDTH 960 0
DWIDTH 16 0
BBX 16 12 2 0
BITMAP
03FF
1FFF
38C0
70C0
60C0
C0FC
C1FC
C180
C180
E180
7FFC
3FFC
ENDCHAR
STARTCHAR 0153
ENCODING 339
SWIDTH 900 0
DWIDTH 15 0
BBX 13 9 2 0
BITMAP
1C70
7FF8
6398
C318
C3F0
C7C0
C600
FFB0
79F0
ENDCHAR
STARTCHAR 0154
ENCODING 340
SWIDTH 600 0
DWIDTH 10 0
BBX 10 15 1 1
BITMAP
0180
0700
0000
0F00
1FC0
18C0
30C0
30C0
31C0
3F80
7E00
6300
6300
6380
E180
ENDCHAR
STARTCHAR 0155
ENCODING 341
SWIDTH 420 0
DWIDTH 7 0
BBX 7 13 1 0
BITMAP
02
06
0C
00
1E
3E
30
30
60
60
60
60
C0
ENDCHAR
STARTCHAR 0156
ENCODING 342
SWIDTH 600 0
DWIDTH 10 0
BBX 10 15 1 -3
BITMAP
0F00
1FC0
18C0
30C0
30C0
31C0
3F80
7E00
6300
6300
6380
E180
0000
1800
3800
ENDCHAR
STARTCHAR 0157
ENCODING 343
SWIDTH 420 0
DWIDTH 7 0
BBX 8 12 0 -3
BITMAP
0F
1F
18
18
30
30
30
30
60
00
60
C0
ENDCHAR
STARTCHAR 0158
ENCODING 344
SWIDTH 600 0
DWIDTH 10 0
BBX 10 16 1 0
BITMAP
0400
0780
0300
0000
0F00
1FC0
18C0
30C0
30C0
31C0
3F80
7E00
6300
6300
6380
E180
ENDCHAR
STARTCHAR 0159
ENCODING 345
SWIDTH 420 0
DWIDTH 7 0
BBX 8 13 1 0
BITMAP
19
0E
04
00
1E
3E
30
30
60
60
60
60
C0
ENDCHAR
STARTCHAR 015A
ENCODING 346
SWIDTH 540 0
DWIDTH 9 0
BBX 9 16 1 0
BITMAP
0100
0380
0600
0400
0F00
3F80
3000
3000
3000
3C00
1E00
0700
0300
0300
FE00
FC00
ENDCHAR
STARTCHAR 015B
ENCODING 347
SWIDTH 420 0
DWIDTH 7 0
BBX 7 13 1 0
BITMAP
02
06
0C
00
1E
3E
60
70
3C
0C
0C
CC
F8
ENDCHAR
STARTCHAR 015C
ENCODING 348
SWIDTH 540 0
DWIDTH 9 0
BBX 9 15 1 1
BITMAP
0700
0D00
0800
0F00
3F80
3000
3000
3000
3C00
1E00
0700
0300
0300
FE00
FC00
ENDCHAR
STARTCHAR 015D
ENCODING 349
SWIDTH 420 0
DWIDTH 7 0
BBX 8 13 1 0
BITMAP
04
0E
1B
00
1E
3E
60
70
3C
0C
0C
CC
F8
ENDCHAR
STARTCHAR 015E
ENCODING 350
SWIDTH 540 0
DWIDTH 9 0
BBX 9 15 1 -3
BITMAP
0F00
3F80
3000
3000
3000
3C00
1E00
0700
0300
0300
FE00
FC00
2000
3000
7000
ENDCHAR
STARTCHAR 015F
ENCODING 351
SWIDTH 420 0
DWIDTH 7 0
BBX 7 12 1 -3
BITMAP
1E
3E
60
70
3C
0C
0C
CC
F8
20
30
F0
ENDCHAR
STARTCHAR 0160
ENCODING 352
SWIDTH 540 0
DWIDTH 9 0
BBX 9 16 1 0
BITMAP
0080
0580
0600
0000
0F00
3F80
3000
3000
3000
3C00
1E00
0700
0300
0300
FE00
FC00
ENDCHAR
STARTCHAR 0161
ENCODING 353
SWIDTH 420 0
DWIDTH 7 0
BBX 8 13 1 0
BITMAP
19
0E
04
00
1E
3E
60
70
3C
0C
0C
CC
F8
ENDCHAR
STARTCHAR 0162
ENCODING 354
SWIDTH 600 0
DWIDTH 10 0
BBX 9 15 3 -3
BITMAP
FF80
FF80
1800
1800
1800
3000
3000
3000
3000
7000
6000
6000
4000
6000
E000
ENDCHAR
STARTCHAR 0163
ENCODING 355
SWIDTH 420 0
DWIDTH 7 0
BBX 6 14 2 -3
BITMAP
30
60
7C
7C
60
C0
C0
C0
C0
F8
F8
60
20
E0
ENDCHAR
STARTCHAR 0164
ENCODING 356
SWIDTH 600 0
DWIDTH 10 0
BBX 9 16 3 0
BITMAP
1000
1E00
0C00
0000
FF80
FF80
1800
1800
1800
3000
3000
3000
3000
7000
6000
6000
ENDCHAR
STARTCHAR 0165
ENCODING 357
SWIDTH 420 0
DWIDTH 7 0
BBX 7 13 2 0
BITMAP
06
06
34
60
7C
7C
60
C0
C0
C0
C0
F8
F8
ENDCHAR
STARTCHAR 0166
ENCODING 358
SWIDTH 600 0
DWIDTH 10 0
BBX 9 12 3 0
BITMAP
FF80
FF80
1800
1800
1800
3000
FC00
3000
3000
7000
6000
6000
ENDCHAR
STARTCHAR 0167
ENCODING 359
SWIDTH 420 0
DWIDTH 7 0
BBX 6 11 2 0
BITMAP
30
60
7C
7C
60
C0
F8
C0
C0
F8
F8
ENDCHAR
STARTCHAR 0168
ENCODING 360
SWIDTH 660 0
DWIDTH 11 0
BBX 11 15 2 0
BITMAP
06C0
0F80
0000
3060
30C0
70C0
60C0
60C0
61C0
6180
C180
C180
C300
FF00
7E00
ENDCHAR
STARTCHAR 0169
ENCODING 361
SWIDTH 540 0
DWIDTH 9 0
BBX 8 12 2 0
BITMAP
1F
06
00
63
63
63
C6
C6
C6
C6
FE
FE
ENDCHAR
STARTCHAR 016A
ENCODING 362
SWIDTH 660 0
DWIDTH 11 0
BBX 11 15 2 0
BITMAP
0F80
0F80
0000
3060
30C0
70C0
60C0
60C0
61C0
6180
C180
C180
C300
FF00
7E00
ENDCHAR
STARTCHAR 016B
ENCODING 363
SWIDTH 540 0
DWIDTH 9 0
BBX 8 12 2 0
BITMAP
1F
00
00
63
63
63
C6
C6
C6
C6
FE
FE
ENDCHAR
STARTCHAR 016C
ENCODING 364
SWIDTH 660 0
DWIDTH 11 0
BBX 11 15 2 0
BITMAP
0480
0780
0000
3060
30C0
70C0
60C0
60C0
61C0
6180
C180
C180
C300
FF00
7E00
ENDCHAR
STARTCHAR 016D
ENCODING 365
SWIDTH 540 0
DWIDTH 9 0
BBX 8 13 2 0
BITMAP
11
1B
0E
00
63
63
63
C6
C6
C6
C6
FE
FE
ENDCHAR
STARTCHAR 016E
ENCODING 366
SWIDTH 660 0
DWIDTH 11 0
BBX 11 16 2 0
BITMAP
0300
0500
0500
0300
3060
30C0
70C0
60C0
60C0
61C0
6180
C180
C180
C300
FF00
7E00
ENDCHAR
STARTCHAR 016F
ENCODING 367
SWIDTH 540 0
DWIDTH 9 0
BBX 8 13 2 0
BITMAP
1E
12
1E
00
63
63
63
C6
C6
C6
C6
FE
FE
ENDCHAR
STARTCHAR 0170
ENCODING 368
SWIDTH 660 0
DWIDTH 11 0
BBX 11 16 2 0
BITMAP
0200
0360
06C0
0080
3060
30C0
70C0
60C0
60C0
61C0
6180
C180
C180
C300
FF00
7E00
ENDCHAR
STARTCHAR 0171
ENCODING 369
SWIDTH 540 0
DWIDTH 9 0
BBX 9 13 2 0
BITMAP
0480
0D80
1300
0000
6300
6300
6300
C600
C600
C600
C600
FE00
FE00
ENDCHAR
STARTCHAR 0172
ENCODING 370
SWIDTH 660 0
DWIDTH 11 0
BBX 11 15 2 -3
BITMAP
3060
30C0
70C0
60C0
60C0
61C0
6180
C180
C180
C300
FF00
7E00
1800
3000
3800
ENDCHAR
STARTCHAR 0173
ENCODING 371
SWIDTH 540 0
DWIDTH 9 0
BBX 8 12 2 -3
BITMAP
63
63
63
C6
C6
C6
C6
FE
FE
04
08
0E
ENDCHAR
STARTCHAR 0174
ENCODING 372
SWIDTH 900 0
DWIDTH 15 0
BBX 15 15 3 1
BITMAP
0180
03C0
0000
C00E
C00C
C30C
C718
C718
CF38
CB30
D970
F160
F1E0
E1C0
C180
ENDCHAR
STARTCHAR 0175
ENCODING 373
SWIDTH 840 0
DWIDTH 14 0
BBX 13 13 2 0
BITMAP
0100
0380
0480
0000
C318
C718
C730
4F30
4F60
7B60
7BC0
7380
6180
ENDCHAR
STARTCHAR 0176
ENCODING 374
SWIDTH 600 0
DWIDTH 10 0
BBX 10 15 3 1
BITMAP
0C00
1E00
0200
C1C0
C380
C300
6600
6E00
7C00
3800
3000
3000
7000
6000
6000
ENDCHAR
STARTCHAR 0177
ENCODING 375
SWIDTH 480 0
DWIDTH 8 0
BBX 11 16 -1 -3
BITMAP
0100
0380
06C0
0000
1860
18C0
18C0
1980
1980
0980
0F00
0E00
0E00
0C00
7800
F000
ENDCHAR
STARTCHAR 0178
ENCODING 376
SWIDTH 600 0
DWIDTH 10 0
BBX 10 15 3 0
BITMAP
3300
3300
0000
C1C0
C380
C300
6600
6E00
7C00
3800
3000
3000
7000
6000
6000
ENDCHAR
STARTCHAR 0179
ENCODING 377
SWIDTH 600 0
DWIDTH 10 0
BBX 11 16 1 0
BITMAP
0080
0180
0700
0000
1FE0
3FC0
01C0
0380
0700
0E00
1C00
3800
3000
6000
FF00
FF00
ENDCHAR
STARTCHAR 017A
ENCODING 378
SWIDTH 480 0
DWIDTH 8 0
BBX 8 13 1 0
BITMAP
02
06
0C
00
3F
7F
06
0C
18
30
60
FE
FC
ENDCHAR
STARTCHAR 017B
ENCODING 379
SWIDTH 600 0
DWIDTH 10 0
BBX 11 15 1 0
BITMAP
0300
0300
0000
1FE0
3FC0
01C0
0380
0700
0E00
1C00
3800
3000
6000
FF00
FF00
ENDCHAR
STARTCHAR 017C
ENCODING 380
SWIDTH 480 0
DWIDTH 8 0
BBX 8 12 1 0
BITMAP
0E
0C
00
3F
7F
06
0C
18
30
60
FE
FC
ENDCHAR
STARTCHAR 017D
ENCODING 381
SWIDTH 600 0
DWIDTH 10 0
BBX 11 16 1 0
BITMAP
0400
0780
0300
0000
1FE0
3FC0
01C0
0380
0700
0E00
1C00
3800
3000
6000
FF00
FF00
ENDCHAR
STARTCHAR 017E
ENCODING 382
SWIDTH 480 0
DWIDTH 8 0
BBX 8 13 1 0
BITMAP
19
0E
04
00
3F
7F
06
0C
18
30
60
FE
FC
ENDCHAR
STARTCHAR 017F
ENCODING 383
SWIDTH 300 0
DWIDTH 5 0
BBX 10 16 0 -3
BITMAP
03C0
0F80
0C00
1C00
1800
1800
1800
1800
3000
3000
3000
3000
6000
6000
6000
C000
ENDCHAR
STARTCHAR 0180
ENCODING 384
SWIDTH 540 0
DWIDTH 9 0
BBX 9 13 1 0
BITMAP
1800
1800
3E00
3000
3E00
3F00
3180
3180
6180
6380
6300
6E00
FC00
ENDCHAR
STARTCHAR 0181
ENCODING 385
SWIDTH 780 0
DWIDTH 13 0
BBX 11 12 2 0
BITMAP
0F80
7FE0
EC60
DC60
1860
1FC0
1FC0
1860
3060
30E0
3FC0
3F80
ENDCHAR
STARTCHAR 0182
ENCODING 386
SWIDTH 600 0
DWIDTH 10 0
BBX 10 12 1 0
BITMAP
1FC0
1FC0
1800
3000
3000
3F80
3380
6180
6180
6180
7F00
FE00
ENDCHAR
STARTCHAR 0183
ENCODING 387
SWIDTH 600 0
DWIDTH 10 0
BBX 10 13 1 0
BITMAP
1FC0
1FC0
1800
3800
3E00
3F00
3180
3180
6180
6380
6300
6E00
FC00
ENDCHAR
STARTCHAR 0184
ENCODING 388
SWIDTH 540 0
DWIDTH 9 0
BBX 9 13 1 0
BITMAP
0800
3800
3800
3000
3F00
3F00
3180
3180
6180
6380
6300
6E00
FC00
ENDCHAR
STARTCHAR 0185
ENCODING 389
SWIDTH 600 0
DWIDTH 10 0
BBX 9 11 2 1
BITMAP
7000
7000
7000
6000
7F00
6700
6380
C380
C300
FF00
FC00
ENDCHAR
STARTCHAR 0186
ENCODING 390
SWIDTH 600 0
DWIDTH 10 0
BBX 10 12 1 0
BITMAP
1E00
3F80
0180
01C0
00C0
00C0
01C0
0180
0380
0300
FE00
FC00
ENDCHAR
STARTCHAR 0187
ENCODING 391
SWIDTH 660 0
DWIDTH 11 0
BBX 13 13 2 0
BITMAP
0078
07F0
1FC0
3800
7000
6000
C000
C000
C000
C000
E000
7F00
3F00
ENDCHAR
STARTCHAR 0188
ENCODING 392
SWIDTH 480 0
DWIDTH 8 0
BBX 9 10 2 0
BITMAP
0380
1E00
7E00
E000
C000
C000
C000
C000
F800
7C00
ENDCHAR
STARTCHAR 0189
ENCODING 393
SWIDTH 720 0
DWIDTH 12 0
BBX 11 12 2 0
BITMAP
1E00
3F80
31C0
30E0
7060
F860
F8E0
60C0
E1C0
C380
FF00
FE00
ENDCHAR
STARTCHAR 018A
ENCODING 394
SWIDTH 840 0
DWIDTH 14 0
BBX 13 12 2 0
BITMAP
0F80
7FE0
EC70
DC30
1838
1838
1830
1830
3070
30E0
3FC0
3F00
ENDCHAR
STARTCHAR 018B
ENCODING 395
SWIDTH 600 0
DWIDTH 10 0
BBX 10 12 2 0
BITMAP
3FC0
3FC0
0180
0180
0180
7F80
F300
C300
C300
C700
FE00
7E00
ENDCHAR
STARTCHAR 018C
ENCODING 396
SWIDTH 540 0
DWIDTH 9 0
BBX 9 13 2 0
BITMAP
3F80
3F80
0180
0300
1F00
7F00
6300
C600
C600
C600
C600
FE00
FE00
ENDCHAR
STARTCHAR 018D
ENCODING 397
SWIDTH 540 0
DWIDTH 9 0
BBX 9 12 1 -3
BITMAP
0E00
3F00
7180
6180
6180
6300
6700
3E00
1C00
0C00
DC00
F800
ENDCHAR
STARTCHAR 018E
ENCODING 398
SWIDTH 600 0
DWIDTH 10 0
BBX 10 12 1 0
BITMAP
1FC0
1FC0
0180
0180
0180
3F80
3F00
0300
0300
0300
FF00
FE00
ENDCHAR
STARTCHAR 018F
ENCODING 399
SWIDTH 720 0
DWIDTH 12 0
BBX 10 12 2 0
BITMAP
1F00
3F80
21C0
00C0
00C0
00C0
FFC0
C0C0
C180
C380
FF00
7E00
ENDCHAR
STARTCHAR 0190
ENCODING 400
SWIDTH 540 0
DWIDTH 9 0
BBX 9 12 2 0
BITMAP
0F00
3F80
3000
6000
7000
3E00
7C00
E000
C000
C000
FE00
7E00
ENDCHAR
STARTCHAR 0191
ENCODING 401
SWIDTH 540 0
DWIDTH 9 0
BBX 12 15 -1 -3
BITMAP
07F0
07F0
0600
0C00
0C00
0FC0
0FC0
1800
1800
1800
1800
3800
3000
F000
E000
ENDCHAR
STARTCHAR 0192
ENCODING 402
SWIDTH 420 0
DWIDTH 7 0
BBX 12 16 -2 -3
BITMAP
00F0
03E0
0300
0300
07C0
07C0
0600
0600
0C00
0C00
0C00
0C00
1800
1800
7800
F000
ENDCHAR
STARTCHAR 0193
ENCODING 403
SWIDTH 660 0
DWIDTH 11 0
BBX 13 13 2 0
BITMAP
0038
07F0
1FC0
3840
7000
6000
C000
C180
C180
C180
E180
7F00
3F00
ENDCHAR
STARTCHAR 0194
ENCODING 404
SWIDTH 660 0
DWIDTH 11 0
BBX 11 15 3 -3
BITMAP
C0E0
C0C0
C180
E380
6300
6600
6E00
3C00
3800
3000
7800
D800
9800
F800
F000
ENDCHAR
STARTCHAR 0195
ENCODING 405
SWIDTH 840 0
DWIDTH 14 0
BBX 14 13 1 0
BITMAP
1800
1800
1800
3800
3E0C
3F0C
338C
3318
6318
6318
6318
63F0
C1E0
ENDCHAR
STARTCHAR 0196
ENCODING 406
SWIDTH 360 0
DWIDTH 6 0
BBX 4 12 2 0
BITMAP
30
30
30
60
60
60
60
C0
C0
C0
F0
F0
ENDCHAR
STARTCHAR 0197
ENCODING 407
SWIDTH 360 0
DWIDTH 6 0
BBX 5 12 2 0
BITMAP
18
30
30
30
30
F8
F8
60
60
C0
C0
C0
ENDCHAR
STARTCHAR 0198
ENCODING 408
SWIDTH 660 0
DWIDTH 11 0
BBX 12 12 1 0
BITMAP
1870
18F0
1980
3300
3600
3C00
3C00
6E00
6700
6300
6180
E180
ENDCHAR
STARTCHAR 0199
ENCODING 409
SWIDTH 540 0
DWIDTH 9 0
BBX 9 13 1 0
BITMAP
0E00
1E00
1800
3000
3180
3300
3600
3C00
7800
6C00
6E00
6600
C300
ENDCHAR
STARTCHAR 019A
ENCODING 410
SWIDTH 360 0
DWIDTH 6 0
BBX 5 13 2 0
BITMAP
18
30
30
30
30
60
F8
60
60
C0
C0
F0
60
ENDCHAR
STARTCHAR 019B
ENCODING 411
SWIDTH 480 0
DWIDTH 8 0
BBX 8 13 1 0
BITMAP
38
3D
0F
3C
0E
0E
1E
36
36
66
66
C6
C6
ENDCHAR
STARTCHAR 019C
ENCODING 412
SWIDTH 960 0
DWIDTH 16 0
BBX 15 12 2 0
BITMAP
30C6
31C6
3186
6186
618C
638C
630C
C30C
C31C
C318
FFF8
7DF8
ENDCHAR
STARTCHAR 019D
ENCODING 413
SWIDTH 720 0
DWIDTH 12 0
BBX 14 15 -1 -3
BITMAP
060C
060C
070C
0F0C
0D98
0D98
0CD8
18D8
1870
1870
1870
3030
3000
F000
E000
ENDCHAR
STARTCHAR 019E
ENCODING 414
SWIDTH 540 0
DWIDTH 9 0
BBX 9 12 1 -3
BITMAP
1E00
3F00
3380
3180
6300
6300
6300
6300
C600
0600
0600
0600
ENDCHAR
STARTCHAR 019F
ENCODING 415
SWIDTH 720 0
DWIDTH 12 0
BBX 11 12 2 0
BITMAP
0700
1FC0
38E0
7060
6060
FFE0
FFE0
C0E0
C0C0
E1C0
7F80
3E00
ENDCHAR
STARTCHAR 01A0
ENCODING 416
SWIDTH 720 0
DWIDTH 12 0
BBX 12 13 2 0
BITMAP
0010
0730
1FE0
38E0
7060
6060
C060
C060
C0E0
C0C0
E1C0
7F80
3E00
ENDCHAR
STARTCHAR 01A1
ENCODING 417
SWIDTH 540 0
DWIDTH 9 0
BBX 10 11 2 0
BITMAP
00C0
0080
1D80
7F00
6300
C300
C300
C600
C600
FC00
7800
ENDCHAR
STARTCHAR 01A2
ENCODING 418
SWIDTH 1020 0
DWIDTH 17 0
BBX 16 12 2 0
BITMAP
0F1C
1FFE
38C7
60E7
6066
C066
C0E6
C0C6
C0CC
E18C
7F0C
3E0C
ENDCHAR
STARTCHAR 01A3
ENCODING 419
SWIDTH 840 0
DWIDTH 14 0
BBX 12 12 2 -3
BITMAP
1DE0
7FF0
6730
C330
C360
C660
C660
FC60
78C0
00C0
00C0
00C0
ENDCHAR
STARTCHAR 01A4
ENCODING 420
SWIDTH 720 0
DWIDTH 12 0
BBX 12 12 2 0
BITMAP
0F80
7FE0
EC60
DC70
1860
1860
1FC0
1F80
3000
3000
3000
3000
ENDCHAR
STARTCHAR 01A5
ENCODING 421
SWIDTH 540 0
DWIDTH 9 0
BBX 9 16 1 -3
BITMAP
0E00
1E00
1800
1800
3E00
3F00
3180
3180
6180
6300
6300
7E00
FC00
C000
C000
C000
ENDCHAR
STARTCHAR 01A6
ENCODING 422
SWIDTH 600 0
DWIDTH 10 0
BBX 10 15 1 -2
BITMAP
1800
1F00
1FC0
18C0
30C0
30C0
31C0
3F80
7E00
6300
6300
6180
E180
01C0
00C0
ENDCHAR
STARTCHAR 01A7
ENCODING 423
SWIDTH 540 0
DWIDTH 9 0
BBX 9 12 1 0
BITMAP
0F00
1F80
0180
0180
0380
0F00
3C00
7000
E000
C000
FF00
7F00
ENDCHAR
STARTCHAR 01A8
ENCODING 424
SWIDTH 480 0
DWIDTH 8 0
BBX 7 9 1 0
BITMAP
3C
3E
06
0E
3C
70
C0
EC
7C
ENDCHAR
STARTCHAR 01A9
ENCODING 425
SWIDTH 540 0
DWIDTH 9 0
BBX 10 12 1 0
BITMAP
1FC0
3FC0
1800
1800
0C00
0C00
0E00
1C00
3000
6000
FF00
FF00
ENDCHAR
STARTCHAR 01AA
ENCODING 426
SWIDTH 300 0
DWIDTH 5 0
BBX 5 16 1 -3
BITMAP
78
F8
98
98
F8
18
30
30
30
30
70
60
60
60
70
30
ENDCHAR
STARTCHAR 01AB
ENCODING 427
SWIDTH 420 0
DWIDTH 7 0
BBX 6 14 2 -3
BITMAP
30
60
7C
7C
60
C0
C0
C0
C0
F8
F0
10
30
E0
ENDCHAR
STARTCHAR 01AC
ENCODING 428
SWIDTH 600 0
DWIDTH 10 0
BBX 11 12 2 0
BITMAP
0FE0
7FC0
E600
CE00
0C00
0C00
0C00
1C00
1800
1800
1800
3800
ENDCHAR
STARTCHAR 01AD
ENCODING 429
SWIDTH 420 0
DWIDTH 7 0
BBX 7 13 2 0
BITMAP
1E
3E
30
60
7C
7C
60
C0
C0
C0
C0
F8
F8
ENDCHAR
STARTCHAR 01AE
ENCODING 430
SWIDTH 600 0
DWIDTH 10 0
BBX 9 15 3 -3
BITMAP
FF80
FF80
1800
1800
1800
3000
3000
3000
3000
7000
6000
6000
6000
7000
7000
ENDCHAR
STARTCHAR 01AF
ENCODING 431
SWIDTH 720 0
DWIDTH 12 0
BBX 13 13 2 0
BITMAP
0018
3078
30F0
70C0
60C0
60C0
61C0
6180
C180
C180
C300
FF00
7E00
ENDCHAR
STARTCHAR 01B0
ENCODING 432
SWIDTH 600 0
DWIDTH 10 0
BBX 11 11 2 0
BITMAP
0060
0040
63C0
6300
6300
C600
C600
C600
C600
FE00
FE00
ENDCHAR
STARTCHAR 01B1
ENCODING 433
SWIDTH 780 0
DWIDTH 13 0
BBX 13 12 2 0
BITMAP
7CF8
7CF0
18C0
3060
6060
6060
C060
C060
C0E0
E1C0
7F80
3F00
ENDCHAR
STARTCHAR 01B2
ENCODING 434
SWIDTH 720 0
DWIDTH 12 0
BBX 10 12 2 0
BITMAP
3380
33C0
70C0
60C0
60C0
60C0
60C0
C0C0
C180
C380
FF00
7E00
ENDCHAR
STARTCHAR 01B3
ENCODING 435
SWIDTH 660 0
DWIDTH 11 0
BBX 10 12 3 0
BITMAP
C0C0
C1C0
C340
6600
6C00
7C00
3800
3000
3000
7000
6000
6000
ENDCHAR
STARTCHAR 01B4
ENCODING 436
SWIDTH 540 0
DWIDTH 9 0
BBX 12 12 -1 -3
BITMAP
1870
18F0
18C0
1980
1980
0B00
0F00
0E00
0E00
0C00
7800
F000
ENDCHAR
STARTCHAR 01B5
ENCODING 437
SWIDTH 600 0
DWIDTH 10 0
BBX 11 12 1 0
BITMAP
1FE0
3FC0
01C0
0380
0700
3F80
3F80
1800
3000
6000
FF00
FF00
ENDCHAR
STARTCHAR 01B6
ENCODING 438
SWIDTH 480 0
DWIDTH 8 0
BBX 8 9 1 0
BITMAP
3F
7F
06
0C
7E
30
60
FE
FC
ENDCHAR
STARTCHAR 01B7
ENCODING 439
SWIDTH 540 0
DWIDTH 9 0
BBX 10 12 1 0
BITMAP
3FC0
3FC0
0180
0300
0600
1C00
1F00
0380
0380
0300
FF00
FE00
ENDCHAR
STARTCHAR 01B8
ENCODING 440
SWIDTH 600 0
DWIDTH 10 0
BBX 10 12 2 0
BITMAP
3FC0
3F80
3000
1800
1C00
1C00
7C00
C000
C000
C000
FE00
7E00
ENDCHAR
STARTCHAR 01B9
ENCODING 441
SWIDTH 480 0
DWIDTH 8 0
BBX 9 12 1 -3
BITMAP
3F80
3F00
3000
1800
1800
3C00
F800
C000
C000
C000
FC00
7C00
ENDCHAR
STARTCHAR 01BA
ENCODING 442
SWIDTH 480 0
DWIDTH 8 0
BBX 10 12 -1 -3
BITMAP
1FC0
1F80
0300
0600
0E00
0F00
0300
0300
1F00
7C00
E000
C000
ENDCHAR
STARTCHAR 01BB
ENCODING 443
SWIDTH 540 0
DWIDTH 9 0
BBX 9 12 1 0
BITMAP
0E00
3F00
2380
0180
0300
0700
3F00
1800
3000
6000
FF00
FE00
ENDCHAR
STARTCHAR 01BC
ENCODING 444
SWIDTH 540 0
DWIDTH 9 0
BBX 10 12 1 0
BITMAP
3FC0
3FC0
1800
1800
3000
3E00
0F00
0300
0300
0300
FF00
FC00
ENDCHAR
STARTCHAR 01BD
ENCODING 445
SWIDTH 480 0
DWIDTH 8 0
BBX 8 9 1 0
BITMAP
7F
7F
30
30
7E
06
06
CE
FC
ENDCHAR
STARTCHAR 01BE
ENCODING 446
SWIDTH 480 0
DWIDTH 8 0
BBX 7 11 1 0
BITMAP
30
30
3E
3E
60
70
3C
0C
06
CC
F8
ENDCHAR
STARTCHAR 01BF
ENCODING 447
SWIDTH 600 0
DWIDTH 10 0
BBX 9 12 1 -3
BITMAP
1F00
3F00
3180
3180
6180
6300
6700
6E00
FC00
E000
C000
C000
ENDCHAR
STARTCHAR 01C0
ENCODING 448
SWIDTH 300 0
DWIDTH 5 0
BBX 5 16 1 -3
BITMAP
18
18
18
18
10
30
30
30
20
60
60
60
40
C0
C0
C0
ENDCHAR
STARTCHAR 01C1
ENCODING 449
SWIDTH 540 0
DWIDTH 9 0
BBX 9 16 1 -3
BITMAP
1980
1980
1980
1B00
1300
3300
3300
3600
2600
6600
6600
6400
4C00
CC00
CC00
C800
ENDCHAR
STARTCHAR 01C2
ENCODING 450
SWIDTH 600 0
DWIDTH 10 0
BBX 9 16 2 -3
BITMAP
0600
0600
0C00
0C00
0C00
0C00
FF80
1800
1800
FF00
1000
3000
3000
3000
2000
6000
ENDCHAR
STARTCHAR 01C3
ENCODING 451
SWIDTH 300 0
DWIDTH 5 0
BBX 5 12 1 0
BITMAP
18
18
38
30
30
30
20
20
00
00
E0
E0
ENDCHAR
STARTCHAR 01C4
ENCODING 452
SWIDTH 1260 0
DWIDTH 21 0
BBX 22 16 1 0
BITMAP
000048
000078
000030
000020
0F03FC
1FC3FC
18E018
306030
306060
3060C0
306180
606300
60E600
61CE00
7F9FF0
FE1FF0
ENDCHAR
STARTCHAR 01C5
ENCODING 453
SWIDTH 1140 0
DWIDTH 19 0
BBX 20 13 1 0
BITMAP
000120
0F01E0
1FC0C0
18E000
3067F0
3067F0
3060E0
3061C0
606380
60E700
61C600
7F8FC0
FE1FC0
ENDCHAR
STARTCHAR 01C6
ENCODING 454
SWIDTH 1020 0
DWIDTH 17 0
BBX 17 13 2 0
BITMAP
018980
018700
018600
030000
1F3F80
7F3F00
630600
C60C00
C61800
C63000
C67000
FEFE00
FEFE00
ENDCHAR
STARTCHAR 01C7
ENCODING 455
SWIDTH 1020 0
DWIDTH 17 0
BBX 18 12 1 0
BITMAP
1800C0
1801C0
180180
300180
300180
300380
300300
600300
600300
600700
7F7E00
FF7C00
ENDCHAR
STARTCHAR 01C8
ENCODING 456
SWIDTH 780 0
DWIDTH 13 0
BBX 14 15 1 -2
BITMAP
180C
180C
1800
3018
3018
3018
3030
6030
6030
6030
7F70
FF60
0060
01E0
03C0
ENDCHAR
STARTCHAR 01C9
ENCODING 457
SWIDTH 600 0
DWIDTH 10 0
BBX 9 16 2 -3
BITMAP
3000
3180
3180
6000
6180
6300
6300
C300
C300
C600
C600
E600
E600
0C00
3C00
3800
ENDCHAR
STARTCHAR 01CA
ENCODING 458
SWIDTH 1200 0
DWIDTH 20 0
BBX 21 12 1 0
BITMAP
183018
183030
1C3030
3C3030
366030
366070
336060
636060
61C060
61C0E0
61CFC0
C0CF80
ENDCHAR
STARTCHAR 01CB
ENCODING 459
SWIDTH 1020 0
DWIDTH 17 0
BBX 17 15 1 -2
BITMAP
183180
183180
1C3000
3C3300
366300
366300
336300
636600
61C600
61C600
61C600
C0CC00
000C00
003C00
007800
ENDCHAR
STARTCHAR 01CC
ENCODING 460
SWIDTH 840 0
DWIDTH 14 0
BBX 15 15 1 -2
BITMAP
000E
000C
0000
1E0C
3F0C
3398
3198
6318
6318
6338
6330
C630
0030
01E0
01E0
ENDCHAR
STARTCHAR 01CD
ENCODING 461
SWIDTH 660 0
DWIDTH 11 0
BBX 11 16 0 0
BITMAP
0120
01E0
00C0
0080
0180
0180
03C0
06C0
06C0
0CC0
18C0
18C0
3FE0
3060
6060
E060
ENDCHAR
STARTCHAR 01CE
ENCODING 462
SWIDTH 540 0
DWIDTH 9 0
BBX 8 13 2 0
BITMAP
1B
0E
0C
00
1F
3F
63
C6
C6
C6
C6
FE
FE
ENDCHAR
STARTCHAR 01CF
ENCODING 463
SWIDTH 300 0
DWIDTH 5 0
BBX 7 16 1 0
BITMAP
12
16
0C
00
18
18
18
30
30
30
30
60
60
60
60
E0
ENDCHAR
STARTCHAR 01D0
ENCODING 464
SWIDTH 300 0
DWIDTH 5 0
BBX 6 13 1 0
BITMAP
24
3C
10
00
30
30
30
30
60
60
60
60
C0
ENDCHAR
STARTCHAR 01D1
ENCODING 465
SWIDTH 720 0
DWIDTH 12 0
BBX 11 15 2 1
BITMAP
0680
0300
0000
0700
1FC0
38E0
7060
6060
C060
C060
C0E0
C0C0
E1C0
7F80
3E00
ENDCHAR
STARTCHAR 01D2
ENCODING 466
SWIDTH 540 0
DWIDTH 9 0
BBX 8 13 2 0
BITMAP
1B
0E
0C
00
1C
7E
63
C3
C3
C6
C6
FC
78
ENDCHAR
STARTCHAR 01D3
ENCODING 467
SWIDTH 660 0
DWIDTH 11 0
BBX 11 16 2 0
BITMAP
0480
0780
0300
0200
3060
30C0
70C0
60C0
60C0
61C0
6180
C180
C180
C300
FF00
7E00
ENDCHAR
STARTCHAR 01D4
ENCODING 468
SWIDTH 540 0
DWIDTH 9 0
BBX 8 13 2 0
BITMAP
13
0E
0C
00
63
63
63
C6
C6
C6
C6
FE
FE
ENDCHAR
STARTCHAR 01D5
ENCODING 469
SWIDTH 660 0
DWIDTH 11 0
BBX 11 16 2 0
BITMAP
07C0
0000
0C80
0480
3060
30C0
70C0
60C0
60C0
61C0
6180
C180
C180
C300
FF00
7E00
ENDCHAR
STARTCHAR 01D6
ENCODING 470
SWIDTH 540 0
DWIDTH 9 0
BBX 8 14 2 0
BITMAP
0F
1F
13
13
00
63
63
63
C6
C6
C6
C6
FE
FE
ENDCHAR
STARTCHAR 01D7
ENCODING 471
SWIDTH 660 0
DWIDTH 11 0
BBX 11 16 2 0
BITMAP
0100
0300
0AC0
0880
3060
30C0
70C0
60C0
60C0
61C0
6180
C180
C180
C300
FF00
7E00
ENDCHAR
STARTCHAR 01D8
ENCODING 472
SWIDTH 540 0
DWIDTH 9 0
BBX 8 14 2 1
BITMAP
06
04
13
33
00
63
63
63
C6
C6
C6
C6
FE
FE
ENDCHAR
STARTCHAR 01D9
ENCODING 473
SWIDTH 660 0
DWIDTH 11 0
BBX 11 16 2 0
BITMAP
0480
0300
08C0
0880
3060
30C0
70C0
60C0
60C0
61C0
6180
C180
C180
C300
FF00
7E00
ENDCHAR
STARTCHAR 01DA
ENCODING 474
SWIDTH 540 0
DWIDTH 9 0
BBX 8 14 2 0
BITMAP
0A
0E
13
33
00
63
63
63
C6
C6
C6
C6
FE
FE
ENDCHAR
STARTCHAR 01DB
ENCODING 475
SWIDTH 660 0
DWIDTH 11 0
BBX 11 16 2 0
BITMAP
0200
0200
0AC0
0880
3060
30C0
70C0
60C0
60C0
61C0
6180
C180
C180
C300
FF00
7E00
ENDCHAR
STARTCHAR 01DC
ENCODING 476
SWIDTH 540 0
DWIDTH 9 0
BBX 8 14 2 1
BITMAP
08
0C
13
33
00
63
63
63
C6
C6
C6
C6
FE
FE
ENDCHAR
STARTCHAR 01DD
ENCODING 477
SWIDTH 540 0
DWIDTH 9 0
BBX 8 9 1 0
BITMAP
3E
3F
03
03
3F
63
C6
EE
7C
ENDCHAR
STARTCHAR 01DE
ENCODING 478
SWIDTH 660 0
DWIDTH 11 0
BBX 11 16 0 0
BITMAP
01E0
0000
0360
0220
0180
0180
03C0
06C0
06C0
0CC0
18C0
18C0
3FE0
3060
6060
E060
ENDCHAR
STARTCHAR 01DF
ENCODING 479
SWIDTH 540 0
DWIDTH 9 0
BBX 8 14 2 0
BITMAP
0F
0F
19
1B
00
1F
3F
63
C6
C6
C6
C6
FE
FE
ENDCHAR
STARTCHAR 01E0
ENCODING 480
SWIDTH 660 0
DWIDTH 11 0
BBX 11 16 0 0
BITMAP
01E0
0000
00C0
0080
0180
0180
03C0
06C0
06C0
0CC0
18C0
18C0
3FE0
3060
6060
E060
ENDCHAR
STARTCHAR 01E1
ENCODING 481
SWIDTH 540 0
DWIDTH 9 0
BBX 8 14 2 0
BITMAP
0F
0F
04
04
00
1F
3F
63
C6
C6
C6
C6
FE
FE
ENDCHAR
STARTCHAR 01E2
ENCODING 482
SWIDTH 960 0
DWIDTH 16 0
BBX 18 15 0 0
BITMAP
001F00
001F00
000000
003FC0
007F80
00F000
01B000
033000
067F00
0C7F00
0FE000
1FE000
30C000
60FF00
E0FE00
ENDCHAR
STARTCHAR 01E3
ENCODING 483
SWIDTH 840 0
DWIDTH 14 0
BBX 14 12 1 0
BITMAP
03E0
0000
0000
3C78
3EFC
038C
031C
3FF8
63E0
C700
CFB0
7DF0
ENDCHAR
STARTCHAR 01E4
ENCODING 484
SWIDTH 660 0
DWIDTH 11 0
BBX 10 12 2 0
BITMAP
0780
1FC0
3840
7000
6000
C000
C180
C7C0
C7C0
E180
7F00
3F00
ENDCHAR
STARTCHAR 01E5
ENCODING 485
SWIDTH 600 0
DWIDTH 10 0
BBX 10 12 1 -3
BITMAP
0F80
1F80
3180
6180
67C0
6300
6300
7F00
1600
0600
FC00
F800
ENDCHAR
STARTCHAR 01E6
ENCODING 486
SWIDTH 660 0
DWIDTH 11 0
BBX 10 15 2 1
BITMAP
0680
0300
0000
0780
1FC0
3840
7000
6000
C000
C180
C180
C180
E180
7F00
3F00
ENDCHAR
STARTCHAR 01E7
ENCODING 487
SWIDTH 540 0
DWIDTH 9 0
BBX 9 16 1 -3
BITMAP
0480
0700
0200
0000
0F80
1F80
3180
6180
6300
6300
6300
7F00
1600
0600
FC00
F800
ENDCHAR
STARTCHAR 01E8
ENCODING 488
SWIDTH 660 0
DWIDTH 11 0
BBX 12 16 1 0
BITMAP
0040
02C0
0300
0000
1870
18E0
19C0
3380
3600
3C00
3C00
6E00
6700
6300
6380
E180
ENDCHAR
STARTCHAR 01E9
ENCODING 489
SWIDTH 540 0
DWIDTH 9 0
BBX 9 16 1 0
BITMAP
0900
0E00
0400
0800
1800
1800
3800
3180
3300
3600
3C00
7800
6C00
6E00
6600
C300
ENDCHAR
STARTCHAR 01EA
ENCODING 490
SWIDTH 720 0
DWIDTH 12 0
BBX 11 15 2 -3
BITMAP
0700
1FC0
38E0
7060
6060
C060
C060
C0E0
C0C0
E1C0
7F80
3E00
0800
1000
1C00
ENDCHAR
STARTCHAR 01EB
ENCODING 491
SWIDTH 540 0
DWIDTH 9 0
BBX 8 12 2 -3
BITMAP
1C
7E
63
C3
C3
C6
C6
FC
78
30
60
70
ENDCHAR
STARTCHAR 01EC
ENCODING 492
SWIDTH 720 0
DWIDTH 12 0
BBX 11 18 2 -3
BITMAP
07C0
07C0
0000
0700
1FC0
38E0
7060
6060
C060
C060
C0E0
C0C0
E1C0
7F80
3E00
0800
1000
1C00
ENDCHAR
STARTCHAR 01ED
ENCODING 493
SWIDTH 540 0
DWIDTH 9 0
BBX 8 15 2 -3
BITMAP
1F
00
00
1C
7E
63
C3
C3
C6
C6
FC
78
30
60
70
ENDCHAR
STARTCHAR 01EE
ENCODING 494
SWIDTH 540 0
DWIDTH 9 0
BBX 10 16 1 0
BITMAP
0480
0780
0300
0200
3FC0
3FC0
0180
0300
0600
1C00
1F00
0380
0380
0300
FF00
FE00
ENDCHAR
STARTCHAR 01EF
ENCODING 495
SWIDTH 420 0
DWIDTH 7 0
BBX 9 16 0 -3
BITMAP
0900
0F00
0600
0000
3F80
3F80
0700
0E00
1C00
1C00
0E00
0600
0600
0600
FC00
F800
ENDCHAR
STARTCHAR 01F0
ENCODING 496
SWIDTH 300 0
DWIDTH 5 0
BBX 9 16 -2 -3
BITMAP
0480
0780
0200
0000
0600
0600
0600
0600
0C00
0C00
0C00
0C00
1800
1800
7800
F000
ENDCHAR
STARTCHAR 01F1
ENCODING 497
SWIDTH 1260 0
DWIDTH 21 0
BBX 22 12 1 0
BITMAP
0F03FC
1FC3FC
18E018
306030
306060
3060C0
306180
606300
60E600
61CE00
7F9FF0
FE1FF0
ENDCHAR
STARTCHAR 01F2
ENCODING 498
SWIDTH 1140 0
DWIDTH 19 0
BBX 20 12 1 0
BITMAP
0F0000
1FC000
18E000
3067F0
3067F0
3060E0
3061C0
606380
60E700
61C600
7F8FC0
FE1FC0
ENDCHAR
STARTCHAR 01F3
ENCODING 499
SWIDTH 1020 0
DWIDTH 17 0
BBX 17 13 2 0
BITMAP
018000
018000
018000
030000
1F3F80
7F3F00
630600
C60C00
C61800
C63000
C67000
FEFE00
FEFE00
ENDCHAR
STARTCHAR 01F4
ENCODING 500
SWIDTH 660 0
DWIDTH 11 0
BBX 10 16 2 0
BITMAP
0080
01C0
0300
0200
0780
1FC0
3840
7000
6000
C000
C180
C180
C180
E180
7F00
3F00
ENDCHAR
STARTCHAR 01F5
ENCODING 501
SWIDTH 540 0
DWIDTH 9 0
BBX 9 16 1 -3
BITMAP
0100
0300
0600
0000
0F80
1F80
3180
6180
6300
6300
6300
7F00
1600
0600
FC00
F800
ENDCHAR
STARTCHAR 01F6
ENCODING 502
SWIDTH 1020 0
DWIDTH 17 0
BBX 17 12 1 0
BITMAP
183000
183000
186000
306180
306180
3FE300
3FE300
60C300
60C300
60C600
60FE00
E07C00
ENDCHAR
STARTCHAR 01F7
ENCODING 503
SWIDTH 660 0
DWIDTH 11 0
BBX 11 15 1 -3
BITMAP
0700
1FC0
18E0
3060
3060
30E0
30C0
61C0
6380
6F00
7C00
F000
C000
C000
C000
ENDCHAR
STARTCHAR 01F8
ENCODING 504
SWIDTH 720 0
DWIDTH 12 0
BBX 12 15 1 1
BITMAP
0300
0180
0080
1830
1830
1C30
3C30
3660
3660
3360
6360
61C0
61C0
61C0
C0C0
ENDCHAR
STARTCHAR 01F9
ENCODING 505
SWIDTH 540 0
DWIDTH 9 0
BBX 9 13 1 0
BITMAP
0C00
0E00
0300
0000
1E00
3F00
3380
3180
6300
6300
6300
6300
C600
ENDCHAR
STARTCHAR 01FA
ENCODING 506
SWIDTH 660 0
DWIDTH 11 0
BBX 11 16 0 0
BITMAP
0040
0180
0080
0140
0140
0180
03C0
06C0
06C0
0CC0
18C0
18C0
3FE0
3060
6060
E060
ENDCHAR
STARTCHAR 01FB
ENCODING 507
SWIDTH 540 0
DWIDTH 9 0
BBX 8 15 2 1
BITMAP
06
0C
0E
0A
0E
00
1F
3F
63
C6
C6
C6
C6
FE
FE
ENDCHAR
STARTCHAR 01FC
ENCODING 508
SWIDTH 960 0
DWIDTH 16 0
BBX 18 16 0 0
BITMAP
000200
000600
000C00
000000
003FC0
007F80
00F000
01B000
033000
067F00
0C7F00
0FE000
1FE000
30C000
60FF00
E0FE00
ENDCHAR
STARTCHAR 01FD
ENCODING 509
SWIDTH 840 0
DWIDTH 14 0
BBX 14 13 1 0
BITMAP
0060
00E0
0080
0000
3C78
3EFC
038C
031C
3FF8
63E0
C700
CFB0
7DF0
ENDCHAR
STARTCHAR 01FE
ENCODING 510
SWIDTH 720 0
DWIDTH 12 0
BBX 11 16 2 -1
BITMAP
0080
01C0
0300
0000
0720
1FE0
38E0
71E0
6360
E660
CC60
C8E0
D8C0
F1C0
7F80
FF00
ENDCHAR
STARTCHAR 01FF
ENCODING 511
SWIDTH 540 0
DWIDTH 9 0
BBX 9 13 1 -1
BITMAP
0100
0300
0600
0000
0F80
3F00
3380
6580
6D80
7B00
7300
7E00
FC00
ENDCHAR
STARTCHAR 0200
ENCODING 512
SWIDTH 660 0
DWIDTH 11 0
BBX 11 15 0 1
BITMAP
06C0
0240
0000
0180
0180
03C0
06C0
06C0
0CC0
18C0
18C0
3FE0
3060
6060
E060
ENDCHAR
STARTCHAR 0201
ENCODING 513
SWIDTH 540 0
DWIDTH 9 0
BBX 8 13 2 0
BITMAP
24
36
12
00
1F
3F
63
C6
C6
C6
C6
FE
FE
ENDCHAR
STARTCHAR 0202
ENCODING 514
SWIDTH 660 0
DWIDTH 11 0
BBX 11 15 0 0
BITMAP
01C0
0360
0000
0180
0180
03C0
06C0
06C0
0CC0
18C0
18C0
3FE0
3060
6060
E060
ENDCHAR
STARTCHAR 0203
ENCODING 515
SWIDTH 540 0
DWIDTH 9 0
BBX 8 13 2 0
BITMAP
04
1F
13
00
1F
3F
63
C6
C6
C6
C6
FE
FE
ENDCHAR
STARTCHAR 0204
ENCODING 516
SWIDTH 600 0
DWIDTH 10 0
BBX 10 16 1 0
BITMAP
0900
0900
0D80
0480
1FC0
1FC0
1800
3000
3000
3F00
3F00
6000
6000
6000
7F00
FF00
ENDCHAR
STARTCHAR 0205
ENCODING 517
SWIDTH 540 0
DWIDTH 9 0
BBX 7 13 2 0
BITMAP
24
24
36
00
1C
7E
62
C6
FE
F0
C0
EC
7C
ENDCHAR
STARTCHAR 0206
ENCODING 518
SWIDTH 600 0
DWIDTH 10 0
BBX 10 15 1 0
BITMAP
0380
0480
0000
1FC0
1FC0
1800
3000
3000
3F00
3F00
6000
6000
6000
7F00
FF00
ENDCHAR
STARTCHAR 0207
ENCODING 519
SWIDTH 540 0
DWIDTH 9 0
BBX 7 13 2 0
BITMAP
04
1E
12
00
1C
7E
62
C6
FE
F0
C0
EC
7C
ENDCHAR
STARTCHAR 0208
ENCODING 520
SWIDTH 300 0
DWIDTH 5 0
BBX 6 15 1 1
BITMAP
6C
24
00
18
18
18
30
30
30
30
60
60
60
60
E0
ENDCHAR
STARTCHAR 0209
ENCODING 521
SWIDTH 300 0
DWIDTH 5 0
BBX 6 13 1 0
BITMAP
90
D8
6C
00
30
30
30
30
60
60
60
60
C0
ENDCHAR
STARTCHAR 020A
ENCODING 522
SWIDTH 300 0
DWIDTH 5 0
BBX 7 15 1 0
BITMAP
1C
36
00
18
18
18
30
30
30
30
60
60
60
60
E0
ENDCHAR
STARTCHAR 020B
ENCODING 523
SWIDTH 300 0
DWIDTH 5 0
BBX 6 12 1 1
BITMAP
3C
64
00
30
30
30
30
60
60
60
60
C0
ENDCHAR
STARTCHAR 020C
ENCODING 524
SWIDTH 720 0
DWIDTH 12 0
BBX 11 16 2 0
BITMAP
0900
0900
0D80
0480
0700
1FC0
38E0
7060
6060
C060
C060
C0E0
C0C0
E1C0
7F80
3E00
ENDCHAR
STARTCHAR 020D
ENCODING 525
SWIDTH 540 0
DWIDTH 9 0
BBX 8 13 2 0
BITMAP
24
36
12
00
1C
7E
63
C3
C3
C6
C6
FC
78
ENDCHAR
STARTCHAR 020E
ENCODING 526
SWIDTH 720 0
DWIDTH 12 0
BBX 11 15 2 0
BITMAP
0780
0480
0000
0700
1FC0
38E0
7060
6060
C060
C060
C0E0
C0C0
E1C0
7F80
3E00
ENDCHAR
STARTCHAR 020F
ENCODING 527
SWIDTH 540 0
DWIDTH 9 0
BBX 8 13 2 0
BITMAP
04
1E
12
00
1C
7E
63
C3
C3
C6
C6
FC
78
ENDCHAR
STARTCHAR 0210
ENCODING 528
SWIDTH 600 0
DWIDTH 10 0
BBX 10 16 1 0
BITMAP
0800
1B00
0D80
0000
0F00
1FC0
18C0
30C0
30C0
31C0
3F80
7E00
6300
6300
6380
E180
ENDCHAR
STARTCHAR 0211
ENCODING 529
SWIDTH 420 0
DWIDTH 7 0
BBX 7 13 1 0
BITMAP
24
36
12
00
1E
3E
30
30
60
60
60
60
C0
ENDCHAR
STARTCHAR 0212
ENCODING 530
SWIDTH 600 0
DWIDTH 10 0
BBX 10 15 1 0
BITMAP
0780
0480
0000
0F00
1FC0
18C0
30C0
30C0
31C0
3F80
7E00
6300
6300
6380
E180
ENDCHAR
STARTCHAR 0213
ENCODING 531
SWIDTH 420 0
DWIDTH 7 0
BBX 8 13 1 0
BITMAP
04
1E
13
00
1E
3E
30
30
60
60
60
60
C0
ENDCHAR
STARTCHAR 0214
ENCODING 532
SWIDTH 660 0
DWIDTH 11 0
BBX 11 15 2 1
BITMAP
1B00
0D80
0000
3060
30C0
70C0
60C0
60C0
61C0
6180
C180
C180
C300
FF00
7E00
ENDCHAR
STARTCHAR 0215
ENCODING 533
SWIDTH 540 0
DWIDTH 9 0
BBX 8 13 2 0
BITMAP
24
36
12
00
63
63
63
C6
C6
C6
C6
FE
FE
ENDCHAR
STARTCHAR 0216
ENCODING 534
SWIDTH 660 0
DWIDTH 11 0
BBX 11 15 2 0
BITMAP
0780
0C80
0000
3060
30C0
70C0
60C0
60C0
61C0
6180
C180
C180
C300
FF00
7E00
ENDCHAR
STARTCHAR 0217
ENCODING 535
SWIDTH 540 0
DWIDTH 9 0
BBX 8 13 2 0
BITMAP
04
1E
12
00
63
63
63
C6
C6
C6
C6
FE
FE
ENDCHAR
STARTCHAR 0218
ENCODING 536
SWIDTH 540 0
DWIDTH 9 0
BBX 9 15 1 -3
BITMAP
0F00
3F80
3000
3000
3000
3C00
1E00
0700
0300
0300
FE00
FC00
0000
3000
6000
ENDCHAR
STARTCHAR 0219
ENCODING 537
SWIDTH 420 0
DWIDTH 7 0
BBX 7 12 1 -3
BITMAP
1E
3E
60
70
3C
0C
0C
CC
F8
00
20
E0
ENDCHAR
STARTCHAR 021A
ENCODING 538
SWIDTH 600 0
DWIDTH 10 0
BBX 10 15 2 -3
BITMAP
7FC0
7FC0
0C00
0C00
0C00
1800
1800
1800
1800
3800
3000
3000
0000
2000
E000
ENDCHAR
STARTCHAR 021B
ENCODING 539
SWIDTH 420 0
DWIDTH 7 0
BBX 6 14 2 -3
BITMAP
30
60
7C
7C
60
C0
C0
C0
C0
F8
F8
00
60
C0
ENDCHAR
STARTCHAR 021C
ENCODING 540
SWIDTH 600 0
DWIDTH 10 0
BBX 10 15 0 -3
BITMAP
0F00
1FC0
10C0
00C0
00C0
0180
1F00
1F00
0380
0180
0180
0380
0700
FE00
F800
ENDCHAR
STARTCHAR 021D
ENCODING 541
SWIDTH 420 0
DWIDTH 7 0
BBX 8 12 0 -3
BITMAP
3E
3F
03
03
06
1C
0E
06
06
0E
FC
F0
ENDCHAR
STARTCHAR 021E
ENCODING 542
SWIDTH 720 0
DWIDTH 12 0
BBX 12 16 1 0
BITMAP
0200
03C0
0180
0000
1830
1830
1870
3060
3060
3FE0
3FE0
60C0
60C0
60C0
61C0
E180
ENDCHAR
STARTCHAR 021F
ENCODING 543
SWIDTH 540 0
DWIDTH 9 0
BBX 9 16 1 0
BITMAP
0900
0E00
0400
0800
1800
1800
3800
3E00
3F00
3380
3180
6300
6300
6300
6300
C600
ENDCHAR
STARTCHAR 0220
ENCODING 544
SWIDTH 660 0
DWIDTH 11 0
BBX 11 15 1 -3
BITMAP
0F80
1FC0
18E0
3060
3060
30C0
30C0
60C0
60C0
6180
6180
E180
0180
0380
0300
ENDCHAR
STARTCHAR 0221
ENCODING 545
SWIDTH 660 0
DWIDTH 11 0
BBX 10 16 2 -3
BITMAP
0180
0180
0180
0300
1F00
7F00
6300
C600
C600
C600
C600
FF80
FEC0
0CC0
3D80
2780
ENDCHAR
STARTCHAR 0222
ENCODING 546
SWIDTH 660 0
DWIDTH 11 0
BBX 10 12 2 0
BITMAP
38C0
30C0
30C0
30C0
3180
3F00
7F80
C180
C180
C180
FF00
7E00
ENDCHAR
STARTCHAR 0223
ENCODING 547
SWIDTH 600 0
DWIDTH 10 0
BBX 9 13 2 0
BITMAP
3180
3180
3180
2300
3300
3E00
7E00
C300
C300
C300
C600
FE00
7C00
ENDCHAR
STARTCHAR 0224
ENCODING 548
SWIDTH 600 0
DWIDTH 10 0
BBX 11 15 1 -3
BITMAP
1FE0
3FC0
01C0
0380
0700
0E00
1C00
3800
3000
6000
FF00
FF00
0300
0F00
0E00
ENDCHAR
STARTCHAR 0225
ENCODING 549
SWIDTH 480 0
DWIDTH 8 0
BBX 8 12 1 -3
BITMAP
3F
7F
06
0C
18
30
60
FE
FC
0C
0C
38
ENDCHAR
STARTCHAR 0226
ENCODING 550
SWIDTH 660 0
DWIDTH 11 0
BBX 11 15 0 0
BITMAP
00C0
00C0
0000
0180
0180
03C0
06C0
06C0
0CC0
18C0
18C0
3FE0
3060
6060
E060
ENDCHAR
STARTCHAR 0227
ENCODING 551
SWIDTH 540 0
DWIDTH 9 0
BBX 8 12 2 0
BITMAP
0E
04
00
1F
3F
63
C6
C6
C6
C6
FE
FE
ENDCHAR
STARTCHAR 0228
ENCODING 552
SWIDTH 600 0
DWIDTH 10 0
BBX 10 15 1 -3
BITMAP
1FC0
1FC0
1800
3000
3000
3F00
3F00
6000
6000
6000
7F00
FF00
0800
0800
3800
ENDCHAR
STARTCHAR 0229
ENCODING 553
SWIDTH 540 0
DWIDTH 9 0
BBX 7 12 2 -3
BITMAP
1C
7E
62
C6
FE
F0
C0
EC
7C
20
30
70
ENDCHAR
STARTCHAR 022A
ENCODING 554
SWIDTH 720 0
DWIDTH 12 0
BBX 11 16 2 0
BITMAP
03C0
0000
06C0
0480
0700
1FC0
38E0
7060
6060
C060
C060
C0E0
C0C0
E1C0
7F80
3E00
ENDCHAR
STARTCHAR 022B
ENCODING 555
SWIDTH 540 0
DWIDTH 9 0
BBX 8 14 2 0
BITMAP
0F
1F
13
13
00
1C
7E
63
C3
C3
C6
C6
FC
78
ENDCHAR
STARTCHAR 022C
ENCODING 556
SWIDTH 720 0
DWIDTH 12 0
BBX 11 16 2 0
BITMAP
03C0
0000
07C0
0480
0700
1FC0
38E0
7060
6060
C060
C060
C0E0
C0C0
E1C0
7F80
3E00
ENDCHAR
STARTCHAR 022D
ENCODING 557
SWIDTH 540 0
DWIDTH 9 0
BBX 8 14 2 0
BITMAP
0F
1F
09
16
00
1C
7E
63
C3
C3
C6
C6
FC
78
ENDCHAR
STARTCHAR 022E
ENCODING 558
SWIDTH 720 0
DWIDTH 12 0
BBX 11 15 2 0
BITMAP
0300
0300
0000
0700
1FC0
38E0
7060
6060
C060
C060
C0E0
C0C0
E1C0
7F80
3E00
ENDCHAR
STARTCHAR 022F
ENCODING 559
SWIDTH 540 0
DWIDTH 9 0
BBX 8 12 2 0
BITMAP
0C
0C
00
1C
7E
63
C3
C3
C6
C6
FC
78
ENDCHAR
STARTCHAR 0230
ENCODING 560
SWIDTH 720 0
DWIDTH 12 0
BBX 11 16 2 0
BITMAP
03C0
0000
0300
0100
0700
1FC0
38E0
7060
6060
C060
C060
C0E0
C0C0
E1C0
7F80
3E00
ENDCHAR
STARTCHAR 0231
ENCODING 561
SWIDTH 540 0
DWIDTH 9 0
BBX 8 14 2 0
BITMAP
0F
1F
04
0C
00
1C
7E
63
C3
C3
C6
C6
FC
78
ENDCHAR
STARTCHAR 0232
ENCODING 562
SWIDTH 600 0
DWIDTH 10 0
BBX 10 15 3 0
BITMAP
1F00
3E00
0000
C1C0
C380
C300
6600
6E00
7C00
3800
3000
3000
7000
6000
6000
ENDCHAR
STARTCHAR 0233
ENCODING 563
SWIDTH 480 0
DWIDTH 8 0
BBX 11 15 -1 -3
BITMAP
07C0
0000
0000
1860
18C0
18C0
1980
1980
0980
0F00
0E00
0E00
0C00
7800
F000
ENDCHAR
STARTCHAR 0234
ENCODING 564
SWIDTH 420 0
DWIDTH 7 0
BBX 8 16 -1 -3
BITMAP
06
06
06
06
0C
0C
0C
0C
18
18
18
1F
33
73
DE
0C
ENDCHAR
STARTCHAR 0235
ENCODING 565
SWIDTH 720 0
DWIDTH 12 0
BBX 11 12 1 -3
BITMAP
1E00
3F00
3380
3180
6300
6300
6300
63C0
C760
0660
0FE0
13C0
ENDCHAR
STARTCHAR 0236
ENCODING 566
SWIDTH 420 0
DWIDTH 7 0
BBX 9 14 -1 -3
BITMAP
0600
0600
0F80
0F80
0C00
0C00
1800
1800
1800
1F00
1B00
3300
7B00
DE00
ENDCHAR
STARTCHAR 0237
ENCODING 567
SWIDTH 300 0
DWIDTH 5 0
BBX 7 12 -2 -3
BITMAP
06
06
06
06
0C
0C
0C
0C
18
18
78
F0
ENDCHAR
STARTCHAR 0238
ENCODING 568
SWIDTH 840 0
DWIDTH 14 0
BBX 13 13 2 0
BITMAP
0180
0180
0180
0300
1FE0
7FF0
6318
C618
C618
C630
C630
EEE0
7FC0
ENDCHAR
STARTCHAR 0239
ENCODING 569
SWIDTH 840 0
DWIDTH 14 0
BBX 13 12 2 -3
BITMAP
1FE0
7FF0
6338
C618
C618
C630
C630
FFE0
7FC0
0C00
0C00
0C00
ENDCHAR
STARTCHAR 023A
ENCODING 570
SWIDTH 660 0
DWIDTH 11 0
BBX 12 14 0 -2
BITMAP
0010
01A0
01E0
03C0
06C0
06C0
0DC0
19C0
1AC0
3FE0
3460
6C60
E860
1800
ENDCHAR
STARTCHAR 023B
ENCODING 571
SWIDTH 600 0
DWIDTH 10 0
BBX 10 15 2 -2
BITMAP
0040
07C0
1FC0
39C0
7300
6200
C600
C400
CC00
D800
F000
7F00
3F00
6000
4000
ENDCHAR
STARTCHAR 023C
ENCODING 572
SWIDTH 480 0
DWIDTH 8 0
BBX 7 11 2 -1
BITMAP
02
1E
7E
E8
C8
D0
D0
E0
F8
7C
C0
ENDCHAR
STARTCHAR 023D
ENCODING 573
SWIDTH 540 0
DWIDTH 9 0
BBX 7 12 2 0
BITMAP
30
30
30
30
60
FC
F8
60
C0
C0
FE
FE
ENDCHAR
STARTCHAR 023E
ENCODING 574
SWIDTH 660 0
DWIDTH 11 0
BBX 13 12 1 0
BITMAP
3FF8
3FF0
0660
06C0
0780
0F00
0E00
0C00
1C00
3800
5800
9800
ENDCHAR
STARTCHAR 023F
ENCODING 575
SWIDTH 420 0
DWIDTH 7 0
BBX 7 12 1 -3
BITMAP
1E
3E
60
70
3C
0C
0C
DC
F8
60
70
38
ENDCHAR
STARTCHAR 0240
ENCODING 576
SWIDTH 480 0
DWIDTH 8 0
BBX 8 12 1 -3
BITMAP
3F
7F
06
0C
18
30
60
C0
E0
30
1C
1C
ENDCHAR
STARTCHAR 0241
ENCODING 577
SWIDTH 480 0
DWIDTH 8 0
BBX 7 12 2 0
BITMAP
3C
7E
06
06
0E
1C
38
60
60
C0
C0
C0
ENDCHAR
STARTCHAR 0242
ENCODING 578
SWIDTH 420 0
DWIDTH 7 0
BBX 7 9 1 0
BITMAP
7C
7E
06
0C
1C
70
60
60
C0
ENDCHAR
STARTCHAR 0243
ENCODING 579
SWIDTH 660 0
DWIDTH 11 0
BBX 10 12 1 0
BITMAP
0F00
1FC0
18C0
38C0
30C0
3F80
3F80
71C0
F8C0
61C0
7F80
7F00
ENDCHAR
STARTCHAR 0244
ENCODING 580
SWIDTH 720 0
DWIDTH 12 0
BBX 11 12 2 0
BITMAP
3060
3060
30E0
30C0
60C0
FFE0
60C0
6180
E180
E380
7F00
3E00
ENDCHAR
STARTCHAR 0245
ENCODING 581
SWIDTH 660 0
DWIDTH 11 0
BBX 11 12 0 0
BITMAP
0180
0380
03C0
06C0
0EC0
0CC0
18C0
18C0
30C0
70C0
60E0
E060
ENDCHAR
STARTCHAR 0246
ENCODING 582
SWIDTH 600 0
DWIDTH 10 0
BBX 11 15 1 -2
BITMAP
0020
1FE0
1FC0
18C0
3180
3100
3F80
3F80
6400
6C00
6800
7F80
FF00
2000
2000
ENDCHAR
STARTCHAR 0247
ENCODING 583
SWIDTH 540 0
DWIDTH 9 0
BBX 8 11 2 -2
BITMAP
04
1E
7F
6B
DB
FE
F0
A0
E4
7C
40
ENDCHAR
STARTCHAR 0248
ENCODING 584
SWIDTH 480 0
DWIDTH 8 0
BBX 9 12 1 0
BITMAP
0180
0300
0300
0300
0300
1F80
1F80
0600
0600
0C00
FC00
F800
ENDCHAR
STARTCHAR 0249
ENCODING 585
SWIDTH 300 0
DWIDTH 5 0
BBX 7 16 -1 -3
BITMAP
02
06
06
00
06
0C
0C
0C
3E
18
18
18
18
30
F0
E0
ENDCHAR
STARTCHAR 024A
ENCODING 586
SWIDTH 780 0
DWIDTH 13 0
BBX 11 15 2 -3
BITMAP
0780
1FC0
38E0
7060
6060
C060
C060
C0E0
C0C0
E1C0
7FC0
3EC0
0180
01E0
00E0
ENDCHAR
STARTCHAR 024B
ENCODING 587
SWIDTH 540 0
DWIDTH 9 0
BBX 8 12 2 -3
BITMAP
1F
7F
63
C6
C6
C6
C6
FC
FC
0C
0E
0E
ENDCHAR
STARTCHAR 024C
ENCODING 588
SWIDTH 660 0
DWIDTH 11 0
BBX 11 12 1 0
BITMAP
0F00
1FC0
18E0
1860
38E0
30C0
7F80
FF00
3300
6380
6180
6180
ENDCHAR
STARTCHAR 024D
ENCODING 589
SWIDTH 420 0
DWIDTH 7 0
BBX 8 9 1 0
BITMAP
1F
3E
30
30
7C
FC
60
60
60
ENDCHAR
STARTCHAR 024E
ENCODING 590
SWIDTH 600 0
DWIDTH 10 0
BBX 11 12 2 0
BITMAP
60E0
60C0
7180
FFC0
3700
3600
1C00
1800
1800
1800
3800
3000
ENDCHAR
STARTCHAR 024F
ENCODING 591
SWIDTH 540 0
DWIDTH 9 0
BBX 11 12 -1 -3
BITMAP
1860
18C0
18C0
3FE0
3FE0
0D80
0F00
0F00
0E00
0C00
7800
F000
ENDCHAR
STARTCHAR 0292
ENCODING 658
SWIDTH 420 0
DWIDTH 7 0
BBX 9 12 0 -3
BITMAP
3F80
3F80
0700
0E00
1C00
1C00
0E00
0600
0600
0600
FC00
F800
ENDCHAR
STARTCHAR 02BC
ENCODING 700
SWIDTH 300 0
DWIDTH 5 0
BBX 3 3 3 9
BITMAP
60
40
C0
ENDCHAR
STARTCHAR 02C6
ENCODING 710
SWIDTH 360 0
DWIDTH 6 0
BBX 5 3 2 10
BITMAP
20
70
D8
ENDCHAR
STARTCHAR 02C7
ENCODING 711
SWIDTH 360 0
DWIDTH 6 0
BBX 4 3 3 10
BITMAP
90
E0
40
ENDCHAR
STARTCHAR 02C9
ENCODING 713
SWIDTH 360 0
DWIDTH 6 0
BBX 5 1 3 11
BITMAP
F8
ENDCHAR
STARTCHAR 02D8
ENCODING 728
SWIDTH 420 0
DWIDTH 7 0
BBX 4 3 3 10
BITMAP
90
B0
E0
ENDCHAR
STARTCHAR 02D9
ENCODING 729
SWIDTH 480 0
DWIDTH 8 0
BBX 2 2 3 10
BITMAP
C0
C0
ENDCHAR
STARTCHAR 02DA
ENCODING 730
SWIDTH 360 0
DWIDTH 6 0
BBX 4 3 2 10
BITMAP
70
90
70
ENDCHAR
STARTCHAR 02DB
ENCODING 731
SWIDTH 360 0
DWIDTH 6 0
BBX 3 3 1 -3
BITMAP
60
C0
E0
ENDCHAR
STARTCHAR 02DC
ENCODING 732
SWIDTH 360 0
DWIDTH 6 0
BBX 5 2 2 10
BITMAP
F8
B0
ENDCHAR
STARTCHAR 02DD
ENCODING 733
SWIDTH 420 0
DWIDTH 7 0
BBX 6 3 2 10
BITMAP
24
6C
D8
ENDCHAR
STARTCHAR 0311
ENCODING 785
SWIDTH 360 0
DWIDTH 6 0
BBX 5 3 2 10
BITMAP
20
78
C8
ENDCHAR
STARTCHAR 0384
ENCODING 900
SWIDTH 420 0
DWIDTH 7 0
BBX 4 3 3 10
BITMAP
30
60
C0
ENDCHAR
STARTCHAR 0385
ENCODING 901
SWIDTH 480 0
DWIDTH 8 0
BBX 7 3 2 10
BITMAP
08
DE
52
ENDCHAR
STARTCHAR 0386
ENCODING 902
SWIDTH 660 0
DWIDTH 11 0
BBX 11 12 0 0
BITMAP
0980
1980
13C0
16C0
06C0
0CC0
18C0
18C0
3FE0
3060
6060
E060
ENDCHAR
STARTCHAR 0388
ENCODING 904
SWIDTH 660 0
DWIDTH 11 0
BBX 11 12 2 0
BITMAP
4FE0
DFE0
D800
9800
1800
3F80
3F80
3000
3000
7000
7F80
7F80
ENDCHAR
STARTCHAR 0389
ENCODING 905
SWIDTH 780 0
DWIDTH 13 0
BBX 13 12 2 0
BITMAP
4C38
D830
D830
9830
1870
3FE0
3FE0
3060
3060
70C0
60C0
60C0
ENDCHAR
STARTCHAR 038A
ENCODING 906
SWIDTH 360 0
DWIDTH 6 0
BBX 6 12 2 0
BITMAP
4C
D8
D8
98
18
30
30
30
30
70
60
60
ENDCHAR
STARTCHAR 038C
ENCODING 908
SWIDTH 840 0
DWIDTH 14 0
BBX 12 12 2 0
BITMAP
43C0
CFE0
DC70
B830
3030
3030
6030
6030
7060
30E0
3FC0
1F80
ENDCHAR
STARTCHAR 038E
ENCODING 910
SWIDTH 780 0
DWIDTH 13 0
BBX 13 12 2 0
BITMAP
5C18
CC30
CC70
8C60
06C0
0780
0780
0300
0600
0600
0600
0600
ENDCHAR
STARTCHAR 038F
ENCODING 911
SWIDTH 840 0
DWIDTH 14 0
BBX 12 12 2 0
BITMAP
43C0
CFE0
DC70
B830
3030
3030
6030
7070
3060
30C0
F9E0
F9E0
ENDCHAR
STARTCHAR 0390
ENCODING 912
SWIDTH 300 0
DWIDTH 5 0
BBX 7 13 2 0
BITMAP
10
F6
A4
00
60
60
60
60
C0
C0
C0
C0
E0
ENDCHAR
STARTCHAR 0391
ENCODING 913
SWIDTH 660 0
DWIDTH 11 0
BBX 11 12 0 0
BITMAP
0180
0180
03C0
06C0
06C0
0CC0
18C0
18C0
3FE0
3060
6060
E060
ENDCHAR
STARTCHAR 0392
ENCODING 914
SWIDTH 660 0
DWIDTH 11 0
BBX 10 12 1 0
BITMAP
0F00
1FC0
18C0
30C0
30C0
3F80
3F80
61C0
60C0
6180
7F80
FE00
ENDCHAR
STARTCHAR 0393
ENCODING 915
SWIDTH 480 0
DWIDTH 8 0
BBX 10 12 1 0
BITMAP
1FC0
1FC0
1800
3000
3000
3000
3000
6000
6000
6000
6000
E000
ENDCHAR
STARTCHAR 0394
ENCODING 916
SWIDTH 660 0
DWIDTH 11 0
BBX 11 12 0 0
BITMAP
0180
0380
03C0
06C0
06C0
0CC0
18C0
18C0
30C0
30E0
7FE0
FFE0
ENDCHAR
STARTCHAR 0395
ENCODING 917
SWIDTH 600 0
DWIDTH 10 0
BBX 10 12 1 0
BITMAP
1FC0
1FC0
1800
3000
3000
3F00
3F00
6000
6000
6000
7F00
FF00
ENDCHAR
STARTCHAR 0396
ENCODING 918
SWIDTH 600 0
DWIDTH 10 0
BBX 11 12 1 0
BITMAP
1FE0
3FC0
01C0
0380
0700
0E00
1C00
3800
3000
6000
FF00
FF00
ENDCHAR
STARTCHAR 0397
ENCODING 919
SWIDTH 720 0
DWIDTH 12 0
BBX 12 12 1 0
BITMAP
1830
1830
1870
3060
3060
3FE0
3FE0
60C0
60C0
60C0
61C0
E180
ENDCHAR
STARTCHAR 0398
ENCODING 920
SWIDTH 720 0
DWIDTH 12 0
BBX 11 12 2 0
BITMAP
0700
1FC0
38E0
7060
6060
CF60
DF60
C0E0
C0C0
E1C0
7F80
3E00
ENDCHAR
STARTCHAR 0399
ENCODING 921
SWIDTH 300 0
DWIDTH 5 0
BBX 5 12 1 0
BITMAP
18
18
18
30
30
30
30
60
60
60
60
E0
ENDCHAR
STARTCHAR 039A
ENCODING 922
SWIDTH 660 0
DWIDTH 11 0
BBX 12 12 1 0
BITMAP
1870
18E0
19C0
3380
3600
3C00
3C00
6E00
6700
6300
6380
E180
ENDCHAR
STARTCHAR 039B
ENCODING 923
SWIDTH 660 0
DWIDTH 11 0
BBX 11 12 0 0
BITMAP
0180
0380
03C0
06C0
0EC0
0CC0
18C0
18C0
30C0
70C0
60E0
E060
ENDCHAR
STARTCHAR 039C
ENCODING 924
SWIDTH 840 0
DWIDTH 14 0
BBX 14 12 1 0
BITMAP
0C0C
1C1C
1C1C
1C3C
346C
3668
36D8
6798
6798
6318
C018
C030
ENDCHAR
STARTCHAR 039D
ENCODING 925
SWIDTH 720 0
DWIDTH 12 0
BBX 12 12 1 0
BITMAP
1830
1830
1C30
3C30
3660
3660
3360
6360
61C0
61C0
61C0
C0C0
ENDCHAR
STARTCHAR 039E
ENCODING 926
SWIDTH 540 0
DWIDTH 9 0
BBX 10 12 1 0
BITMAP
3FC0
3FC0
0000
0000
0000
3F00
3F00
0000
0000
0000
FF00
FF00
ENDCHAR
STARTCHAR 039F
ENCODING 927
SWIDTH 720 0
DWIDTH 12 0
BBX 11 12 2 0
BITMAP
0700
1FC0
38E0
7060
6060
C060
C060
C0E0
C0C0
E1C0
7F80
3E00
ENDCHAR
STARTCHAR 03A0
ENCODING 928
SWIDTH 660 0
DWIDTH 11 0
BBX 12 12 1 0
BITMAP
1FF0
1FF0
1860
3060
3060
3060
30C0
60C0
60C0
60C0
6180
E180
ENDCHAR
STARTCHAR 03A1
ENCODING 929
SWIDTH 600 0
DWIDTH 10 0
BBX 10 12 1 0
BITMAP
0F00
1FC0
18C0
30C0
30C0
31C0
3F80
7E00
6000
6000
6000
E000
ENDCHAR
STARTCHAR 03A3
ENCODING 931
SWIDTH 540 0
DWIDTH 9 0
BBX 10 12 1 0
BITMAP
1FC0
3FC0
1800
1800
0C00
0C00
0E00
1C00
3000
6000
FF00
FF00
ENDCHAR
STARTCHAR 03A4
ENCODING 932
SWIDTH 600 0
DWIDTH 10 0
BBX 9 12 3 0
BITMAP
FF80
FF80
1800
1800
1800
3000
3000
3000
3000
7000
6000
6000
ENDCHAR
STARTCHAR 03A5
ENCODING 933
SWIDTH 600 0
DWIDTH 10 0
BBX 10 12 3 0
BITMAP
C1C0
C380
C300
6600
6E00
7C00
3800
3000
3000
7000
6000
6000
ENDCHAR
STARTCHAR 03A6
ENCODING 934
SWIDTH 840 0
DWIDTH 14 0
BBX 13 12 2 0
BITMAP
0180
0FC0
3FF0
7330
E338
C638
C630
C630
E6E0
7FC0
1E00
0C00
ENDCHAR
STARTCHAR 03A7
ENCODING 935
SWIDTH 600 0
DWIDTH 10 0
BBX 11 12 1 0
BITMAP
3060
18E0
18C0
1D80
0F00
0E00
0E00
1F00
3B00
7300
E180
C180
ENDCHAR
STARTCHAR 03A8
ENCODING 936
SWIDTH 780 0
DWIDTH 13 0
BBX 12 12 3 0
BITMAP
6630
6630
C630
C660
CC60
CC60
CCC0
FFC0
7F00
1800
1800
1800
ENDCHAR
STARTCHAR 03A9
ENCODING 937
SWIDTH 780 0
DWIDTH 13 0
BBX 12 12 1 0
BITMAP
03C0
0FE0
1C70
3030
3030
7030
6030
6070
3060
30C0
F9E0
F3E0
ENDCHAR
STARTCHAR 03AA
ENCODING 938
SWIDTH 300 0
DWIDTH 5 0
BBX 7 15 1 0
BITMAP
32
36
00
18
18
18
30
30
30
30
60
60
60
60
E0
ENDCHAR
STARTCHAR 03AB
ENCODING 939
SWIDTH 600 0
DWIDTH 10 0
BBX 10 15 3 0
BITMAP
3300
3300
0000
C1C0
C380
C300
6600
6E00
7C00
3800
3000
3000
7000
6000
6000
ENDCHAR
STARTCHAR 03AC
ENCODING 940
SWIDTH 540 0
DWIDTH 9 0
BBX 8 13 2 0
BITMAP
03
06
0C
00
1F
7F
63
C6
C6
C6
C6
FF
FE
ENDCHAR
STARTCHAR 03AD
ENCODING 941
SWIDTH 480 0
DWIDTH 8 0
BBX 8 13 1 0
BITMAP
03
06
0C
00
1F
3E
60
60
3C
60
C0
E6
7E
ENDCHAR
STARTCHAR 03AE
ENCODING 942
SWIDTH 540 0
DWIDTH 9 0
BBX 9 16 1 -3
BITMAP
0100
0300
0600
0000
1E00
3F00
3380
3180
6300
6300
6300
6300
C600
0600
0600
0600
ENDCHAR
STARTCHAR 03AF
ENCODING 943
SWIDTH 300 0
DWIDTH 5 0
BBX 5 13 2 0
BITMAP
18
30
60
00
60
60
60
60
C0
C0
C0
C0
E0
ENDCHAR
STARTCHAR 03B0
ENCODING 944
SWIDTH 540 0
DWIDTH 9 0
BBX 9 13 2 0
BITMAP
0600
3580
2900
0000
6300
6300
6300
C600
C600
C600
C600
FC00
7800
ENDCHAR
STARTCHAR 03B1
ENCODING 945
SWIDTH 540 0
DWIDTH 9 0
BBX 8 9 2 0
BITMAP
1F
7F
63
C6
C6
C6
C6
FF
FE
ENDCHAR
STARTCHAR 03B2
ENCODING 946
SWIDTH 600 0
DWIDTH 10 0
BBX 10 16 1 -3
BITMAP
0780
1FC0
18C0
38C0
3180
3700
3700
3180
6180
6180
6180
7F00
FE00
C000
C000
C000
ENDCHAR
STARTCHAR 03B3
ENCODING 947
SWIDTH 480 0
DWIDTH 8 0
BBX 8 12 2 -3
BITMAP
C3
C7
C6
C6
4C
6C
78
70
60
60
40
C0
ENDCHAR
STARTCHAR 03B4
ENCODING 948
SWIDTH 540 0
DWIDTH 9 0
BBX 8 13 2 0
BITMAP
0F
3F
30
30
18
3E
66
C7
C3
C7
C6
FE
78
ENDCHAR
STARTCHAR 03B5
ENCODING 949
SWIDTH 480 0
DWIDTH 8 0
BBX 8 9 1 0
BITMAP
1F
3E
60
60
3C
60
C0
E6
7E
ENDCHAR
STARTCHAR 03B6
ENCODING 950
SWIDTH 420 0
DWIDTH 7 0
BBX 8 16 2 -3
BITMAP
3F
3F
06
0C
38
30
60
C0
C0
C0
C0
F0
7C
0C
0C
18
ENDCHAR
STARTCHAR 03B7
ENCODING 951
SWIDTH 540 0
DWIDTH 9 0
BBX 9 12 1 -3
BITMAP
1E00
3F00
3380
3180
6300
6300
6300
6300
C600
0600
0600
0600
ENDCHAR
STARTCHAR 03B8
ENCODING 952
SWIDTH 600 0
DWIDTH 10 0
BBX 8 13 2 0
BITMAP
0E
3F
33
61
61
C1
FF
C3
C3
C6
C6
FC
78
ENDCHAR
STARTCHAR 03B9
ENCODING 953
SWIDTH 300 0
DWIDTH 5 0
BBX 3 9 2 0
BITMAP
60
60
60
60
C0
C0
C0
C0
E0
ENDCHAR
STARTCHAR 03BA
ENCODING 954
SWIDTH 540 0
DWIDTH 9 0
BBX 10 9 1 0
BITMAP
31C0
3380
3600
3C00
7800
6C00
6E00
6600
C300
ENDCHAR
STARTCHAR 03BB
ENCODING 955
SWIDTH 540 0
DWIDTH 9 0
BBX 7 13 1 0
BITMAP
38
3C
0C
0C
0E
0E
1E
36
36
66
66
C6
C6
ENDCHAR
STARTCHAR 03BC
ENCODING 956
SWIDTH 600 0
DWIDTH 10 0
BBX 9 12 1 -3
BITMAP
3180
3180
3180
7180
6300
6300
6300
7780
FF80
C000
C000
C000
ENDCHAR
STARTCHAR 03BD
ENCODING 957
SWIDTH 540 0
DWIDTH 9 0
BBX 8 9 2 0
BITMAP
C3
C3
C6
C6
CC
5C
78
70
60
ENDCHAR
STARTCHAR 03BE
ENCODING 958
SWIDTH 480 0
DWIDTH 8 0
BBX 8 16 2 -3
BITMAP
0F
3F
30
30
30
3C
3C
E0
C0
C0
C0
F0
78
0C
18
18
ENDCHAR
STARTCHAR 03BF
ENCODING 959
SWIDTH 540 0
DWIDTH 9 0
BBX 8 9 2 0
BITMAP
1C
7E
63
C3
C3
C6
C6
FC
78
ENDCHAR
STARTCHAR 03C0
ENCODING 960
SWIDTH 600 0
DWIDTH 10 0
BBX 9 9 1 0
BITMAP
3F80
3F80
3180
3180
6300
6300
6300
6300
C600
ENDCHAR
STARTCHAR 03C1
ENCODING 961
SWIDTH 540 0
DWIDTH 9 0
BBX 10 12 0 -3
BITMAP
0700
1F80
18C0
30C0
30C0
3180
3180
7F80
7E00
6000
6000
C000
ENDCHAR
STARTCHAR 03C2
ENCODING 962
SWIDTH 420 0
DWIDTH 7 0
BBX 7 12 2 -3
BITMAP
1E
7E
E0
C0
C0
C0
C0
F0
78
18
18
10
ENDCHAR
STARTCHAR 03C3
ENCODING 963
SWIDTH 600 0
DWIDTH 10 0
BBX 9 9 2 0
BITMAP
1F80
7F80
6600
C300
C300
C600
C600
FC00
7800
ENDCHAR
STARTCHAR 03C4
ENCODING 964
SWIDTH 480 0
DWIDTH 8 0
BBX 7 9 2 0
BITMAP
FE
FE
30
30
30
60
60
78
38
ENDCHAR
STARTCHAR 03C5
ENCODING 965
SWIDTH 540 0
DWIDTH 9 0
BBX 8 9 2 0
BITMAP
63
63
63
C6
C6
C6
C6
FC
78
ENDCHAR
STARTCHAR 03C6
ENCODING 966
SWIDTH 780 0
DWIDTH 13 0
BBX 11 12 2 -3
BITMAP
1F80
7FC0
E6E0
C460
CC60
CC60
CCC0
EF80
7F00
1800
1800
1800
ENDCHAR
STARTCHAR 03C7
ENCODING 967
SWIDTH 480 0
DWIDTH 8 0
BBX 9 9 1 0
BITMAP
6180
3300
3600
1C00
1800
3C00
7C00
E600
C600
ENDCHAR
STARTCHAR 03C8
ENCODING 968
SWIDTH 780 0
DWIDTH 13 0
BBX 12 12 2 -3
BITMAP
6630
6660
6660
C660
CC60
CCC0
CCC0
FF80
7F00
1800
1800
1800
ENDCHAR
STARTCHAR 03C9
ENCODING 969
SWIDTH 840 0
DWIDTH 14 0
BBX 12 9 2 0
BITMAP
2020
7030
6630
C630
C630
C630
CE60
FFE0
7BC0
ENDCHAR
STARTCHAR 03CA
ENCODING 970
SWIDTH 300 0
DWIDTH 5 0
BBX 6 12 2 0
BITMAP
CC
C8
00
60
60
60
60
C0
C0
C0
C0
E0
ENDCHAR
STARTCHAR 03CB
ENCODING 971
SWIDTH 540 0
DWIDTH 9 0
BBX 8 12 2 0
BITMAP
1B
13
00
63
63
63
C6
C6
C6
C6
FC
78
ENDCHAR
STARTCHAR 03CC
ENCODING 972
SWIDTH 540 0
DWIDTH 9 0
BBX 8 13 2 0
BITMAP
06
0C
0C
00
1C
7E
63
C3
C3
C6
C6
FC
78
ENDCHAR
STARTCHAR 03CD
ENCODING 973
SWIDTH 540 0
DWIDTH 9 0
BBX 8 13 2 0
BITMAP
06
06
0C
00
63
63
63
C6
C6
C6
C6
FC
78
ENDCHAR
STARTCHAR 03CE
ENCODING 974
SWIDTH 840 0
DWIDTH 14 0
BBX 12 13 2 0
BITMAP
0080
0180
0300
0000
2020
7030
6630
C630
C630
C630
CE60
FFE0
7BC0
ENDCHAR
STARTCHAR 0400
ENCODING 1024
SWIDTH 600 0
DWIDTH 10 0
BBX 10 15 1 1
BITMAP
0600
0300
0100
1FC0
1FC0
1800
3000
3000
3F00
3F00
6000
6000
6000
7F00
FF00
ENDCHAR
STARTCHAR 0401
ENCODING 1025
SWIDTH 600 0
DWIDTH 10 0
BBX 10 15 1 0
BITMAP
04C0
0CC0
0000
1FC0
1FC0
1800
3000
3000
3F00
3F00
6000
6000
6000
7F00
FF00
ENDCHAR
STARTCHAR 0402
ENCODING 1026
SWIDTH 780 0
DWIDTH 13 0
BBX 10 12 3 0
BITMAP
FF80
FF80
1800
1800
3000
3F80
3BC0
30C0
60C0
61C0
6780
6700
ENDCHAR
STARTCHAR 0403
ENCODING 1027
SWIDTH 480 0
DWIDTH 8 0
BBX 10 16 1 0
BITMAP
0080
01C0
0300
0200
1FC0
1FC0
1800
3000
3000
3000
3000
6000
6000
6000
6000
E000
ENDCHAR
STARTCHAR 0404
ENCODING 1028
SWIDTH 600 0
DWIDTH 10 0
BBX 10 12 2 0
BITMAP
0780
1FC0
3800
6000
6000
FE00
FE00
C000
C000
E000
7F00
3F00
ENDCHAR
STARTCHAR 0405
ENCODING 1029
SWIDTH 540 0
DWIDTH 9 0
BBX 9 12 1 0
BITMAP
0F00
3F80
3000
3000
3000
3C00
1E00
0700
0300
0300
FE00
FC00
ENDCHAR
STARTCHAR 0406
ENCODING 1030
SWIDTH 300 0
DWIDTH 5 0
BBX 5 12 1 0
BITMAP
18
18
18
30
30
30
30
60
60
60
60
E0
ENDCHAR
STARTCHAR 0407
ENCODING 1031
SWIDTH 300 0
DWIDTH 5 0
BBX 7 15 1 0
BITMAP
32
36
00
18
18
18
30
30
30
30
60
60
60
60
E0
ENDCHAR
STARTCHAR 0408
ENCODING 1032
SWIDTH 480 0
DWIDTH 8 0
BBX 9 12 1 0
BITMAP
0180
0300
0300
0300
0300
0700
0600
0600
0600
0C00
FC00
F800
ENDCHAR
STARTCHAR 0409
ENCODING 1033
SWIDTH 1020 0
DWIDTH 17 0
BBX 17 12 0 0
BITMAP
03F800
07F000
063000
063000
063000
0C7F00
0C6380
0C6180
186180
38C380
F0FF00
E0FC00
ENDCHAR
STARTCHAR 040A
ENCODING 1034
SWIDTH 1020 0
DWIDTH 17 0
BBX 16 12 1 0
BITMAP
1830
1830
1860
3060
3060
3FFE
3FEF
60C3
60C3
60C3
61FE
E1FC
ENDCHAR
STARTCHAR 040B
ENCODING 1035
SWIDTH 720 0
DWIDTH 12 0
BBX 9 12 3 0
BITMAP
FF80
FF80
1800
1800
3000
3F80
3B80
3180
6180
6180
6180
6380
ENDCHAR
STARTCHAR 040C
ENCODING 1036
SWIDTH 660 0
DWIDTH 11 0
BBX 12 15 1 1
BITMAP
00C0
0380
0000
1870
18E0
19C0
3380
3600
3C00
3C00
6E00
6700
6300
6380
E180
ENDCHAR
STARTCHAR 040D
ENCODING 1037
SWIDTH 720 0
DWIDTH 12 0
BBX 12 15 1 1
BITMAP
0300
0180
0080
1810
1870
18F0
31F0
31E0
3360
3660
6C60
78C0
70C0
60C0
E0C0
ENDCHAR
STARTCHAR 040E
ENCODING 1038
SWIDTH 600 0
DWIDTH 10 0
BBX 11 15 1 0
BITMAP
0CC0
0780
0000
3060
30E0
30C0
3180
1980
1B00
1B00
1E00
0C00
1C00
F800
F000
ENDCHAR
STARTCHAR 040F
ENCODING 1039
SWIDTH 660 0
DWIDTH 11 0
BBX 12 15 1 -3
BITMAP
1830
1830
1860
3060
3060
3060
30C0
60C0
60C0
60C0
7F80
FF80
0C00
1800
1800
ENDCHAR
STARTCHAR 0410
ENCODING 1040
SWIDTH 660 0
DWIDTH 11 0
BBX 11 12 0 0
BITMAP
0180
0180
03C0
06C0
06C0
0CC0
18C0
18C0
3FE0
3060
6060
E060
ENDCHAR
STARTCHAR 0411
ENCODING 1041
SWIDTH 600 0
DWIDTH 10 0
BBX 10 12 1 0
BITMAP
1FC0
1FC0
1800
3000
3000
3F80
3380
6180
6180
6180
7F00
FE00
ENDCHAR
STARTCHAR 0412
ENCODING 1042
SWIDTH 660 0
DWIDTH 11 0
BBX 10 12 1 0
BITMAP
0F00
1FC0
18C0
30C0
30C0
3F80
3F80
61C0
60C0
6180
7F80
FE00
ENDCHAR
STARTCHAR 0413
ENCODING 1043
SWIDTH 480 0
DWIDTH 8 0
BBX 10 12 1 0
BITMAP
1FC0
1FC0
1800
3000
3000
3000
3000
6000
6000
6000
6000
E000
ENDCHAR
STARTCHAR 0414
ENCODING 1044
SWIDTH 720 0
DWIDTH 12 0
BBX 14 15 -1 -3
BITMAP
01FC
01FC
019C
0318
0318
0318
0638
0630
0E30
0C30
7FF8
7FF8
6018
6018
C030
ENDCHAR
STARTCHAR 0415
ENCODING 1045
SWIDTH 600 0
DWIDTH 10 0
BBX 10 12 1 0
BITMAP
1FC0
1FC0
1800
3000
3000
3F00
3F00
6000
6000
6000
7F00
FF00
ENDCHAR
STARTCHAR 0416
ENCODING 1046
SWIDTH 900 0
DWIDTH 15 0
BBX 18 12 0 0
BITMAP
1861C0
0C6380
0C6700
06CC00
07D800
03F000
07F000
0FB800
1D9800
398C00
718C00
E38E00
ENDCHAR
STARTCHAR 0417
ENCODING 1047
SWIDTH 540 0
DWIDTH 9 0
BBX 9 12 1 0
BITMAP
0F00
3F80
0180
0180
0380
1F00
1F00
0300
0300
0300
FF00
FE00
ENDCHAR
STARTCHAR 0418
ENCODING 1048
SWIDTH 720 0
DWIDTH 12 0
BBX 12 12 1 0
BITMAP
1810
1870
18F0
31F0
31E0
3360
3660
6C60
78C0
70C0
60C0
E0C0
ENDCHAR
STARTCHAR 0419
ENCODING 1049
SWIDTH 720 0
DWIDTH 12 0
BBX 12 15 1 0
BITMAP
0260
03C0
0000
1810
1870
18F0
31F0
31E0
3360
3660
6C60
78C0
70C0
60C0
E0C0
ENDCHAR
STARTCHAR 041A
ENCODING 1050
SWIDTH 660 0
DWIDTH 11 0
BBX 12 12 1 0
BITMAP
1870
18E0
19C0
3380
3600
3C00
3C00
6E00
6700
6300
6380
E180
ENDCHAR
STARTCHAR 041B
ENCODING 1051
SWIDTH 660 0
DWIDTH 11 0
BBX 13 12 0 0
BITMAP
03F8
07F0
0630
0630
0630
0C60
0C60
0C60
1860
38E0
F0C0
E0C0
ENDCHAR
STARTCHAR 041C
ENCODING 1052
SWIDTH 840 0
DWIDTH 14 0
BBX 14 12 1 0
BITMAP
0C0C
1C1C
1C1C
1C3C
346C
3668
36D8
6798
6798
6318
C018
C030
ENDCHAR
STARTCHAR 041D
ENCODING 1053
SWIDTH 720 0
DWIDTH 12 0
BBX 12 12 1 0
BITMAP
1830
1830
1870
3060
3060
3FE0
3FE0
60C0
60C0
60C0
61C0
E180
ENDCHAR
STARTCHAR 041E
ENCODING 1054
SWIDTH 720 0
DWIDTH 12 0
BBX 11 12 2 0
BITMAP
0700
1FC0
38E0
7060
6060
C060
C060
C0E0
C0C0
E1C0
7F80
3E00
ENDCHAR
STARTCHAR 041F
ENCODING 1055
SWIDTH 660 0
DWIDTH 11 0
BBX 12 12 1 0
BITMAP
1FF0
1FF0
1860
3060
3060
3060
30C0
60C0
60C0
60C0
6180
E180
ENDCHAR
STARTCHAR 0420
ENCODING 1056
SWIDTH 600 0
DWIDTH 10 0
BBX 10 12 1 0
BITMAP
0F00
1FC0
18C0
30C0
30C0
31C0
3F80
7E00
6000
6000
6000
E000
ENDCHAR
STARTCHAR 0421
ENCODING 1057
SWIDTH 600 0
DWIDTH 10 0
BBX 10 12 2 0
BITMAP
0780
1FC0
3800
7000
6000
C000
C000
C000
C000
E000
7F00
3F00
ENDCHAR
STARTCHAR 0422
ENCODING 1058
SWIDTH 600 0
DWIDTH 10 0
BBX 9 12 3 0
BITMAP
FF80
FF80
1800
1800
1800
3000
3000
3000
3000
7000
6000
6000
ENDCHAR
STARTCHAR 0423
ENCODING 1059
SWIDTH 600 0
DWIDTH 10 0
BBX 11 12 1 0
BITMAP
3060
30E0
30C0
3180
1980
1B00
1B00
1E00
0C00
1C00
F800
F000
ENDCHAR
STARTCHAR 0424
ENCODING 1060
SWIDTH 840 0
DWIDTH 14 0
BBX 13 12 2 0
BITMAP
0180
0FC0
3FF0
7330
E338
C638
C630
C630
E6E0
7FC0
1E00
0C00
ENDCHAR
STARTCHAR 0425
ENCODING 1061
SWIDTH 600 0
DWIDTH 10 0
BBX 11 12 1 0
BITMAP
3060
18E0
18C0
1D80
0F00
0E00
0E00
1F00
3B00
7300
E180
C180
ENDCHAR
STARTCHAR 0426
ENCODING 1062
SWIDTH 720 0
DWIDTH 12 0
BBX 12 15 1 -3
BITMAP
1830
1830
1860
3060
3060
3060
30C0
60C0
60C0
60C0
7FE0
FFE0
0060
00C0
00C0
ENDCHAR
STARTCHAR 0427
ENCODING 1063
SWIDTH 660 0
DWIDTH 11 0
BBX 9 12 3 0
BITMAP
6180
E180
C300
C300
C300
C300
FF00
7E00
0600
0600
0E00
0C00
ENDCHAR
STARTCHAR 0428
ENCODING 1064
SWIDTH 960 0
DWIDTH 16 0
BBX 17 12 1 0
BITMAP
186380
18E300
18C300
30C300
30C700
30C600
318600
618600
618E00
618C00
7FFC00
FFFC00
ENDCHAR
STARTCHAR 0429
ENCODING 1065
SWIDTH 960 0
DWIDTH 16 0
BBX 17 15 1 -3
BITMAP
186380
18E300
18C300
30C300
30C700
30C600
318600
618600
618E00
618C00
7FFF00
FFFF00
000600
000600
000600
ENDCHAR
STARTCHAR 042A
ENCODING 1066
SWIDTH 720 0
DWIDTH 12 0
BBX 9 12 3 0
BITMAP
F800
F800
3800
3000
3C00
3F80
7380
6180
6180
6180
FF00
FE00
ENDCHAR
STARTCHAR 042B
ENCODING 1067
SWIDTH 840 0
DWIDTH 14 0
BBX 15 12 1 0
BITMAP
1806
1806
180C
300C
3C0C
3F8C
3398
6198
6198
6198
7F30
FE30
ENDCHAR
STARTCHAR 042C
ENCODING 1068
SWIDTH 600 0
DWIDTH 10 0
BBX 9 12 1 0
BITMAP
1800
1800
1800
3000
3C00
3F80
3180
6180
6180
6180
7F00
FE00
ENDCHAR
STARTCHAR 042D
ENCODING 1069
SWIDTH 600 0
DWIDTH 10 0
BBX 10 12 1 0
BITMAP
1E00
3F80
0180
01C0
00C0
1FC0
1FC0
0180
0180
0300
FF00
FC00
ENDCHAR
STARTCHAR 042E
ENCODING 1070
SWIDTH 1020 0
DWIDTH 17 0
BBX 17 12 1 0
BITMAP
183C00
187F00
18E300
318380
318180
3F0180
3F0380
630300
630300
638600
61FE00
E0F800
ENDCHAR
STARTCHAR 042F
ENCODING 1071
SWIDTH 660 0
DWIDTH 11 0
BBX 11 12 1 0
BITMAP
03C0
1FE0
18E0
30C0
30C0
38C0
1FC0
1F80
3980
7180
6180
C300
ENDCHAR
STARTCHAR 0430
ENCODING 1072
SWIDTH 540 0
DWIDTH 9 0
BBX 8 9 2 0
BITMAP
1F
3F
63
C6
C6
C6
C6
FE
FE
ENDCHAR
STARTCHAR 0431
ENCODING 1073
SWIDTH 540 0
DWIDTH 9 0
BBX 9 13 2 0
BITMAP
0380
1F80
3800
7000
6800
7E00
E700
C300
C300
C600
C600
FC00
7800
ENDCHAR
STARTCHAR 0432
ENCODING 1074
SWIDTH 540 0
DWIDTH 9 0
BBX 8 9 1 0
BITMAP
0E
3F
31
63
7E
63
63
C7
FE
ENDCHAR
STARTCHAR 0433
ENCODING 1075
SWIDTH 480 0
DWIDTH 8 0
BBX 7 9 1 0
BITMAP
3C
3E
06
0E
3C
70
C0
EC
7C
ENDCHAR
STARTCHAR 0434
ENCODING 1076
SWIDTH 540 0
DWIDTH 9 0
BBX 8 13 2 0
BITMAP
78
7E
06
03
0B
7F
63
C3
C6
C6
C6
FC
78
ENDCHAR
STARTCHAR 0435
ENCODING 1077
SWIDTH 540 0
DWIDTH 9 0
BBX 7 9 2 0
BITMAP
1C
7E
62
C6
FE
F0
C0
EC
7C
ENDCHAR
STARTCHAR 0436
ENCODING 1078
SWIDTH 900 0
DWIDTH 15 0
BBX 15 9 1 0
BITMAP
718E
799E
19B0
19B0
1FF0
1B20
1320
F334
E63C
ENDCHAR
STARTCHAR 0437
ENCODING 1079
SWIDTH 480 0
DWIDTH 8 0
BBX 7 9 1 0
BITMAP
3C
3E
06
06
3C
0C
0E
DC
F8
ENDCHAR
STARTCHAR 0438
ENCODING 1080
SWIDTH 540 0
DWIDTH 9 0
BBX 8 9 2 0
BITMAP
63
63
63
C6
C6
C6
C6
FE
FE
ENDCHAR
STARTCHAR 0439
ENCODING 1081
SWIDTH 540 0
DWIDTH 9 0
BBX 8 13 2 0
BITMAP
02
13
1E
00
63
63
63
C6
C6
C6
C6
FE
FE
ENDCHAR
STARTCHAR 043A
ENCODING 1082
SWIDTH 540 0
DWIDTH 9 0
BBX 10 9 1 0
BITMAP
31C0
3380
3600
3C00
7800
6C00
6E00
6600
C300
ENDCHAR
STARTCHAR 043B
ENCODING 1083
SWIDTH 600 0
DWIDTH 10 0
BBX 9 9 1 0
BITMAP
1F80
1F80
1980
1980
3180
3300
7300
E300
C300
ENDCHAR
STARTCHAR 043C
ENCODING 1084
SWIDTH 720 0
DWIDTH 12 0
BBX 11 9 1 0
BITMAP
1860
1860
38E0
39E0
2D60
6F60
6660
6660
C0C0
ENDCHAR
STARTCHAR 043D
ENCODING 1085
SWIDTH 600 0
DWIDTH 10 0
BBX 9 9 1 0
BITMAP
3180
3180
3180
3180
7F80
6300
6300
6300
C300
ENDCHAR
STARTCHAR 043E
ENCODING 1086
SWIDTH 540 0
DWIDTH 9 0
BBX 8 9 2 0
BITMAP
1C
7E
63
C3
C3
C6
C6
FC
78
ENDCHAR
STARTCHAR 043F
ENCODING 1087
SWIDTH 540 0
DWIDTH 9 0
BBX 9 9 1 0
BITMAP
1E00
3F00
3380
3180
6300
6300
6300
6300
C600
ENDCHAR
STARTCHAR 0440
ENCODING 1088
SWIDTH 540 0
DWIDTH 9 0
BBX 9 12 1 -3
BITMAP
1E00
3F00
3180
3180
6180
6300
6300
7E00
FC00
C000
C000
C000
ENDCHAR
STARTCHAR 0441
ENCODING 1089
SWIDTH 480 0
DWIDTH 8 0
BBX 7 9 2 0
BITMAP
1E
7E
E0
C0
C0
C0
C0
F8
7C
ENDCHAR
STARTCHAR 0442
ENCODING 1090
SWIDTH 840 0
DWIDTH 14 0
BBX 13 9 1 0
BITMAP
1E70
3FF8
3318
3318
6318
6318
6318
6630
C630
ENDCHAR
STARTCHAR 0443
ENCODING 1091
SWIDTH 480 0
DWIDTH 8 0
BBX 11 12 -1 -3
BITMAP
1860
18C0
18C0
1980
1980
0980
0F00
0E00
0E00
0C00
7800
F000
ENDCHAR
STARTCHAR 0444
ENCODING 1092
SWIDTH 780 0
DWIDTH 13 0
BBX 11 16 2 -3
BITMAP
0300
0300
0300
0200
1F80
7FC0
E6E0
C460
CC60
CC60
CCC0
EB80
7F00
1800
1800
1800
ENDCHAR
STARTCHAR 0445
ENCODING 1093
SWIDTH 480 0
DWIDTH 8 0
BBX 9 9 1 0
BITMAP
6180
3300
3600
1C00
1800
3C00
7C00
E600
C600
ENDCHAR
STARTCHAR 0446
ENCODING 1094
SWIDTH 600 0
DWIDTH 10 0
BBX 8 11 2 -2
BITMAP
63
63
63
C6
C6
C6
C6
FE
FF
03
06
ENDCHAR
STARTCHAR 0447
ENCODING 1095
SWIDTH 540 0
DWIDTH 9 0
BBX 8 9 2 0
BITMAP
63
C6
C6
C6
FE
7C
0C
0C
0C
ENDCHAR
STARTCHAR 0448
ENCODING 1096
SWIDTH 840 0
DWIDTH 14 0
BBX 13 9 2 0
BITMAP
6318
6318
6330
6630
C630
C630
C630
FFF0
7BF0
ENDCHAR
STARTCHAR 0449
ENCODING 1097
SWIDTH 900 0
DWIDTH 15 0
BBX 13 11 2 -2
BITMAP
6318
6318
6330
6630
C630
C630
C630
FFF0
7BF8
0010
0030
ENDCHAR
STARTCHAR 044A
ENCODING 1098
SWIDTH 600 0
DWIDTH 10 0
BBX 8 9 2 0
BITMAP
F0
F0
30
3C
7F
63
63
67
FE
ENDCHAR
STARTCHAR 044B
ENCODING 1099
SWIDTH 780 0
DWIDTH 13 0
BBX 13 9 1 0
BITMAP
3018
3018
3030
3C30
7F30
6330
6360
6760
FC60
ENDCHAR
STARTCHAR 044C
ENCODING 1100
SWIDTH 540 0
DWIDTH 9 0
BBX 8 9 1 0
BITMAP
30
30
30
3C
7F
63
63
67
FE
ENDCHAR
STARTCHAR 044D
ENCODING 1101
SWIDTH 480 0
DWIDTH 8 0
BBX 7 9 1 0
BITMAP
3C
7E
06
06
3E
06
06
FC
F8
ENDCHAR
STARTCHAR 044E
ENCODING 1102
SWIDTH 840 0
DWIDTH 14 0
BBX 13 9 1 0
BITMAP
30F0
31F8
3318
3618
7E18
6618
6630
6770
C3E0
ENDCHAR
STARTCHAR 044F
ENCODING 1103
SWIDTH 540 0
DWIDTH 9 0
BBX 9 9 1 0
BITMAP
1F80
3F80
7180
6300
3F00
3F00
7300
6600
C600
ENDCHAR
STARTCHAR 0450
ENCODING 1104
SWIDTH 540 0
DWIDTH 9 0
BBX 7 13 2 0
BITMAP
18
1C
06
00
1C
7E
62
C6
FE
F0
C0
EC
7C
ENDCHAR
STARTCHAR 0451
ENCODING 1105
SWIDTH 540 0
DWIDTH 9 0
BBX 8 12 2 0
BITMAP
1B
13
00
1C
7E
62
C6
FE
F0
C0
EC
7C
ENDCHAR
STARTCHAR 0452
ENCODING 1106
SWIDTH 540 0
DWIDTH 9 0
BBX 9 16 1 -3
BITMAP
1800
1800
3E00
3000
3E00
3F00
3380
3180
6300
6300
6300
6300
C600
0600
1E00
1C00
ENDCHAR
STARTCHAR 0453
ENCODING 1107
SWIDTH 480 0
DWIDTH 8 0
BBX 7 13 1 0
BITMAP
02
06
0C
00
3C
3E
06
0E
3C
70
C0
EC
7C
ENDCHAR
STARTCHAR 0454
ENCODING 1108
SWIDTH 480 0
DWIDTH 8 0
BBX 7 9 2 0
BITMAP
1E
7E
E0
C0
F8
80
C0
FC
7C
ENDCHAR
STARTCHAR 0455
ENCODING 1109
SWIDTH 420 0
DWIDTH 7 0
BBX 7 9 1 0
BITMAP
1E
3E
60
70
3C
0C
0C
CC
F8
ENDCHAR
STARTCHAR 0456
ENCODING 1110
SWIDTH 300 0
DWIDTH 5 0
BBX 5 12 1 1
BITMAP
18
18
00
30
30
30
30
60
60
60
60
C0
ENDCHAR
STARTCHAR 0457
ENCODING 1111
SWIDTH 300 0
DWIDTH 5 0
BBX 7 12 1 0
BITMAP
66
64
00
30
30
30
30
60
60
60
60
C0
ENDCHAR
STARTCHAR 0458
ENCODING 1112
SWIDTH 300 0
DWIDTH 5 0
BBX 8 15 -2 -2
BITMAP
03
03
00
06
06
06
06
0C
0C
0C
0C
18
18
78
F0
ENDCHAR
STARTCHAR 0459
ENCODING 1113
SWIDTH 840 0
DWIDTH 14 0
BBX 14 9 0 0
BITMAP
0FC0
0FC0
0CC0
08F0
19FC
198C
318C
F19C
E3F8
ENDCHAR
STARTCHAR 045A
ENCODING 1114
SWIDTH 840 0
DWIDTH 14 0
BBX 13 9 1 0
BITMAP
3180
3180
3180
31E0
7FF8
6318
6318
6338
C7F0
ENDCHAR
STARTCHAR 045B
ENCODING 1115
SWIDTH 540 0
DWIDTH 9 0
BBX 9 13 1 0
BITMAP
1800
1800
3E00
1800
3E00
3F00
3380
3180
6300
6300
6300
6300
C600
ENDCHAR
STARTCHAR 045C
ENCODING 1116
SWIDTH 540 0
DWIDTH 9 0
BBX 10 13 1 0
BITMAP
0100
0300
0600
0000
31C0
3380
3600
3C00
7800
6C00
6E00
6600
C300
ENDCHAR
STARTCHAR 045D
ENCODING 1117
SWIDTH 540 0
DWIDTH 9 0
BBX 8 13 2 0
BITMAP
10
18
0C
00
63
63
63
C6
C6
C6
C6
FE
FE
ENDCHAR
STARTCHAR 045E
ENCODING 1118
SWIDTH 480 0
DWIDTH 8 0
BBX 11 15 -1 -2
BITMAP
06C0
0780
0000
1860
18C0
18C0
1980
1980
0980
0F00
0E00
0E00
0C00
7800
F000
ENDCHAR
STARTCHAR 045F
ENCODING 1119
SWIDTH 540 0
DWIDTH 9 0
BBX 8 12 2 -3
BITMAP
63
63
63
C6
C6
C6
C6
FE
FE
00
20
60
ENDCHAR
STARTCHAR 0462
ENCODING 1122
SWIDTH 720 0
DWIDTH 12 0
BBX 10 12 2 0
BITMAP
1C00
FF00
FF00
1800
3800
3F80
31C0
30C0
30C0
61C0
7F80
7E00
ENDCHAR
STARTCHAR 0463
ENCODING 1123
SWIDTH 840 0
DWIDTH 14 0
BBX 13 9 1 0
BITMAP
1E00
3F00
3380
31E0
63F8
6318
6318
6338
C7F0
ENDCHAR
STARTCHAR 0472
ENCODING 1138
SWIDTH 720 0
DWIDTH 12 0
BBX 11 12 2 0
BITMAP
0700
1FC0
38E0
7060
6060
DC60
FFE0
C3E0
C0C0
E1C0
7F80
3E00
ENDCHAR
STARTCHAR 0473
ENCODING 1139
SWIDTH 540 0
DWIDTH 9 0
BBX 8 9 2 0
BITMAP
1C
7E
63
C3
FF
CE
C6
CC
78
ENDCHAR
STARTCHAR 0474
ENCODING 1140
SWIDTH 720 0
DWIDTH 12 0
BBX 12 12 3 0
BITMAP
C060
C1F0
C180
C300
C300
C600
E600
6C00
7C00
7800
7000
7000
ENDCHAR
STARTCHAR 0475
ENCODING 1141
SWIDTH 540 0
DWIDTH 9 0
BBX 9 9 2 0
BITMAP
C180
C380
C600
CC00
CC00
7800
7800
7000
6000
ENDCHAR
STARTCHAR 048A
ENCODING 1162
SWIDTH 720 0
DWIDTH 12 0
BBX 12 18 1 -3
BITMAP
0260
03C0
0000
1810
1870
18F0
31F0
31E0
3360
3660
6C60
78C0
70C0
60E0
E0E0
0060
00C0
0080
ENDCHAR
STARTCHAR 048B
ENCODING 1163
SWIDTH 600 0
DWIDTH 10 0
BBX 8 16 2 -3
BITMAP
02
13
1E
00
63
63
63
C6
C6
C6
C6
FE
FF
02
06
04
ENDCHAR
STARTCHAR 048C
ENCODING 1164
SWIDTH 660 0
DWIDTH 11 0
BBX 9 12 2 0
BITMAP
3000
3000
7C00
3000
6000
7F00
6380
6180
E180
C300
FF00
FC00
ENDCHAR
STARTCHAR 048D
ENCODING 1165
SWIDTH 540 0
DWIDTH 9 0
BBX 8 9 1 0
BITMAP
30
7E
30
3C
7F
63
63
67
FE
ENDCHAR
STARTCHAR 048E
ENCODING 1166
SWIDTH 600 0
DWIDTH 10 0
BBX 10 12 1 0
BITMAP
0F00
1FC0
18C0
30C0
32C0
37C0
3F80
7F00
6100
6100
6000
E000
ENDCHAR
STARTCHAR 048F
ENCODING 1167
SWIDTH 540 0
DWIDTH 9 0
BBX 9 12 1 -3
BITMAP
1E00
3F00
3180
3180
6180
6180
6F00
7E00
FE00
C600
C000
C000
ENDCHAR
STARTCHAR 0490
ENCODING 1168
SWIDTH 540 0
DWIDTH 9 0
BBX 11 14 1 0
BITMAP
0060
00C0
1FC0
1FC0
1800
3000
3000
3000
3000
6000
6000
6000
6000
C000
ENDCHAR
STARTCHAR 0491
ENCODING 1169
SWIDTH 420 0
DWIDTH 7 0
BBX 8 11 1 0
BITMAP
01
03
3F
3F
30
30
60
60
60
60
C0
ENDCHAR
STARTCHAR 0492
ENCODING 1170
SWIDTH 540 0
DWIDTH 9 0
BBX 9 12 2 0
BITMAP
3F80
3F80
3000
3000
7000
FC00
FC00
6000
6000
C000
C000
C000
ENDCHAR
STARTCHAR 0493
ENCODING 1171
SWIDTH 480 0
DWIDTH 8 0
BBX 7 9 1 0
BITMAP
3C
3E
06
6E
3C
7E
C0
EC
7C
ENDCHAR
STARTCHAR 0494
ENCODING 1172
SWIDTH 660 0
DWIDTH 11 0
BBX 10 15 1 -3
BITMAP
1FC0
1FC0
1800
3000
3000
3F00
3380
6180
6180
6180
6180
E180
0300
1F00
1C00
ENDCHAR
STARTCHAR 0495
ENCODING 1173
SWIDTH 540 0
DWIDTH 9 0
BBX 8 12 1 -3
BITMAP
3F
3F
30
70
7E
67
63
63
C3
06
0E
38
ENDCHAR
STARTCHAR 0496
ENCODING 1174
SWIDTH 960 0
DWIDTH 16 0
BBX 17 15 1 -3
BITMAP
38C380
18C700
1CCE00
0CDC00
07B800
07E000
0FE000
1DF000
3B3000
731800
E31E00
C30E00
000C00
000C00
000C00
ENDCHAR
STARTCHAR 0497
ENCODING 1175
SWIDTH 900 0
DWIDTH 15 0
BBX 15 11 1 -2
BITMAP
718E
799E
19B0
19B0
1FF0
1B20
1320
F334
E63C
000C
000C
ENDCHAR
STARTCHAR 0498
ENCODING 1176
SWIDTH 540 0
DWIDTH 9 0
BBX 9 15 1 -3
BITMAP
0F00
3F80
0180
0180
0380
1F00
1F00
0300
0300
0300
FF00
FE00
1000
1000
7000
ENDCHAR
STARTCHAR 0499
ENCODING 1177
SWIDTH 480 0
DWIDTH 8 0
BBX 7 12 1 -3
BITMAP
3C
3E
06
06
3C
0C
0E
DC
F8
20
30
F0
ENDCHAR
STARTCHAR 049A
ENCODING 1178
SWIDTH 660 0
DWIDTH 11 0
BBX 12 15 1 -3
BITMAP
1870
18E0
19C0
3380
3600
3C00
3C00
6E00
6700
6300
63C0
E1C0
00C0
00C0
0180
ENDCHAR
STARTCHAR 049B
ENCODING 1179
SWIDTH 600 0
DWIDTH 10 0
BBX 10 11 1 -2
BITMAP
31C0
3380
3600
3C00
7800
6C00
6E00
6780
C300
0300
0300
ENDCHAR
STARTCHAR 049C
ENCODING 1180
SWIDTH 720 0
DWIDTH 12 0
BBX 13 12 1 0
BITMAP
1818
1830
1860
36C0
3580
3F00
3F00
6F80
6D80
60C0
60C0
E0E0
ENDCHAR
STARTCHAR 049D
ENCODING 1181
SWIDTH 660 0
DWIDTH 11 0
BBX 11 9 1 0
BITMAP
3060
30C0
3580
3F00
7E00
6B00
6B00
6180
C180
ENDCHAR
STARTCHAR 049E
ENCODING 1182
SWIDTH 660 0
DWIDTH 11 0
BBX 12 12 2 0
BITMAP
3070
7CE0
7980
3300
6E00
7C00
7800
6C00
EE00
C700
C300
C380
ENDCHAR
STARTCHAR 049F
ENCODING 1183
SWIDTH 600 0
DWIDTH 10 0
BBX 9 9 2 0
BITMAP
6180
F300
6E00
7C00
F800
D800
CC00
C600
C600
ENDCHAR
STARTCHAR 04A0
ENCODING 1184
SWIDTH 720 0
DWIDTH 12 0
BBX 12 12 3 0
BITMAP
F870
F8C0
3180
3300
3600
3C00
7C00
6E00
6600
6300
E380
C180
ENDCHAR
STARTCHAR 04A1
ENCODING 1185
SWIDTH 600 0
DWIDTH 10 0
BBX 10 9 2 0
BITMAP
F1C0
F380
3700
3C00
7800
6C00
6600
6600
C300
ENDCHAR
STARTCHAR 04A2
ENCODING 1186
SWIDTH 720 0
DWIDTH 12 0
BBX 12 15 1 -3
BITMAP
1830
1830
1870
3060
3060
3FE0
3FE0
60C0
60C0
60C0
61E0
E1E0
0060
0060
00C0
ENDCHAR
STARTCHAR 04A3
ENCODING 1187
SWIDTH 600 0
DWIDTH 10 0
BBX 9 11 1 -2
BITMAP
3180
3180
3180
3180
7F00
6300
6300
6380
C380
0180
0100
ENDCHAR
STARTCHAR 04A4
ENCODING 1188
SWIDTH 780 0
DWIDTH 13 0
BBX 15 12 1 0
BITMAP
183E
183E
1870
3060
3060
3FE0
3FE0
60C0
60C0
60C0
61C0
E180
ENDCHAR
STARTCHAR 04A5
ENCODING 1189
SWIDTH 660 0
DWIDTH 11 0
BBX 12 9 1 0
BITMAP
31F0
31E0
3180
3180
7F00
6300
6300
6300
C300
ENDCHAR
STARTCHAR 04A6
ENCODING 1190
SWIDTH 1020 0
DWIDTH 17 0
BBX 16 15 1 -3
BITMAP
1FF0
1FE0
1860
3060
3060
30FE
30E7
60C3
60C3
61C3
6183
E183
0006
003C
0078
ENDCHAR
STARTCHAR 04A7
ENCODING 1191
SWIDTH 840 0
DWIDTH 14 0
BBX 13 12 1 -3
BITMAP
1E00
3F00
3380
3180
63F0
6338
6318
6318
C618
0030
0070
01E0
ENDCHAR
STARTCHAR 04A8
ENCODING 1192
SWIDTH 780 0
DWIDTH 13 0
BBX 11 15 2 -3
BITMAP
0780
1FC0
3800
7080
63E0
E760
CE60
CC60
CC60
ECC0
7FC0
3F00
0C00
0780
0380
ENDCHAR
STARTCHAR 04A9
ENCODING 1193
SWIDTH 600 0
DWIDTH 10 0
BBX 8 11 2 -2
BITMAP
1E
7C
60
CF
D9
D9
D3
D6
7C
18
0E
ENDCHAR
STARTCHAR 04AA
ENCODING 1194
SWIDTH 600 0
DWIDTH 10 0
BBX 10 15 2 -3
BITMAP
0780
1FC0
3800
7000
6000
C000
C000
C000
C000
E000
7F00
3F00
1000
1800
3800
ENDCHAR
STARTCHAR 04AB
ENCODING 1195
SWIDTH 480 0
DWIDTH 8 0
BBX 7 12 2 -3
BITMAP
1E
7E
E0
C0
C0
C0
C0
F8
7C
20
30
F0
ENDCHAR
STARTCHAR 04AC
ENCODING 1196
SWIDTH 600 0
DWIDTH 10 0
BBX 9 15 3 -3
BITMAP
FF80
FF80
1800
1800
1800
3000
3000
3000
3000
7000
7800
7800
1800
3000
3000
ENDCHAR
STARTCHAR 04AD
ENCODING 1197
SWIDTH 900 0
DWIDTH 15 0
BBX 14 11 1 -2
BITMAP
1E70
3FF8
3318
3318
6318
6318
6318
663C
C638
0018
0018
ENDCHAR
STARTCHAR 04AE
ENCODING 1198
SWIDTH 600 0
DWIDTH 10 0
BBX 10 12 3 0
BITMAP
C1C0
C380
C300
6600
6E00
7C00
3800
3000
3000
7000
6000
6000
ENDCHAR
STARTCHAR 04AF
ENCODING 1199
SWIDTH 480 0
DWIDTH 8 0
BBX 8 12 2 -3
BITMAP
C3
C3
C6
C6
CC
6C
78
70
60
60
60
60
ENDCHAR
STARTCHAR 04B0
ENCODING 1200
SWIDTH 600 0
DWIDTH 10 0
BBX 10 12 3 0
BITMAP
C1C0
C380
C300
6600
6E00
7C00
3800
FC00
FC00
7000
6000
6000
ENDCHAR
STARTCHAR 04B1
ENCODING 1201
SWIDTH 480 0
DWIDTH 8 0
BBX 9 12 1 -3
BITMAP
6180
6180
6300
6300
2600
3600
3C00
3800
FC00
3000
3000
3000
ENDCHAR
STARTCHAR 04B2
ENCODING 1202
SWIDTH 660 0
DWIDTH 11 0
BBX 11 15 1 -3
BITMAP
3060
18E0
18C0
1D80
0F00
0E00
0E00
1F00
3B00
7300
E1C0
C1C0
00C0
00C0
0180
ENDCHAR
STARTCHAR 04B3
ENCODING 1203
SWIDTH 540 0
DWIDTH 9 0
BBX 9 11 1 -2
BITMAP
6180
3300
3600
1C00
1800
3C00
7C00
E700
C700
0300
0200
ENDCHAR
STARTCHAR 04B4
ENCODING 1204
SWIDTH 840 0
DWIDTH 14 0
BBX 12 15 3 -3
BITMAP
FF30
FF30
1870
3060
3060
3060
30E0
60C0
60C0
60C0
7FE0
FFE0
0060
0060
00C0
ENDCHAR
STARTCHAR 04B5
ENCODING 1205
SWIDTH 720 0
DWIDTH 12 0
BBX 10 11 2 -2
BITMAP
FCC0
FD80
3180
3180
6180
6300
6300
7780
3D80
0180
0180
ENDCHAR
STARTCHAR 04B6
ENCODING 1206
SWIDTH 660 0
DWIDTH 11 0
BBX 9 15 3 -3
BITMAP
6180
E180
C300
C300
C300
C300
FF00
7E00
0600
0600
0F00
0F00
0300
0300
0600
ENDCHAR
STARTCHAR 04B7
ENCODING 1207
SWIDTH 540 0
DWIDTH 9 0
BBX 8 11 2 -2
BITMAP
63
C6
C6
C6
FE
7C
0C
0E
0E
06
06
ENDCHAR
STARTCHAR 04B8
ENCODING 1208
SWIDTH 660 0
DWIDTH 11 0
BBX 9 12 3 0
BITMAP
6180
E180
C180
C300
DB00
D300
FF00
7E00
3600
2600
0600
0C00
ENDCHAR
STARTCHAR 04B9
ENCODING 1209
SWIDTH 540 0
DWIDTH 9 0
BBX 8 9 2 0
BITMAP
C3
C6
C6
D6
FE
7C
2C
2C
0C
ENDCHAR
STARTCHAR 04BA
ENCODING 1210
SWIDTH 660 0
DWIDTH 11 0
BBX 10 12 1 0
BITMAP
1800
1800
1800
3000
3F00
3F80
31C0
60C0
6180
6180
6180
E180
ENDCHAR
STARTCHAR 04BB
ENCODING 1211
SWIDTH 540 0
DWIDTH 9 0
BBX 9 13 1 0
BITMAP
1800
1800
1800
3800
3E00
3F00
3380
3180
6300
6300
6300
6300
C600
ENDCHAR
STARTCHAR 04BC
ENCODING 1212
SWIDTH 840 0
DWIDTH 14 0
BBX 13 12 2 0
BITMAP
01E0
07F0
0E38
CC18
D818
FFF8
3FF8
1800
1800
1800
1FE0
0FE0
ENDCHAR
STARTCHAR 04BD
ENCODING 1213
SWIDTH 660 0
DWIDTH 11 0
BBX 9 9 2 0
BITMAP
0780
1F80
9880
B180
FF80
7C00
3000
3B00
1F00
ENDCHAR
STARTCHAR 04BE
ENCODING 1214
SWIDTH 840 0
DWIDTH 14 0
BBX 13 15 2 -3
BITMAP
01E0
07F0
0E38
CC18
D818
FFF8
3FF8
1800
1800
1800
1FE0
0FE0
0600
0600
0600
ENDCHAR
STARTCHAR 04BF
ENCODING 1215
SWIDTH 660 0
DWIDTH 11 0
BBX 9 11 2 -2
BITMAP
0780
1F80
9880
B180
FF80
7C00
3000
3B00
1F00
0C00
0800
ENDCHAR
STARTCHAR 04C0
ENCODING 1216
SWIDTH 300 0
DWIDTH 5 0
BBX 5 12 1 0
BITMAP
18
18
18
30
30
30
30
60
60
60
60
E0
ENDCHAR
STARTCHAR 04C1
ENCODING 1217
SWIDTH 900 0
DWIDTH 15 0
BBX 18 15 0 0
BITMAP
00C800
00F800
000000
1861C0
0C6380
0C6700
06CC00
07D800
03F000
07F000
0FB800
1D9800
398C00
718C00
E38E00
ENDCHAR
STARTCHAR 04C2
ENCODING 1218
SWIDTH 900 0
DWIDTH 15 0
BBX 15 13 1 0
BITMAP
0020
0360
01C0
0000
718E
799E
19B0
19B0
1FF0
1B20
1320
F334
E63C
ENDCHAR
STARTCHAR 04C3
ENCODING 1219
SWIDTH 660 0
DWIDTH 11 0
BBX 12 15 1 -3
BITMAP
1870
18E0
19C0
3380
3600
3E00
3F80
6180
6180
6180
6180
C180
0300
1F00
1C00
ENDCHAR
STARTCHAR 04C4
ENCODING 1220
SWIDTH 540 0
DWIDTH 9 0
BBX 10 12 1 -3
BITMAP
31C0
3380
3600
3C00
7E00
6700
6300
6300
C300
0600
0E00
3C00
ENDCHAR
STARTCHAR 04C5
ENCODING 1221
SWIDTH 720 0
DWIDTH 12 0
BBX 13 15 0 -3
BITMAP
03F8
07F0
0630
0630
0630
0C60
0C60
0C60
1860
38C0
F0F0
E0E0
0060
00C0
00C0
ENDCHAR
STARTCHAR 04C6
ENCODING 1222
SWIDTH 600 0
DWIDTH 10 0
BBX 9 12 1 -3
BITMAP
1F80
1F80
1980
1980
3180
3300
7300
E380
C380
0100
0300
0200
ENDCHAR
STARTCHAR 04C7
ENCODING 1223
SWIDTH 720 0
DWIDTH 12 0
BBX 12 15 1 -3
BITMAP
1830
1830
1870
3060
3060
3FE0
3FE0
60C0
60C0
60C0
61C0
E180
0180
0780
0700
ENDCHAR
STARTCHAR 04C8
ENCODING 1224
SWIDTH 600 0
DWIDTH 10 0
BBX 9 12 1 -3
BITMAP
3180
3180
3180
3180
7F00
6300
6300
6300
C300
0600
1E00
1C00
ENDCHAR
STARTCHAR 04C9
ENCODING 1225
SWIDTH 720 0
DWIDTH 12 0
BBX 12 15 1 -3
BITMAP
1830
1830
1870
3060
3060
3FE0
3FE0
60C0
60C0
60C0
61E0
E1E0
00C0
00C0
0180
ENDCHAR
STARTCHAR 04CA
ENCODING 1226
SWIDTH 600 0
DWIDTH 10 0
BBX 9 12 1 -3
BITMAP
3180
3180
3180
3180
7F80
6300
6300
6380
C380
0100
0300
0200
ENDCHAR
STARTCHAR 04CB
ENCODING 1227
SWIDTH 660 0
DWIDTH 11 0
BBX 9 15 3 -3
BITMAP
6180
E180
C300
C300
C300
C300
FF00
7E00
0600
0600
1E00
3C00
3000
3000
3000
ENDCHAR
STARTCHAR 04CC
ENCODING 1228
SWIDTH 540 0
DWIDTH 9 0
BBX 7 11 2 -2
BITMAP
C6
C6
C6
C6
FC
7C
0C
3C
3C
30
20
ENDCHAR
STARTCHAR 04CD
ENCODING 1229
SWIDTH 900 0
DWIDTH 15 0
BBX 14 15 1 -3
BITMAP
0C0C
1C1C
1C1C
1C3C
346C
3668
36D8
6798
6798
6318
C01C
C03C
0018
0018
0030
ENDCHAR
STARTCHAR 04CE
ENCODING 1230
SWIDTH 720 0
DWIDTH 12 0
BBX 12 12 1 -3
BITMAP
1860
3860
38E0
29E0
6960
6F60
6E40
CCF0
C0E0
0060
00C0
0080
ENDCHAR
STARTCHAR 04CF
ENCODING 1231
SWIDTH 300 0
DWIDTH 5 0
BBX 5 12 1 0
BITMAP
18
18
38
30
30
30
30
60
60
60
60
C0
ENDCHAR
STARTCHAR 04D0
ENCODING 1232
SWIDTH 660 0
DWIDTH 11 0
BBX 11 15 0 0
BITMAP
0320
01E0
0000
0180
0180
03C0
06C0
06C0
0CC0
18C0
18C0
3FE0
3060
6060
E060
ENDCHAR
STARTCHAR 04D1
ENCODING 1233
SWIDTH 540 0
DWIDTH 9 0
BBX 8 12 2 1
BITMAP
1B
0E
00
1F
3F
63
C6
C6
C6
C6
FE
FE
ENDCHAR
STARTCHAR 04D2
ENCODING 1234
SWIDTH 660 0
DWIDTH 11 0
BBX 12 15 0 0
BITMAP
0330
0370
0000
0180
0180
03C0
06C0
06C0
0CC0
18C0
18C0
3FE0
3060
6060
E060
ENDCHAR
STARTCHAR 04D3
ENCODING 1235
SWIDTH 540 0
DWIDTH 9 0
BBX 8 12 2 0
BITMAP
1B
13
00
1F
3F
63
C6
C6
C6
C6
FE
FE
ENDCHAR
STARTCHAR 04D4
ENCODING 1236
SWIDTH 960 0
DWIDTH 16 0
BBX 18 12 0 0
BITMAP
003FC0
007F80
00F000
01B000
033000
067F00
0C7F00
0FE000
1FE000
30C000
60FF00
E0FE00
ENDCHAR
STARTCHAR 04D5
ENCODING 1237
SWIDTH 840 0
DWIDTH 14 0
BBX 14 9 1 0
BITMAP
3C78
3EFC
038C
031C
3FF8
63E0
C700
CFB0
7DF0
ENDCHAR
STARTCHAR 04D6
ENCODING 1238
SWIDTH 600 0
DWIDTH 10 0
BBX 10 15 1 0
BITMAP
04C0
0780
0000
1FC0
1FC0
1800
3000
3000
3F00
3F00
6000
6000
6000
7F00
FF00
ENDCHAR
STARTCHAR 04D7
ENCODING 1239
SWIDTH 540 0
DWIDTH 9 0
BBX 8 13 2 0
BITMAP
02
13
1E
00
1C
7E
62
C6
FE
F0
C0
EC
7C
ENDCHAR
STARTCHAR 04D8
ENCODING 1240
SWIDTH 720 0
DWIDTH 12 0
BBX 10 12 2 0
BITMAP
1F00
3F80
21C0
00C0
00C0
00C0
FFC0
C0C0
C180
C380
FF00
7E00
ENDCHAR
STARTCHAR 04D9
ENCODING 1241
SWIDTH 540 0
DWIDTH 9 0
BBX 8 9 1 0
BITMAP
3E
3F
03
03
3F
63
C6
EE
7C
ENDCHAR
STARTCHAR 04DA
ENCODING 1242
SWIDTH 720 0
DWIDTH 12 0
BBX 10 15 2 0
BITMAP
0C80
0D80
0000
1F00
3F80
21C0
00C0
00C0
00C0
FFC0
C0C0
C180
C380
FF00
7E00
ENDCHAR
STARTCHAR 04DB
ENCODING 1243
SWIDTH 540 0
DWIDTH 9 0
BBX 9 12 1 0
BITMAP
1B80
1900
0000
3E00
3F00
0300
0300
3F00
6300
C600
EE00
7C00
ENDCHAR
STARTCHAR 04DC
ENCODING 1244
SWIDTH 900 0
DWIDTH 15 0
BBX 18 15 0 0
BITMAP
00D800
00D800
000000
1861C0
0C6380
0C6700
06CC00
07D800
03F000
07F000
0FB800
1D9800
398C00
718C00
E38E00
ENDCHAR
STARTCHAR 04DD
ENCODING 1245
SWIDTH 900 0
DWIDTH 15 0
BBX 15 12 1 0
BITMAP
0330
0320
0000
718E
799E
19B0
19B0
1FF0
1B20
1320
F334
E63C
ENDCHAR
STARTCHAR 04DE
ENCODING 1246
SWIDTH 540 0
DWIDTH 9 0
BBX 9 15 1 0
BITMAP
0D80
0D80
0000
0F00
3F80
0180
0180
0380
1F00
1F00
0300
0300
0300
FF00
FE00
ENDCHAR
STARTCHAR 04DF
ENCODING 1247
SWIDTH 480 0
DWIDTH 8 0
BBX 8 12 1 0
BITMAP
33
32
00
3C
3E
06
06
3C
0C
0E
DC
F8
ENDCHAR
STARTCHAR 04E0
ENCODING 1248
SWIDTH 540 0
DWIDTH 9 0
BBX 10 12 1 0
BITMAP
3FC0
3FC0
0180
0300
0600
1C00
1F00
0380
0380
0300
FF00
FE00
ENDCHAR
STARTCHAR 04E1
ENCODING 1249
SWIDTH 420 0
DWIDTH 7 0
BBX 9 12 0 -3
BITMAP
3F80
3F80
0700
0E00
1C00
1C00
0E00
0600
0600
0600
FC00
F800
ENDCHAR
STARTCHAR 04E2
ENCODING 1250
SWIDTH 720 0
DWIDTH 12 0
BBX 12 15 1 0
BITMAP
03E0
03E0
0000
1810
1870
18F0
31F0
31E0
3360
3660
6C60
78C0
70C0
60C0
E0C0
ENDCHAR
STARTCHAR 04E3
ENCODING 1251
SWIDTH 540 0
DWIDTH 9 0
BBX 8 12 2 0
BITMAP
1F
00
00
63
63
63
C6
C6
C6
C6
FE
FE
ENDCHAR
STARTCHAR 04E4
ENCODING 1252
SWIDTH 720 0
DWIDTH 12 0
BBX 12 15 1 0
BITMAP
0360
0760
0000
1810
1870
18F0
31F0
31E0
3360
3660
6C60
78C0
70C0
60C0
E0C0
ENDCHAR
STARTCHAR 04E5
ENCODING 1253
SWIDTH 540 0
DWIDTH 9 0
BBX 8 12 2 0
BITMAP
3B
13
00
63
63
63
C6
C6
C6
C6
FE
FE
ENDCHAR
STARTCHAR 04E6
ENCODING 1254
SWIDTH 720 0
DWIDTH 12 0
BBX 11 15 2 0
BITMAP
06C0
0CC0
0000
0700
1FC0
38E0
7060
6060
C060
C060
C0E0
C0C0
E1C0
7F80
3E00
ENDCHAR
STARTCHAR 04E7
ENCODING 1255
SWIDTH 540 0
DWIDTH 9 0
BBX 8 12 2 0
BITMAP
3B
13
00
1C
7E
63
C3
C3
C6
C6
FC
78
ENDCHAR
STARTCHAR 04E8
ENCODING 1256
SWIDTH 720 0
DWIDTH 12 0
BBX 11 12 2 0
BITMAP
0700
1FC0
38E0
7060
6060
FFE0
FFE0
C0E0
C0C0
E1C0
7F80
3E00
ENDCHAR
STARTCHAR 04E9
ENCODING 1257
SWIDTH 540 0
DWIDTH 9 0
BBX 8 9 2 0
BITMAP
1C
7E
63
C3
FF
C6
C6
FC
78
ENDCHAR
STARTCHAR 04EA
ENCODING 1258
SWIDTH 720 0
DWIDTH 12 0
BBX 11 15 2 0
BITMAP
06C0
0CC0
0000
0700
1FC0
38E0
7060
6060
FFE0
FFE0
C0E0
C0C0
E1C0
7F80
3E00
ENDCHAR
STARTCHAR 04EB
ENCODING 1259
SWIDTH 540 0
DWIDTH 9 0
BBX 8 12 2 0
BITMAP
3B
13
00
1C
7E
63
C3
FF
C6
C6
FC
78
ENDCHAR
STARTCHAR 04EC
ENCODING 1260
SWIDTH 600 0
DWIDTH 10 0
BBX 10 15 1 0
BITMAP
1980
1980
0000
1E00
3F80
0180
01C0
00C0
1FC0
1FC0
0180
0180
0300
FF00
FC00
ENDCHAR
STARTCHAR 04ED
ENCODING 1261
SWIDTH 480 0
DWIDTH 8 0
BBX 8 12 1 0
BITMAP
37
32
00
3C
7E
06
06
3E
06
06
FC
F8
ENDCHAR
STARTCHAR 04EE
ENCODING 1262
SWIDTH 600 0
DWIDTH 10 0
BBX 11 15 1 0
BITMAP
07C0
0F80
0000
3060
30E0
30C0
3180
1980
1B00
1B00
1E00
0C00
1C00
F800
F000
ENDCHAR
STARTCHAR 04EF
ENCODING 1263
SWIDTH 480 0
DWIDTH 8 0
BBX 11 15 -1 -3
BITMAP
07C0
0000
0000
1860
18C0
18C0
1980
1980
0980
0F00
0E00
0E00
0C00
7800
F000
ENDCHAR
STARTCHAR 04F0
ENCODING 1264
SWIDTH 600 0
DWIDTH 10 0
BBX 11 15 1 0
BITMAP
0C80
0D80
0000
3060
30E0
30C0
3180
1980
1B00
1B00
1E00
0C00
1C00
F800
F000
ENDCHAR
STARTCHAR 04F1
ENCODING 1265
SWIDTH 480 0
DWIDTH 8 0
BBX 11 15 -1 -3
BITMAP
0EC0
04C0
0000
1860
18C0
18C0
1980
1980
0980
0F00
0E00
0E00
0C00
7800
F000
ENDCHAR
STARTCHAR 04F2
ENCODING 1266
SWIDTH 600 0
DWIDTH 10 0
BBX 11 16 1 0
BITMAP
0200
0760
04C0
0000
3060
30E0
30C0
3180
1980
1B00
1B00
1E00
0C00
1C00
F800
F000
ENDCHAR
STARTCHAR 04F3
ENCODING 1267
SWIDTH 480 0
DWIDTH 8 0
BBX 11 16 -1 -3
BITMAP
0220
0360
04C0
0000
1860
18C0
18C0
1980
1980
0980
0F00
0E00
0E00
0C00
7800
F000
ENDCHAR
STARTCHAR 04F4
ENCODING 1268
SWIDTH 660 0
DWIDTH 11 0
BBX 9 15 3 0
BITMAP
1300
3300
0000
6180
E180
C300
C300
C300
C300
FF00
7E00
0600
0600
0E00
0C00
ENDCHAR
STARTCHAR 04F5
ENCODING 1269
SWIDTH 540 0
DWIDTH 9 0
BBX 8 12 2 0
BITMAP
37
32
00
63
C6
C6
C6
FE
7C
0C
0C
0C
ENDCHAR
STARTCHAR 04F6
ENCODING 1270
SWIDTH 480 0
DWIDTH 8 0
BBX 10 15 1 -3
BITMAP
1FC0
1FC0
1800
3000
3000
3000
3000
6000
6000
6000
7000
F000
3000
3000
3000
ENDCHAR
STARTCHAR 04F7
ENCODING 1271
SWIDTH 480 0
DWIDTH 8 0
BBX 7 11 1 -2
BITMAP
3C
3E
06
0E
3C
70
C0
E4
7C
0C
0C
ENDCHAR
STARTCHAR 04F8
ENCODING 1272
SWIDTH 840 0
DWIDTH 14 0
BBX 15 15 1 0
BITMAP
0130
0330
0000
1806
1806
180C
300C
3C0C
3F8C
3398
6198
6198
6198
7F30
FE30
ENDCHAR
STARTCHAR 04F9
ENCODING 1273
SWIDTH 780 0
DWIDTH 13 0
BBX 13 12 1 0
BITMAP
0660
0640
0000
3018
3018
3030
3C30
7F30
6330
6360
6760
FC60
ENDCHAR
STARTCHAR 1E80
ENCODING 7808
SWIDTH 900 0
DWIDTH 15 0
BBX 15 16 3 0
BITMAP
0200
0700
0380
0000
C00E
C00C
C30C
C718
C718
CF38
CB30
D970
F160
F1E0
E1C0
C180
ENDCHAR
STARTCHAR 1E81
ENCODING 7809
SWIDTH 840 0
DWIDTH 14 0
BBX 13 13 2 0
BITMAP
0600
0600
0300
0000
C318
C718
C730
4F30
4F60
7B60
7BC0
7380
6180
ENDCHAR
STARTCHAR 1E82
ENCODING 7810
SWIDTH 900 0
DWIDTH 15 0
BBX 15 15 3 1
BITMAP
01C0
0380
0000
C00E
C00C
C30C
C718
C718
CF38
CB30
D970
F160
F1E0
E1C0
C180
ENDCHAR
STARTCHAR 1E83
ENCODING 7811
SWIDTH 840 0
DWIDTH 14 0
BBX 13 13 2 0
BITMAP
0080
0380
0300
0000
C318
C718
C730
4F30
4F60
7B60
7BC0
7380
6180
ENDCHAR
STARTCHAR 1E84
ENCODING 7812
SWIDTH 900 0
DWIDTH 15 0
BBX 15 15 3 0
BITMAP
0640
06E0
0000
C00E
C00C
C30C
C718
C718
CF38
CB30
D970
F160
F1E0
E1C0
C180
ENDCHAR
STARTCHAR 1E85
ENCODING 7813
SWIDTH 840 0
DWIDTH 14 0
BBX 13 12 2 0
BITMAP
06C0
04C0
0000
C318
C718
C730
4F30
4F60
7B60
7BC0
7380
6180
ENDCHAR
STARTCHAR 1EF2
ENCODING 7922
SWIDTH 600 0
DWIDTH 10 0
BBX 10 16 3 0
BITMAP
1000
3800
0C00
0000
C1C0
C380
C300
6600
6E00
7C00
3800
3000
3000
7000
6000
6000
ENDCHAR
STARTCHAR 1EF3
ENCODING 7923
SWIDTH 480 0
DWIDTH 8 0
BBX 11 16 -1 -3
BITMAP
0600
0700
0380
0000
1860
18C0
18C0
1980
1980
0980
0F00
0E00
0E00
0C00
7800
F000
ENDCHAR
STARTCHAR 1F00
ENCODING 7936
SWIDTH 540 0
DWIDTH 9 0
BBX 8 13 2 0
BITMAP
06
06
0C
00
1F
7F
63
C6
C6
C6
C6
FF
FE
ENDCHAR
STARTCHAR 1F01
ENCODING 7937
SWIDTH 540 0
DWIDTH 9 0
BBX 8 13 2 0
BITMAP
0C
08
04
00
1F
7F
63
C6
C6
C6
C6
FF
FE
ENDCHAR
STARTCHAR 1F02
ENCODING 7938
SWIDTH 540 0
DWIDTH 9 0
BBX 8 13 2 0
BITMAP
1A
1B
31
00
1F
7F
63
C6
C6
C6
C6
FF
FE
ENDCHAR
STARTCHAR 1F03
ENCODING 7939
SWIDTH 540 0
DWIDTH 9 0
BBX 8 13 2 0
BITMAP
36
36
12
00
1F
7F
63
C6
C6
C6
C6
FF
FE
ENDCHAR
STARTCHAR 1F04
ENCODING 7940
SWIDTH 540 0
DWIDTH 9 0
BBX 9 13 2 0
BITMAP
0D80
0D00
1A00
0000
1F00
7F00
6300
C600
C600
C600
C600
FF00
FE00
ENDCHAR
STARTCHAR 1F05
ENCODING 7941
SWIDTH 540 0
DWIDTH 9 0
BBX 9 13 2 0
BITMAP
1980
1300
1E00
0000
1F00
7F00
6300
C600
C600
C600
C600
FF00
FE00
ENDCHAR
STARTCHAR 1F06
ENCODING 7942
SWIDTH 540 0
DWIDTH 9 0
BBX 8 15 2 0
BITMAP
07
09
04
06
04
00
1F
7F
63
C6
C6
C6
C6
FF
FE
ENDCHAR
STARTCHAR 1F07
ENCODING 7943
SWIDTH 540 0
DWIDTH 9 0
BBX 8 15 2 0
BITMAP
0F
09
04
04
04
00
1F
7F
63
C6
C6
C6
C6
FF
FE
ENDCHAR
STARTCHAR 1F08
ENCODING 7944
SWIDTH 660 0
DWIDTH 11 0
BBX 11 12 0 0
BITMAP
1980
1980
1BC0
16C0
06C0
0CC0
18C0
18C0
3FE0
3060
6060
E060
ENDCHAR
STARTCHAR 1F09
ENCODING 7945
SWIDTH 660 0
DWIDTH 11 0
BBX 11 12 0 0
BITMAP
1180
3980
13C0
06C0
06C0
0CC0
18C0
18C0
3FE0
3060
6060
E060
ENDCHAR
STARTCHAR 1F0A
ENCODING 7946
SWIDTH 840 0
DWIDTH 14 0
BBX 12 12 2 0
BITMAP
C0C0
D9C0
C9C0
8B60
0660
0660
0C60
0C60
1FE0
3860
3070
6030
ENDCHAR
STARTCHAR 1F0B
ENCODING 7947
SWIDTH 840 0
DWIDTH 14 0
BBX 12 12 2 0
BITMAP
D0C0
D9C0
99C0
4B60
0660
0660
0C60
1C60
1FE0
3060
3060
6070
ENDCHAR
STARTCHAR 1F0C
ENCODING 7948
SWIDTH 780 0
DWIDTH 13 0
BBX 11 12 2 0
BITMAP
C980
D980
D3C0
86C0
06C0
0CC0
18C0
18C0
3FC0
3060
6060
E060
ENDCHAR
STARTCHAR 1F0D
ENCODING 7949
SWIDTH 780 0
DWIDTH 13 0
BBX 11 12 2 0
BITMAP
8980
DB80
9380
66C0
0CC0
0CC0
18C0
18C0
3FC0
70C0
60E0
C060
ENDCHAR
STARTCHAR 1F0E
ENCODING 7950
SWIDTH 660 0
DWIDTH 11 0
BBX 11 13 0 0
BITMAP
3800
6580
1180
13C0
26C0
06C0
0CC0
18C0
18C0
3FE0
3060
6060
E060
ENDCHAR
STARTCHAR 1F0F
ENCODING 7951
SWIDTH 660 0
DWIDTH 11 0
BBX 11 13 0 0
BITMAP
3800
4580
1180
33C0
16C0
06C0
0CC0
18C0
18C0
3FE0
3060
6060
E060
ENDCHAR
STARTCHAR 1F10
ENCODING 7952
SWIDTH 480 0
DWIDTH 8 0
BBX 8 13 1 0
BITMAP
06
02
04
00
1F
3E
60
60
3C
60
C0
E6
7E
ENDCHAR
STARTCHAR 1F11
ENCODING 7953
SWIDTH 480 0
DWIDTH 8 0
BBX 8 13 1 0
BITMAP
06
04
06
00
1F
3E
60
60
3C
60
C0
E6
7E
ENDCHAR
STARTCHAR 1F12
ENCODING 7954
SWIDTH 480 0
DWIDTH 8 0
BBX 9 13 1 0
BITMAP
1F00
0900
1180
0000
1F00
3E00
6000
6000
3C00
6000
C000
E600
7E00
ENDCHAR
STARTCHAR 1F13
ENCODING 7955
SWIDTH 480 0
DWIDTH 8 0
BBX 8 13 1 0
BITMAP
1E
12
13
00
1F
3E
60
60
3C
60
C0
E6
7E
ENDCHAR
STARTCHAR 1F14
ENCODING 7956
SWIDTH 480 0
DWIDTH 8 0
BBX 9 13 1 0
BITMAP
0D80
0D00
1B00
0000
1F00
3E00
6000
6000
3C00
6000
C000
E600
7E00
ENDCHAR
STARTCHAR 1F15
ENCODING 7957
SWIDTH 480 0
DWIDTH 8 0
BBX 9 13 1 0
BITMAP
1980
1B00
0A00
0000
1F00
3E00
6000
6000
3C00
6000
C000
E600
7E00
ENDCHAR
STARTCHAR 1F18
ENCODING 7960
SWIDTH 660 0
DWIDTH 11 0
BBX 11 12 2 0
BITMAP
DFE0
DFC0
D800
9800
3800
3F80
3F80
3000
3000
6000
7F80
7F00
ENDCHAR
STARTCHAR 1F19
ENCODING 7961
SWIDTH 660 0
DWIDTH 11 0
BBX 11 12 2 0
BITMAP
CFE0
DFC0
9800
5800
1800
3F80
3F80
3000
3000
6000
7F80
7F00
ENDCHAR
STARTCHAR 1F1A
ENCODING 7962
SWIDTH 840 0
DWIDTH 14 0
BBX 14 12 2 0
BITMAP
C1FC
DBFC
CB00
8B00
0300
03F0
07F0
0600
0600
0600
0FF0
0FF0
ENDCHAR
STARTCHAR 1F1B
ENCODING 7963
SWIDTH 840 0
DWIDTH 14 0
BBX 14 12 2 0
BITMAP
D1FC
DBFC
9B00
4B00
0300
03F0
07F0
0600
0600
0600
0FF0
0FF0
ENDCHAR
STARTCHAR 1F1C
ENCODING 7964
SWIDTH 840 0
DWIDTH 14 0
BBX 14 12 2 0
BITMAP
C9FC
CBFC
D300
9300
0300
03F0
07F0
0600
0600
0600
0FF0
0FF0
ENDCHAR
STARTCHAR 1F1D
ENCODING 7965
SWIDTH 840 0
DWIDTH 14 0
BBX 14 12 2 0
BITMAP
C9FC
CDFC
9B00
5300
0300
03F0
07F0
0600
0600
0600
0FF0
0FF0
ENDCHAR
STARTCHAR 1F20
ENCODING 7968
SWIDTH 540 0
DWIDTH 9 0
BBX 9 16 1 -3
BITMAP
0300
0200
0600
0000
1E00
3F00
3380
3180
6300
6300
6300
6300
C600
0600
0600
0600
ENDCHAR
STARTCHAR 1F21
ENCODING 7969
SWIDTH 540 0
DWIDTH 9 0
BBX 9 16 1 -3
BITMAP
0600
0400
0200
0000
1E00
3F00
3380
3180
6300
6300
6300
6300
C600
0600
0600
0600
ENDCHAR
STARTCHAR 1F22
ENCODING 7970
SWIDTH 540 0
DWIDTH 9 0
BBX 9 16 1 -3
BITMAP
0D00
0D80
1880
0000
1E00
3F00
3380
3180
6300
6300
6300
6300
C600
0600
0600
0600
ENDCHAR
STARTCHAR 1F23
ENCODING 7971
SWIDTH 540 0
DWIDTH 9 0
BBX 9 16 1 -3
BITMAP
1B00
1B00
0900
0000
1E00
3F00
3380
3180
6300
6300
6300
6300
C600
0600
0600
0600
ENDCHAR
STARTCHAR 1F24
ENCODING 7972
SWIDTH 540 0
DWIDTH 9 0
BBX 10 16 1 -3
BITMAP
0CC0
0580
0B00
0000
1E00
3F00
3380
3180
6300
6300
6300
6300
C600
0600
0600
0600
ENDCHAR
STARTCHAR 1F25
ENCODING 7973
SWIDTH 540 0
DWIDTH 9 0
BBX 9 16 1 -3
BITMAP
0C80
0980
0B00
0000
1E00
3F00
3380
3180
6300
6300
6300
6300
C600
0600
0600
0600
ENDCHAR
STARTCHAR 1F26
ENCODING 7974
SWIDTH 540 0
DWIDTH 9 0
BBX 9 18 1 -3
BITMAP
0780
0C80
0200
0200
0600
0000
1E00
3F00
3380
3180
6300
6300
6300
6300
C600
0600
0600
0600
ENDCHAR
STARTCHAR 1F27
ENCODING 7975
SWIDTH 540 0
DWIDTH 9 0
BBX 9 18 1 -3
BITMAP
0700
0D80
0200
0600
0200
0000
1E00
3F00
3380
3180
6300
6300
6300
6300
C600
0600
0600
0600
ENDCHAR
STARTCHAR 1F28
ENCODING 7976
SWIDTH 780 0
DWIDTH 13 0
BBX 12 12 2 0
BITMAP
DC30
D830
D830
9830
1860
3FE0
3FE0
3060
30C0
60C0
60C0
60C0
ENDCHAR
STARTCHAR 1F29
ENCODING 7977
SWIDTH 780 0
DWIDTH 13 0
BBX 12 12 2 0
BITMAP
CC30
D830
9830
5830
1870
3FE0
3FE0
3060
30E0
60C0
60C0
60C0
ENDCHAR
STARTCHAR 1F2A
ENCODING 7978
SWIDTH 960 0
DWIDTH 16 0
BBX 16 12 2 0
BITMAP
C183
D987
CB06
8B06
0306
03FE
07FC
060C
060C
060C
0E18
0C18
ENDCHAR
STARTCHAR 1F2B
ENCODING 7979
SWIDTH 960 0
DWIDTH 16 0
BBX 16 12 2 0
BITMAP
D183
D986
9B06
4B06
0306
03FE
07FC
060C
060C
061C
0C18
0C18
ENDCHAR
STARTCHAR 1F2C
ENCODING 7980
SWIDTH 960 0
DWIDTH 16 0
BBX 16 12 2 0
BITMAP
C983
CB86
D306
9306
0306
07FC
07FC
060C
060C
0618
0C18
0C18
ENDCHAR
STARTCHAR 1F2D
ENCODING 7981
SWIDTH 960 0
DWIDTH 16 0
BBX 16 12 2 0
BITMAP
C983
CD86
9B06
5306
0306
03FE
07FC
060C
060C
061C
0C18
0C18
ENDCHAR
STARTCHAR 1F2E
ENCODING 7982
SWIDTH 900 0
DWIDTH 15 0
BBX 15 13 2 0
BITMAP
7000
9B06
270C
660C
460C
060C
0FF8
0FF8
0C18
0C18
0C30
1830
1830
ENDCHAR
STARTCHAR 1F2F
ENCODING 7983
SWIDTH 900 0
DWIDTH 15 0
BBX 15 13 2 0
BITMAP
7000
9B06
270C
660C
260C
060C
07F8
0FF8
0C18
0C18
0C38
1830
1830
ENDCHAR
STARTCHAR 1F30
ENCODING 7984
SWIDTH 300 0
DWIDTH 5 0
BBX 4 13 2 0
BITMAP
30
10
20
00
60
60
60
60
C0
C0
C0
C0
E0
ENDCHAR
STARTCHAR 1F31
ENCODING 7985
SWIDTH 300 0
DWIDTH 5 0
BBX 4 13 2 0
BITMAP
30
20
30
00
60
60
60
60
C0
C0
C0
C0
E0
ENDCHAR
STARTCHAR 1F32
ENCODING 7986
SWIDTH 300 0
DWIDTH 5 0
BBX 6 13 2 0
BITMAP
78
48
CC
00
60
60
60
60
C0
C0
C0
C0
E0
ENDCHAR
STARTCHAR 1F33
ENCODING 7987
SWIDTH 300 0
DWIDTH 5 0
BBX 5 13 2 0
BITMAP
F0
90
D8
00
60
60
60
60
C0
C0
C0
C0
E0
ENDCHAR
STARTCHAR 1F34
ENCODING 7988
SWIDTH 300 0
DWIDTH 5 0
BBX 6 13 2 0
BITMAP
64
6C
58
00
60
60
60
60
C0
C0
C0
C0
E0
ENDCHAR
STARTCHAR 1F35
ENCODING 7989
SWIDTH 300 0
DWIDTH 5 0
BBX 6 13 2 0
BITMAP
CC
C8
58
00
60
60
60
60
C0
C0
C0
C0
E0
ENDCHAR
STARTCHAR 1F36
ENCODING 7990
SWIDTH 300 0
DWIDTH 5 0
BBX 6 15 2 0
BITMAP
38
4C
10
30
20
00
60
60
60
60
C0
C0
C0
C0
E0
ENDCHAR
STARTCHAR 1F37
ENCODING 7991
SWIDTH 300 0
DWIDTH 5 0
BBX 5 15 2 0
BITMAP
38
48
30
30
30
00
60
60
60
60
C0
C0
C0
C0
E0
ENDCHAR
STARTCHAR 1F38
ENCODING 7992
SWIDTH 360 0
DWIDTH 6 0
BBX 6 12 2 0
BITMAP
DC
D8
D8
98
18
30
30
30
30
60
60
60
ENDCHAR
STARTCHAR 1F39
ENCODING 7993
SWIDTH 360 0
DWIDTH 6 0
BBX 6 12 2 0
BITMAP
CC
D8
98
58
18
30
30
30
30
60
60
60
ENDCHAR
STARTCHAR 1F3A
ENCODING 7994
SWIDTH 540 0
DWIDTH 9 0
BBX 9 12 2 0
BITMAP
C180
DB80
CB00
8B00
0300
0300
0600
0600
0600
0600
0C00
0C00
ENDCHAR
STARTCHAR 1F3B
ENCODING 7995
SWIDTH 540 0
DWIDTH 9 0
BBX 9 12 2 0
BITMAP
D180
DB80
9B00
4B00
0300
0300
0600
0600
0600
0600
0C00
0C00
ENDCHAR
STARTCHAR 1F3C
ENCODING 7996
SWIDTH 540 0
DWIDTH 9 0
BBX 9 12 2 0
BITMAP
C980
CB80
D300
9300
0300
0300
0600
0600
0600
0600
0C00
0C00
ENDCHAR
STARTCHAR 1F3D
ENCODING 7997
SWIDTH 540 0
DWIDTH 9 0
BBX 9 12 2 0
BITMAP
C980
CD80
9B00
5300
0300
0300
0600
0600
0600
0600
0C00
0C00
ENDCHAR
STARTCHAR 1F3E
ENCODING 7998
SWIDTH 480 0
DWIDTH 8 0
BBX 8 13 2 0
BITMAP
70
9B
26
66
46
06
0E
0C
0C
0C
1C
18
18
ENDCHAR
STARTCHAR 1F3F
ENCODING 7999
SWIDTH 480 0
DWIDTH 8 0
BBX 8 13 2 0
BITMAP
70
9B
27
66
26
06
0E
0C
0C
0C
0C
18
18
ENDCHAR
STARTCHAR 1F40
ENCODING 8000
SWIDTH 540 0
DWIDTH 9 0
BBX 8 13 2 0
BITMAP
06
04
0C
00
1C
7E
63
C3
C3
C6
C6
FC
78
ENDCHAR
STARTCHAR 1F41
ENCODING 8001
SWIDTH 540 0
DWIDTH 9 0
BBX 8 13 2 0
BITMAP
0C
0C
04
00
1C
7E
63
C3
C3
C6
C6
FC
78
ENDCHAR
STARTCHAR 1F42
ENCODING 8002
SWIDTH 540 0
DWIDTH 9 0
BBX 8 13 2 0
BITMAP
1A
1B
31
00
1C
7E
63
C3
C3
C6
C6
FC
78
ENDCHAR
STARTCHAR 1F43
ENCODING 8003
SWIDTH 540 0
DWIDTH 9 0
BBX 8 13 2 0
BITMAP
36
36
12
00
1C
7E
63
C3
C3
C6
C6
FC
78
ENDCHAR
STARTCHAR 1F44
ENCODING 8004
SWIDTH 540 0
DWIDTH 9 0
BBX 9 13 2 0
BITMAP
1980
0B00
1600
0000
1C00
7E00
6300
C300
C300
C600
C600
FC00
7800
ENDCHAR
STARTCHAR 1F45
ENCODING 8005
SWIDTH 540 0
DWIDTH 9 0
BBX 9 13 2 0
BITMAP
1980
1300
1E00
0000
1C00
7E00
6300
C300
C300
C600
C600
FC00
7800
ENDCHAR
STARTCHAR 1F48
ENCODING 8008
SWIDTH 780 0
DWIDTH 13 0
BBX 12 12 2 0
BITMAP
C3C0
CFE0
DC70
B830
3030
7030
6030
6070
6060
70E0
3FC0
1F80
ENDCHAR
STARTCHAR 1F49
ENCODING 8009
SWIDTH 840 0
DWIDTH 14 0
BBX 13 12 2 0
BITMAP
C3C0
C7F0
8C30
5838
3818
3018
3038
3030
3030
3060
1FE0
0F80
ENDCHAR
STARTCHAR 1F4A
ENCODING 8010
SWIDTH 1020 0
DWIDTH 17 0
BBX 16 12 2 0
BITMAP
C03C
D8FE
C9C7
8B83
0303
0703
0603
0607
0606
070E
03FC
01F8
ENDCHAR
STARTCHAR 1F4B
ENCODING 8011
SWIDTH 1020 0
DWIDTH 17 0
BBX 16 12 2 0
BITMAP
D038
D8FE
99C7
4B03
0303
0603
0603
0607
0606
070E
03FC
01F0
ENDCHAR
STARTCHAR 1F4C
ENCODING 8012
SWIDTH 1020 0
DWIDTH 17 0
BBX 15 12 2 0
BITMAP
C878
C9FC
D38E
9706
0606
0E06
0C06
0C06
0C0C
0E1C
07F8
03F0
ENDCHAR
STARTCHAR 1F4D
ENCODING 8013
SWIDTH 1020 0
DWIDTH 17 0
BBX 15 12 2 0
BITMAP
C878
CDFC
9B8E
5706
0606
0E06
0C06
0C06
0C0C
0E1C
07F8
03F0
ENDCHAR
STARTCHAR 1F50
ENCODING 8016
SWIDTH 540 0
DWIDTH 9 0
BBX 8 13 2 0
BITMAP
06
06
0C
00
63
63
63
C6
C6
C6
C6
FC
78
ENDCHAR
STARTCHAR 1F51
ENCODING 8017
SWIDTH 540 0
DWIDTH 9 0
BBX 8 13 2 0
BITMAP
0C
08
04
00
63
63
63
C6
C6
C6
C6
FC
78
ENDCHAR
STARTCHAR 1F52
ENCODING 8018
SWIDTH 540 0
DWIDTH 9 0
BBX 8 13 2 0
BITMAP
1A
1B
11
00
63
63
63
C6
C6
C6
C6
FC
78
ENDCHAR
STARTCHAR 1F53
ENCODING 8019
SWIDTH 540 0
DWIDTH 9 0
BBX 8 13 2 0
BITMAP
34
36
12
00
63
63
63
C6
C6
C6
C6
FC
78
ENDCHAR
STARTCHAR 1F54
ENCODING 8020
SWIDTH 540 0
DWIDTH 9 0
BBX 9 13 2 0
BITMAP
1980
0B00
1600
0000
6300
6300
6300
C600
C600
C600
C600
FC00
7800
ENDCHAR
STARTCHAR 1F55
ENCODING 8021
SWIDTH 540 0
DWIDTH 9 0
BBX 8 13 2 0
BITMAP
19
13
16
00
63
63
63
C6
C6
C6
C6
FC
78
ENDCHAR
STARTCHAR 1F56
ENCODING 8022
SWIDTH 540 0
DWIDTH 9 0
BBX 8 15 2 0
BITMAP
0F
19
04
04
0C
00
63
63
63
C6
C6
C6
C6
FC
78
ENDCHAR
STARTCHAR 1F57
ENCODING 8023
SWIDTH 540 0
DWIDTH 9 0
BBX 8 15 2 0
BITMAP
0E
1B
04
0C
04
00
63
63
63
C6
C6
C6
C6
FC
78
ENDCHAR
STARTCHAR 1F59
ENCODING 8025
SWIDTH 720 0
DWIDTH 12 0
BBX 13 12 2 0
BITMAP
D838
D830
9860
4CC0
0DC0
0F80
0700
0600
0600
0E00
0C00
0C00
ENDCHAR
STARTCHAR 1F5B
ENCODING 8027
SWIDTH 900 0
DWIDTH 15 0
BBX 15 12 2 0
BITMAP
D306
DB0E
9B0C
4B98
01B0
01F0
00E0
00C0
00C0
0180
0180
0180
ENDCHAR
STARTCHAR 1F5D
ENCODING 8029
SWIDTH 960 0
DWIDTH 16 0
BBX 16 12 2 0
BITMAP
C983
CD87
9986
51CC
00D8
00F8
00F0
0060
0060
00C0
00C0
00C0
ENDCHAR
STARTCHAR 1F5F
ENCODING 8031
SWIDTH 900 0
DWIDTH 15 0
BBX 15 13 2 0
BITMAP
7000
9F06
230E
630C
2318
01B0
01E0
01E0
00C0
01C0
0180
0180
0180
ENDCHAR
STARTCHAR 1F60
ENCODING 8032
SWIDTH 840 0
DWIDTH 14 0
BBX 12 13 2 0
BITMAP
0180
0180
0300
0000
2020
7030
6630
C630
C630
C630
CE60
FFE0
7BC0
ENDCHAR
STARTCHAR 1F61
ENCODING 8033
SWIDTH 840 0
DWIDTH 14 0
BBX 12 13 2 0
BITMAP
0300
0200
0100
0000
2020
7030
6630
C630
C630
C630
CE60
FFE0
7BC0
ENDCHAR
STARTCHAR 1F62
ENCODING 8034
SWIDTH 840 0
DWIDTH 14 0
BBX 12 13 2 0
BITMAP
0680
06C0
0C40
0000
2020
7030
6630
C630
C630
C630
CE60
FFE0
7BC0
ENDCHAR
STARTCHAR 1F63
ENCODING 8035
SWIDTH 840 0
DWIDTH 14 0
BBX 12 13 2 0
BITMAP
0D80
0C80
0480
0000
2020
7030
6630
C630
C630
C630
CE60
FFE0
7BC0
ENDCHAR
STARTCHAR 1F64
ENCODING 8036
SWIDTH 840 0
DWIDTH 14 0
BBX 12 13 2 0
BITMAP
0760
02C0
0480
0000
2020
7030
6630
C630
C630
C630
CE60
FFE0
7BC0
ENDCHAR
STARTCHAR 1F65
ENCODING 8037
SWIDTH 840 0
DWIDTH 14 0
BBX 12 13 2 0
BITMAP
0660
04C0
0780
0000
2020
7030
6630
C630
C630
C630
CE60
FFE0
7BC0
ENDCHAR
STARTCHAR 1F66
ENCODING 8038
SWIDTH 840 0
DWIDTH 14 0
BBX 12 15 2 0
BITMAP
03C0
0240
0100
0180
0100
0000
2020
7030
6630
C630
C630
C630
CE60
FFE0
7BC0
ENDCHAR
STARTCHAR 1F67
ENCODING 8039
SWIDTH 840 0
DWIDTH 14 0
BBX 12 15 2 0
BITMAP
0380
0640
0100
0300
0100
0000
2020
7030
6630
C630
C630
C630
CE60
FFE0
7BC0
ENDCHAR
STARTCHAR 1F68
ENCODING 8040
SWIDTH 840 0
DWIDTH 14 0
BBX 12 12 2 0
BITMAP
C3C0
CFE0
DC70
B830
3030
3030
7030
3030
3060
30C0
F9E0
F9E0
ENDCHAR
STARTCHAR 1F69
ENCODING 8041
SWIDTH 900 0
DWIDTH 15 0
BBX 13 12 2 0
BITMAP
C3C0
CFF0
9C38
5818
3818
3018
3018
3030
3070
1860
79F0
79F0
ENDCHAR
STARTCHAR 1F6A
ENCODING 8042
SWIDTH 1080 0
DWIDTH 18 0
BBX 16 12 2 0
BITMAP
C03C
D8FE
C9C7
8B03
0303
0703
0603
0607
0306
030C
0F9E
0F3E
ENDCHAR
STARTCHAR 1F6B
ENCODING 8043
SWIDTH 1080 0
DWIDTH 18 0
BBX 16 12 2 0
BITMAP
D03C
D8FE
9987
4B03
0703
0603
0603
0606
0606
030C
0F9E
0F3E
ENDCHAR
STARTCHAR 1F6C
ENCODING 8044
SWIDTH 1020 0
DWIDTH 17 0
BBX 15 12 2 0
BITMAP
C878
C9FC
D38E
9606
0606
0E06
0C06
0C0E
060C
0618
1F3C
1F7C
ENDCHAR
STARTCHAR 1F6D
ENCODING 8045
SWIDTH 1020 0
DWIDTH 17 0
BBX 15 12 2 0
BITMAP
C878
CDFC
9B8E
5706
0606
0E06
0C06
0C0E
060C
0618
1F3C
1F3C
ENDCHAR
STARTCHAR 1F6E
ENCODING 8046
SWIDTH 960 0
DWIDTH 16 0
BBX 14 13 2 0
BITMAP
7000
99E0
27F8
6E1C
4C0C
1C0C
180C
180C
1818
1838
0C30
3CF8
3CF8
ENDCHAR
STARTCHAR 1F6F
ENCODING 8047
SWIDTH 960 0
DWIDTH 16 0
BBX 14 13 2 0
BITMAP
7000
98F0
23F8
671C
2C0C
0C0C
1C0C
180C
181C
0C18
0C30
3E78
3CF8
ENDCHAR
STARTCHAR 1F70
ENCODING 8048
SWIDTH 540 0
DWIDTH 9 0
BBX 8 13 2 0
BITMAP
08
0C
06
00
1F
7F
63
C6
C6
C6
C6
FF
FE
ENDCHAR
STARTCHAR 1F71
ENCODING 8049
SWIDTH 540 0
DWIDTH 9 0
BBX 8 13 2 0
BITMAP
02
06
0C
00
1F
7F
63
C6
C6
C6
C6
FF
FE
ENDCHAR
STARTCHAR 1F72
ENCODING 8050
SWIDTH 480 0
DWIDTH 8 0
BBX 8 13 1 0
BITMAP
04
0E
03
00
1F
3E
60
60
3C
60
C0
E6
7E
ENDCHAR
STARTCHAR 1F73
ENCODING 8051
SWIDTH 480 0
DWIDTH 8 0
BBX 8 13 1 0
BITMAP
02
06
0C
00
1F
3E
60
60
3C
60
C0
E6
7E
ENDCHAR
STARTCHAR 1F74
ENCODING 8052
SWIDTH 540 0
DWIDTH 9 0
BBX 9 16 1 -3
BITMAP
0400
0600
0300
0000
1E00
3F00
3380
3180
6300
6300
6300
6300
C600
0600
0600
0600
ENDCHAR
STARTCHAR 1F75
ENCODING 8053
SWIDTH 540 0
DWIDTH 9 0
BBX 9 16 1 -3
BITMAP
0100
0300
0600
0000
1E00
3F00
3380
3180
6300
6300
6300
6300
C600
0600
0600
0600
ENDCHAR
STARTCHAR 1F76
ENCODING 8054
SWIDTH 300 0
DWIDTH 5 0
BBX 5 13 2 0
BITMAP
20
70
18
00
60
60
60
60
C0
C0
C0
C0
E0
ENDCHAR
STARTCHAR 1F77
ENCODING 8055
SWIDTH 300 0
DWIDTH 5 0
BBX 4 13 2 0
BITMAP
10
30
60
00
60
60
60
60
C0
C0
C0
C0
E0
ENDCHAR
STARTCHAR 1F78
ENCODING 8056
SWIDTH 540 0
DWIDTH 9 0
BBX 8 13 2 0
BITMAP
08
0C
06
00
1C
7E
63
C3
C3
C6
C6
FC
78
ENDCHAR
STARTCHAR 1F79
ENCODING 8057
SWIDTH 540 0
DWIDTH 9 0
BBX 8 13 2 0
BITMAP
02
06
0C
00
1C
7E
63
C3
C3
C6
C6
FC
78
ENDCHAR
STARTCHAR 1F7A
ENCODING 8058
SWIDTH 540 0
DWIDTH 9 0
BBX 8 13 2 0
BITMAP
08
0C
06
00
63
63
63
C6
C6
C6
C6
FC
78
ENDCHAR
STARTCHAR 1F7B
ENCODING 8059
SWIDTH 540 0
DWIDTH 9 0
BBX 8 13 2 0
BITMAP
02
06
0C
00
63
63
63
C6
C6
C6
C6
FC
78
ENDCHAR
STARTCHAR 1F7C
ENCODING 8060
SWIDTH 840 0
DWIDTH 14 0
BBX 12 13 2 0
BITMAP
0200
0300
0180
0000
2020
7030
6630
C630
C630
C630
CE60
FFE0
7BC0
ENDCHAR
STARTCHAR 1F7D
ENCODING 8061
SWIDTH 840 0
DWIDTH 14 0
BBX 12 13 2 0
BITMAP
0080
0180
0300
0000
2020
7030
6630
C630
C630
C630
CE60
FFE0
7BC0
ENDCHAR
STARTCHAR 1F80
ENCODING 8064
SWIDTH 540 0
DWIDTH 9 0
BBX 8 16 2 -3
BITMAP
06
02
04
00
1F
7F
63
C6
C6
C6
C6
FF
FE
00
60
70
ENDCHAR
STARTCHAR 1F81
ENCODING 8065
SWIDTH 540 0
DWIDTH 9 0
BBX 8 16 2 -3
BITMAP
0C
08
04
00
1F
7F
63
C6
C6
C6
C6
FF
FE
00
60
70
ENDCHAR
STARTCHAR 1F82
ENCODING 8066
SWIDTH 540 0
DWIDTH 9 0
BBX 8 16 2 -3
BITMAP
1A
1B
31
00
1F
7F
63
C6
C6
C6
C6
FF
FE
00
60
70
ENDCHAR
STARTCHAR 1F83
ENCODING 8067
SWIDTH 540 0
DWIDTH 9 0
BBX 8 16 2 -3
BITMAP
36
36
12
00
1F
7F
63
C6
C6
C6
C6
FF
FE
00
60
70
ENDCHAR
STARTCHAR 1F84
ENCODING 8068
SWIDTH 540 0
DWIDTH 9 0
BBX 9 16 2 -3
BITMAP
0D80
0D00
1A00
0000
1F00
7F00
6300
C600
C600
C600
C600
FF00
FE00
0000
6000
7000
ENDCHAR
STARTCHAR 1F85
ENCODING 8069
SWIDTH 540 0
DWIDTH 9 0
BBX 9 16 2 -3
BITMAP
1980
1300
1E00
0000
1F00
7F00
6300
C600
C600
C600
C600
FF00
FE00
0000
6000
7000
ENDCHAR
STARTCHAR 1F86
ENCODING 8070
SWIDTH 540 0
DWIDTH 9 0
BBX 8 18 2 -3
BITMAP
07
09
04
06
04
00
1F
7F
63
C6
C6
C6
C6
FF
FE
00
60
70
ENDCHAR
STARTCHAR 1F87
ENCODING 8071
SWIDTH 540 0
DWIDTH 9 0
BBX 8 18 2 -3
BITMAP
0F
09
04
04
04
00
1F
7F
63
C6
C6
C6
C6
FF
FE
00
60
70
ENDCHAR
STARTCHAR 1F88
ENCODING 8072
SWIDTH 960 0
DWIDTH 16 0
BBX 16 12 0 0
BITMAP
1980
1980
1BC0
16C3
06C3
0CC3
18C7
18C6
3FE6
3066
6066
E067
ENDCHAR
STARTCHAR 1F89
ENCODING 8073
SWIDTH 960 0
DWIDTH 16 0
BBX 16 12 0 0
BITMAP
1180
3980
13C0
06C3
06C3
0CC3
18C7
18C6
3FE6
3066
6066
E067
ENDCHAR
STARTCHAR 1F8A
ENCODING 8074
SWIDTH 1140 0
DWIDTH 19 0
BBX 17 12 2 0
BITMAP
C0C000
D9C000
C9C000
8B6180
066180
066180
0C6300
0C6300
1FE300
386300
307300
603300
ENDCHAR
STARTCHAR 1F8B
ENCODING 8075
SWIDTH 1140 0
DWIDTH 19 0
BBX 17 12 2 0
BITMAP
D0C000
D9C000
99C000
4B6180
066180
066300
0C6300
1C6300
1FE300
306300
306700
607300
ENDCHAR
STARTCHAR 1F8C
ENCODING 8076
SWIDTH 1080 0
DWIDTH 18 0
BBX 16 12 2 0
BITMAP
C980
D980
D3C0
86C3
06C3
0CC3
18C6
18C6
3FC6
3066
6066
E067
ENDCHAR
STARTCHAR 1F8D
ENCODING 8077
SWIDTH 1080 0
DWIDTH 18 0
BBX 16 12 2 0
BITMAP
8980
DB80
9380
66C3
0CC3
0CC3
18C6
18C6
3FC6
70C6
60E6
C066
ENDCHAR
STARTCHAR 1F8E
ENCODING 8078
SWIDTH 960 0
DWIDTH 16 0
BBX 16 13 0 0
BITMAP
3800
6580
1180
13C0
26C3
06C3
0CC3
18C7
18C6
3FE6
3066
6066
E067
ENDCHAR
STARTCHAR 1F8F
ENCODING 8079
SWIDTH 960 0
DWIDTH 16 0
BBX 16 13 0 0
BITMAP
3800
4580
1180
33C0
16C3
06C3
0CC3
18C7
18C6
3FE6
3066
6066
E067
ENDCHAR
STARTCHAR 1F90
ENCODING 8080
SWIDTH 540 0
DWIDTH 9 0
BBX 9 16 1 -3
BITMAP
0300
0200
0600
0000
1E00
3F00
3380
3180
6300
6300
6300
6300
C600
0600
C600
E600
ENDCHAR
STARTCHAR 1F91
ENCODING 8081
SWIDTH 540 0
DWIDTH 9 0
BBX 9 16 1 -3
BITMAP
0600
0400
0200
0000
1E00
3F00
3380
3180
6300
6300
6300
6300
C600
0600
C600
E600
ENDCHAR
STARTCHAR 1F92
ENCODING 8082
SWIDTH 540 0
DWIDTH 9 0
BBX 9 16 1 -3
BITMAP
0D00
0D80
1880
0000
1E00
3F00
3380
3180
6300
6300
6300
6300
C600
0600
C600
E600
ENDCHAR
STARTCHAR 1F93
ENCODING 8083
SWIDTH 540 0
DWIDTH 9 0
BBX 9 16 1 -3
BITMAP
1B00
1B00
0900
0000
1E00
3F00
3380
3180
6300
6300
6300
6300
C600
0600
C600
E600
ENDCHAR
STARTCHAR 1F94
ENCODING 8084
SWIDTH 540 0
DWIDTH 9 0
BBX 10 16 1 -3
BITMAP
0CC0
0580
0B00
0000
1E00
3F00
3380
3180
6300
6300
6300
6300
C600
0600
C600
E600
ENDCHAR
STARTCHAR 1F95
ENCODING 8085
SWIDTH 540 0
DWIDTH 9 0
BBX 9 16 1 -3
BITMAP
0C80
0980
0B00
0000
1E00
3F00
3380
3180
6300
6300
6300
6300
C600
0600
C600
E600
ENDCHAR
STARTCHAR 1F96
ENCODING 8086
SWIDTH 540 0
DWIDTH 9 0
BBX 9 18 1 -3
BITMAP
0780
0C80
0200
0200
0600
0000
1E00
3F00
3380
3180
6300
6300
6300
6300
C600
0600
C600
E600
ENDCHAR
STARTCHAR 1F97
ENCODING 8087
SWIDTH 540 0
DWIDTH 9 0
BBX 9 18 1 -3
BITMAP
0700
0D80
0200
0600
0200
0000
1E00
3F00
3380
3180
6300
6300
6300
6300
C600
0600
C600
E600
ENDCHAR
STARTCHAR 1F98
ENCODING 8088
SWIDTH 1080 0
DWIDTH 18 0
BBX 16 12 2 0
BITMAP
DC30
D830
D830
9833
1863
3FE3
3FE3
3066
30E6
60C6
60C6
60C7
ENDCHAR
STARTCHAR 1F99
ENCODING 8089
SWIDTH 1080 0
DWIDTH 18 0
BBX 16 12 2 0
BITMAP
CC30
D830
9830
5833
1863
3FE3
3FE3
3066
30E6
60C6
60C6
60C7
ENDCHAR
STARTCHAR 1F9A
ENCODING 8090
SWIDTH 1260 0
DWIDTH 21 0
BBX 20 12 2 0
BITMAP
C18300
D98700
CB0600
8B0630
030660
03FE60
07FC60
060C60
060CC0
060CC0
0E18E0
0C1860
ENDCHAR
STARTCHAR 1F9B
ENCODING 8091
SWIDTH 1260 0
DWIDTH 21 0
BBX 20 12 2 0
BITMAP
D18300
D98600
9B0600
4B0630
030660
03FE60
07FC60
060C60
060CC0
061CC0
0C18E0
0C1860
ENDCHAR
STARTCHAR 1F9C
ENCODING 8092
SWIDTH 1260 0
DWIDTH 21 0
BBX 19 12 2 0
BITMAP
C98600
CB0600
D30600
930660
030C60
07FC60
07FC60
060CC0
061CC0
0C18C0
0C18C0
0C18E0
ENDCHAR
STARTCHAR 1F9D
ENCODING 8093
SWIDTH 1260 0
DWIDTH 21 0
BBX 19 12 2 0
BITMAP
C98700
CF0600
9B0600
530660
030660
07FC60
07FC60
060CC0
060CC0
0E18C0
0C18C0
0C18E0
ENDCHAR
STARTCHAR 1F9E
ENCODING 8094
SWIDTH 1200 0
DWIDTH 20 0
BBX 18 13 2 0
BITMAP
700000
9B0E00
260C00
660C00
460CC0
061CC0
0FF8C0
0FF8C0
0C1980
0C1980
1C3180
183180
1831C0
ENDCHAR
STARTCHAR 1F9F
ENCODING 8095
SWIDTH 1200 0
DWIDTH 20 0
BBX 18 13 2 0
BITMAP
700000
9B0E00
260C00
660C00
260CC0
061CC0
0FF8C0
0FF8C0
0C1980
0C1980
1C3180
183180
1831C0
ENDCHAR
STARTCHAR 1FA0
ENCODING 8096
SWIDTH 840 0
DWIDTH 14 0
BBX 12 16 2 -3
BITMAP
0180
0180
0300
0000
2020
7030
6630
C630
C630
C630
CE60
FFE0
7BC0
0000
0C00
0E00
ENDCHAR
STARTCHAR 1FA1
ENCODING 8097
SWIDTH 840 0
DWIDTH 14 0
BBX 12 16 2 -3
BITMAP
0300
0200
0100
0000
2020
7030
6630
C630
C630
C630
CE60
FFE0
7BC0
0000
0C00
0E00
ENDCHAR
STARTCHAR 1FA2
ENCODING 8098
SWIDTH 840 0
DWIDTH 14 0
BBX 12 16 2 -3
BITMAP
0680
06C0
0C40
0000
2020
7030
6630
C630
C630
C630
CE60
FFE0
7BC0
0000
0C00
0E00
ENDCHAR
STARTCHAR 1FA3
ENCODING 8099
SWIDTH 840 0
DWIDTH 14 0
BBX 12 16 2 -3
BITMAP
0D80
0C80
0480
0000
2020
7030
6630
C630
C630
C630
CE60
FFE0
7BC0
0000
0C00
0E00
ENDCHAR
STARTCHAR 1FA4
ENCODING 8100
SWIDTH 840 0
DWIDTH 14 0
BBX 12 16 2 -3
BITMAP
0760
02C0
0480
0000
2020
7030
6630
C630
C630
C630
CE60
FFE0
7BC0
0000
0C00
0E00
ENDCHAR
STARTCHAR 1FA5
ENCODING 8101
SWIDTH 840 0
DWIDTH 14 0
BBX 12 16 2 -3
BITMAP
0660
04C0
0780
0000
2020
7030
6630
C630
C630
C630
CE60
FFE0
7BC0
0000
0C00
0E00
ENDCHAR
STARTCHAR 1FA6
ENCODING 8102
SWIDTH 840 0
DWIDTH 14 0
BBX 12 18 2 -3
BITMAP
03C0
0240
0100
0100
0300
0000
2020
7030
6630
C630
C630
C630
CE60
FFE0
7BC0
0000
0C00
0E00
ENDCHAR
STARTCHAR 1FA7
ENCODING 8103
SWIDTH 840 0
DWIDTH 14 0
BBX 12 18 2 -3
BITMAP
0380
0640
0100
0300
0100
0000
2020
7030
6630
C630
C630
C630
CE60
FFE0
7BC0
0000
0C00
0E00
ENDCHAR
STARTCHAR 1FA8
ENCODING 8104
SWIDTH 1140 0
DWIDTH 19 0
BBX 17 12 2 0
BITMAP
C3C000
CFE000
DC7000
B83180
303180
303180
703180
303300
306300
30C300
F9E300
F9E380
ENDCHAR
STARTCHAR 1FA9
ENCODING 8105
SWIDTH 1200 0
DWIDTH 20 0
BBX 18 12 2 0
BITMAP
C3C000
CFF000
9C3800
5818C0
3818C0
301980
301980
303180
307180
186300
79F380
79F180
ENDCHAR
STARTCHAR 1FAA
ENCODING 8106
SWIDTH 1380 0
DWIDTH 23 0
BBX 21 12 2 0
BITMAP
C03C00
D8FE00
C9C700
8B0318
030318
060318
060330
060730
030630
030C30
0F9E30
0F3E30
ENDCHAR
STARTCHAR 1FAB
ENCODING 8107
SWIDTH 1380 0
DWIDTH 23 0
BBX 21 12 2 0
BITMAP
D07C00
D8FE00
998700
4B0318
070318
060330
060330
060630
060630
030C30
0F9E70
0F3E30
ENDCHAR
STARTCHAR 1FAC
ENCODING 8108
SWIDTH 1320 0
DWIDTH 22 0
BBX 20 12 2 0
BITMAP
C87800
C9FC00
D38E00
960630
060630
0E0630
0C0660
0C0E60
060C60
061860
1F3C60
1F7C70
ENDCHAR
STARTCHAR 1FAD
ENCODING 8109
SWIDTH 1320 0
DWIDTH 22 0
BBX 20 12 2 0
BITMAP
C87800
CDFC00
9B8E00
570630
060630
0E0630
0C0660
0C0E60
060C60
061860
1F3C60
1F3C70
ENDCHAR
STARTCHAR 1FAE
ENCODING 8110
SWIDTH 1260 0
DWIDTH 21 0
BBX 19 13 2 0
BITMAP
700000
99E000
27F800
6E1C00
4C0C60
1C0C60
180CC0
180CC0
1818C0
1838C0
0C3180
3CF9C0
3CF8C0
ENDCHAR
STARTCHAR 1FAF
ENCODING 8111
SWIDTH 1260 0
DWIDTH 21 0
BBX 19 13 2 0
BITMAP
700000
98F000
23F800
671C00
2C0C60
0C0C60
180C60
180CC0
181CC0
1C18C0
0C30C0
3E78C0
3CF8C0
ENDCHAR
STARTCHAR 1FB0
ENCODING 8112
SWIDTH 540 0
DWIDTH 9 0
BBX 8 13 2 0
BITMAP
19
1B
0E
00
1F
7F
63
C6
C6
C6
C6
FF
FE
ENDCHAR
STARTCHAR 1FB1
ENCODING 8113
SWIDTH 540 0
DWIDTH 9 0
BBX 8 12 2 0
BITMAP
1F
00
00
1F
7F
63
C6
C6
C6
C6
FF
FE
ENDCHAR
STARTCHAR 1FB2
ENCODING 8114
SWIDTH 540 0
DWIDTH 9 0
BBX 8 16 2 -3
BITMAP
08
0C
06
00
1F
7F
63
C6
C6
C6
C6
FF
FE
00
60
30
ENDCHAR
STARTCHAR 1FB3
ENCODING 8115
SWIDTH 540 0
DWIDTH 9 0
BBX 8 12 2 -3
BITMAP
1F
7F
63
C6
C6
C6
C6
FF
FE
00
60
30
ENDCHAR
STARTCHAR 1FB4
ENCODING 8116
SWIDTH 540 0
DWIDTH 9 0
BBX 8 16 2 -3
BITMAP
02
06
0C
00
1F
7F
63
C6
C6
C6
C6
FF
FE
00
60
30
ENDCHAR
STARTCHAR 1FB6
ENCODING 8118
SWIDTH 540 0
DWIDTH 9 0
BBX 8 13 2 0
BITMAP
04
1F
13
00
1F
7F
63
C6
C6
C6
C6
FF
FE
ENDCHAR
STARTCHAR 1FB7
ENCODING 8119
SWIDTH 540 0
DWIDTH 9 0
BBX 8 16 2 -3
BITMAP
04
1F
13
00
1F
7F
63
C6
C6
C6
C6
FF
FE
00
60
30
ENDCHAR
STARTCHAR 1FB8
ENCODING 8120
SWIDTH 660 0
DWIDTH 11 0
BBX 11 15 0 0
BITMAP
0120
01E0
0000
0180
0180
03C0
06C0
06C0
0CC0
18C0
18C0
3FE0
3060
6060
E060
ENDCHAR
STARTCHAR 1FB9
ENCODING 8121
SWIDTH 660 0
DWIDTH 11 0
BBX 11 15 0 0
BITMAP
03E0
03E0
0000
0180
0180
03C0
06C0
06C0
0CC0
18C0
18C0
3FE0
3060
6060
E060
ENDCHAR
STARTCHAR 1FBA
ENCODING 8122
SWIDTH 660 0
DWIDTH 11 0
BBX 10 12 1 0
BITMAP
4180
E380
3780
0780
0C80
18C0
18C0
30C0
3FC0
60C0
E0C0
C0C0
ENDCHAR
STARTCHAR 1FBB
ENCODING 8123
SWIDTH 660 0
DWIDTH 11 0
BBX 11 12 0 0
BITMAP
0980
1D80
33C0
26C0
06C0
0CC0
18C0
18C0
3FE0
3060
6060
E060
ENDCHAR
STARTCHAR 1FBC
ENCODING 8124
SWIDTH 960 0
DWIDTH 16 0
BBX 16 12 0 0
BITMAP
0180
0180
03C0
06C3
06C3
0CC3
18C7
18C6
3FE6
3066
6066
E067
ENDCHAR
STARTCHAR 1FBD
ENCODING 8125
SWIDTH 360 0
DWIDTH 6 0
BBX 3 3 3 10
BITMAP
60
60
C0
ENDCHAR
STARTCHAR 1FBE
ENCODING 8126
SWIDTH 300 0
DWIDTH 5 0
BBX 3 2 1 -3
BITMAP
C0
E0
ENDCHAR
STARTCHAR 1FBF
ENCODING 8127
SWIDTH 360 0
DWIDTH 6 0
BBX 3 3 3 10
BITMAP
60
60
C0
ENDCHAR
STARTCHAR 1FC0
ENCODING 8128
SWIDTH 360 0
DWIDTH 6 0
BBX 5 3 2 10
BITMAP
20
F8
98
ENDCHAR
STARTCHAR 1FC1
ENCODING 8129
SWIDTH 480 0
DWIDTH 8 0
BBX 5 5 3 10
BITMAP
38
68
00
C8
D8
ENDCHAR
STARTCHAR 1FC2
ENCODING 8130
SWIDTH 540 0
DWIDTH 9 0
BBX 9 16 1 -3
BITMAP
0400
0600
0300
0000
1E00
3F00
3380
3180
6300
6300
6300
6300
C600
0600
C600
E600
ENDCHAR
STARTCHAR 1FC3
ENCODING 8131
SWIDTH 540 0
DWIDTH 9 0
BBX 9 12 1 -3
BITMAP
1E00
3F00
3380
3180
6300
6300
6300
6300
C600
0600
C600
E600
ENDCHAR
STARTCHAR 1FC4
ENCODING 8132
SWIDTH 540 0
DWIDTH 9 0
BBX 9 16 1 -3
BITMAP
0100
0300
0600
0000
1E00
3F00
3380
3180
6300
6300
6300
6300
C600
0600
C600
E600
ENDCHAR
STARTCHAR 1FC6
ENCODING 8134
SWIDTH 540 0
DWIDTH 9 0
BBX 9 16 1 -3
BITMAP
0200
0F00
0980
0000
1E00
3F00
3380
3180
6300
6300
6300
6300
C600
0600
0600
0600
ENDCHAR
STARTCHAR 1FC7
ENCODING 8135
SWIDTH 540 0
DWIDTH 9 0
BBX 9 16 1 -3
BITMAP
0200
0F00
0980
0000
1E00
3F00
3380
3180
6300
6300
6300
6300
C600
0600
C600
E600
ENDCHAR
STARTCHAR 1FC8
ENCODING 8136
SWIDTH 720 0
DWIDTH 12 0
BBX 12 12 2 0
BITMAP
07F0
CFF0
6C00
2C00
0C00
1FC0
1FC0
1800
1800
1800
3FC0
3FC0
ENDCHAR
STARTCHAR 1FC9
ENCODING 8137
SWIDTH 720 0
DWIDTH 12 0
BBX 12 12 1 0
BITMAP
17F0
37F0
E600
0E00
0C00
0FE0
0FC0
1C00
1800
1800
1FC0
3FC0
ENDCHAR
STARTCHAR 1FCA
ENCODING 8138
SWIDTH 840 0
DWIDTH 14 0
BBX 14 12 2 0
BITMAP
060C
CE18
6C18
2C18
0C18
0FF0
1FF0
1830
1830
1860
3060
3060
ENDCHAR
STARTCHAR 1FCB
ENCODING 8139
SWIDTH 840 0
DWIDTH 14 0
BBX 14 12 1 0
BITMAP
160C
360C
E60C
0E18
0C18
0FF8
0FF8
1C30
1830
1830
1830
1860
ENDCHAR
STARTCHAR 1FCC
ENCODING 8140
SWIDTH 1020 0
DWIDTH 17 0
BBX 16 12 1 0
BITMAP
1830
1830
1870
3063
3063
3FE6
3FE6
60C6
60C6
60CC
61CE
E186
ENDCHAR
STARTCHAR 1FCD
ENCODING 8141
SWIDTH 480 0
DWIDTH 8 0
BBX 5 3 3 10
BITMAP
D8
58
88
ENDCHAR
STARTCHAR 1FCE
ENCODING 8142
SWIDTH 480 0
DWIDTH 8 0
BBX 5 3 3 10
BITMAP
C8
D8
B0
ENDCHAR
STARTCHAR 1FCF
ENCODING 8143
SWIDTH 360 0
DWIDTH 6 0
BBX 5 5 2 10
BITMAP
78
C8
20
20
60
ENDCHAR
STARTCHAR 1FD0
ENCODING 8144
SWIDTH 300 0
DWIDTH 5 0
BBX 6 13 2 0
BITMAP
4C
58
70
00
60
60
60
60
C0
C0
C0
C0
E0
ENDCHAR
STARTCHAR 1FD1
ENCODING 8145
SWIDTH 300 0
DWIDTH 5 0
BBX 5 12 2 0
BITMAP
F8
00
00
60
60
60
60
C0
C0
C0
C0
E0
ENDCHAR
STARTCHAR 1FD2
ENCODING 8146
SWIDTH 300 0
DWIDTH 5 0
BBX 8 13 1 0
BITMAP
10
FB
4A
00
30
30
30
30
60
60
60
60
70
ENDCHAR
STARTCHAR 1FD3
ENCODING 8147
SWIDTH 300 0
DWIDTH 5 0
BBX 8 13 1 0
BITMAP
08
FB
52
00
30
30
30
30
60
60
60
60
70
ENDCHAR
STARTCHAR 1FD6
ENCODING 8150
SWIDTH 300 0
DWIDTH 5 0
BBX 5 13 2 0
BITMAP
30
78
C8
00
60
60
60
60
C0
C0
C0
C0
E0
ENDCHAR
STARTCHAR 1FD7
ENCODING 8151
SWIDTH 300 0
DWIDTH 5 0
BBX 5 15 2 0
BITMAP
38
68
00
C8
C8
00
60
60
60
60
C0
C0
C0
C0
E0
ENDCHAR
STARTCHAR 1FD8
ENCODING 8152
SWIDTH 300 0
DWIDTH 5 0
BBX 7 15 1 0
BITMAP
32
1C
00
18
18
18
30
30
30
30
60
60
60
60
E0
ENDCHAR
STARTCHAR 1FD9
ENCODING 8153
SWIDTH 300 0
DWIDTH 5 0
BBX 7 15 1 0
BITMAP
3E
3E
00
18
18
18
30
30
30
30
60
60
60
60
E0
ENDCHAR
STARTCHAR 1FDA
ENCODING 8154
SWIDTH 480 0
DWIDTH 8 0
BBX 7 12 2 0
BITMAP
06
C6
6C
2C
0C
0C
18
18
18
18
30
30
ENDCHAR
STARTCHAR 1FDB
ENCODING 8155
SWIDTH 420 0
DWIDTH 7 0
BBX 7 12 1 0
BITMAP
16
36
E6
06
0C
0C
0C
0C
18
18
18
18
ENDCHAR
STARTCHAR 1FDD
ENCODING 8157
SWIDTH 600 0
DWIDTH 10 0
BBX 6 3 2 10
BITMAP
D8
C8
4C
ENDCHAR
STARTCHAR 1FDE
ENCODING 8158
SWIDTH 600 0
DWIDTH 10 0
BBX 5 3 3 10
BITMAP
C8
98
B0
ENDCHAR
STARTCHAR 1FDF
ENCODING 8159
SWIDTH 360 0
DWIDTH 6 0
BBX 5 5 2 10
BITMAP
78
C8
20
20
20
ENDCHAR
STARTCHAR 1FE0
ENCODING 8160
SWIDTH 540 0
DWIDTH 9 0
BBX 8 13 2 0
BITMAP
11
1B
0E
00
63
63
63
C6
C6
C6
C6
FC
78
ENDCHAR
STARTCHAR 1FE1
ENCODING 8161
SWIDTH 540 0
DWIDTH 9 0
BBX 8 12 2 0
BITMAP
1F
00
00
63
63
63
C6
C6
C6
C6
FC
78
ENDCHAR
STARTCHAR 1FE2
ENCODING 8162
SWIDTH 540 0
DWIDTH 9 0
BBX 9 13 2 0
BITMAP
0C00
3D80
2500
0000
6300
6300
6300
C600
C600
C600
C600
FC00
7800
ENDCHAR
STARTCHAR 1FE3
ENCODING 8163
SWIDTH 540 0
DWIDTH 9 0
BBX 9 13 2 0
BITMAP
0600
3580
2D80
0000
6300
6300
6300
C600
C600
C600
C600
FC00
7800
ENDCHAR
STARTCHAR 1FE4
ENCODING 8164
SWIDTH 540 0
DWIDTH 9 0
BBX 10 16 0 -3
BITMAP
0180
0180
0300
0000
0700
1F80
18C0
30C0
30C0
3180
3180
7F80
7E00
6000
6000
C000
ENDCHAR
STARTCHAR 1FE5
ENCODING 8165
SWIDTH 540 0
DWIDTH 9 0
BBX 10 16 0 -3
BITMAP
0300
0200
0100
0000
0700
1F80
18C0
30C0
30C0
3180
3180
7F80
7E00
6000
6000
C000
ENDCHAR
STARTCHAR 1FE6
ENCODING 8166
SWIDTH 540 0
DWIDTH 9 0
BBX 8 13 2 0
BITMAP
04
1E
13
00
63
63
63
C6
C6
C6
C6
FC
78
ENDCHAR
STARTCHAR 1FE7
ENCODING 8167
SWIDTH 540 0
DWIDTH 9 0
BBX 8 15 2 0
BITMAP
06
0B
00
1B
1B
00
63
63
63
C6
C6
C6
C6
FC
78
ENDCHAR
STARTCHAR 1FE8
ENCODING 8168
SWIDTH 600 0
DWIDTH 10 0
BBX 10 15 3 0
BITMAP
1300
1E00
0000
C1C0
C380
C300
6600
6E00
7C00
3800
3000
3000
7000
6000
6000
ENDCHAR
STARTCHAR 1FE9
ENCODING 8169
SWIDTH 600 0
DWIDTH 10 0
BBX 10 15 3 0
BITMAP
1F00
1F00
0000
C1C0
C380
C300
6600
6E00
7C00
3800
3000
3000
7000
6000
6000
ENDCHAR
STARTCHAR 1FEA
ENCODING 8170
SWIDTH 780 0
DWIDTH 13 0
BBX 14 12 2 0
BITMAP
0C1C
CC18
6E30
2660
06E0
07C0
0380
0300
0300
0300
0700
0600
ENDCHAR
STARTCHAR 1FEB
ENCODING 8171
SWIDTH 780 0
DWIDTH 13 0
BBX 15 12 1 0
BITMAP
160E
360C
E718
0338
0370
03E0
01C0
0180
0180
0180
0380
0300
ENDCHAR
STARTCHAR 1FEC
ENCODING 8172
SWIDTH 720 0
DWIDTH 12 0
BBX 11 12 2 0
BITMAP
CF00
DFC0
98E0
5860
1860
30C0
3FC0
3F00
3000
6000
6000
6000
ENDCHAR
STARTCHAR 1FED
ENCODING 8173
SWIDTH 480 0
DWIDTH 8 0
BBX 7 3 2 10
BITMAP
10
DE
4A
ENDCHAR
STARTCHAR 1FEE
ENCODING 8174
SWIDTH 480 0
DWIDTH 8 0
BBX 7 3 2 10
BITMAP
08
DE
52
ENDCHAR
STARTCHAR 1FEF
ENCODING 8175
SWIDTH 300 0
DWIDTH 5 0
BBX 3 3 3 10
BITMAP
80
C0
60
ENDCHAR
STARTCHAR 1FF2
ENCODING 8178
SWIDTH 840 0
DWIDTH 14 0
BBX 12 16 2 -3
BITMAP
0080
0180
0300
0000
2020
7030
6630
C630
C630
C630
CE60
FFE0
7BC0
0000
0C00
0E00
ENDCHAR
STARTCHAR 1FF3
ENCODING 8179
SWIDTH 840 0
DWIDTH 14 0
BBX 12 12 2 -3
BITMAP
2020
7030
6630
C630
C630
C630
CE60
FFE0
7BC0
0000
0C00
0E00
ENDCHAR
STARTCHAR 1FF4
ENCODING 8180
SWIDTH 840 0
DWIDTH 14 0
BBX 12 16 2 -3
BITMAP
0080
0180
0300
0000
2020
7030
6630
C630
C630
C630
CE60
FFE0
7BC0
0000
0C00
0E00
ENDCHAR
STARTCHAR 1FF6
ENCODING 8182
SWIDTH 840 0
DWIDTH 14 0
BBX 12 13 2 0
BITMAP
0100
07C0
04C0
0000
2020
7030
6630
C630
C630
C630
CE60
FFE0
7BC0
ENDCHAR
STARTCHAR 1FF7
ENCODING 8183
SWIDTH 840 0
DWIDTH 14 0
BBX 12 16 2 -3
BITMAP
0100
07C0
04C0
0000
2020
7030
6630
C630
C630
C630
CE60
FFE0
7BC0
0000
0C00
0E00
ENDCHAR
STARTCHAR 1FF8
ENCODING 8184
SWIDTH 900 0
DWIDTH 15 0
BBX 14 12 2 0
BITMAP
00E0
C3F8
671C
2E0C
0C0C
1C0C
180C
181C
1818
1C38
0FF0
07C0
ENDCHAR
STARTCHAR 1FF9
ENCODING 8185
SWIDTH 840 0
DWIDTH 14 0
BBX 14 12 1 0
BITMAP
11E0
37F8
EE18
0C1C
1C0C
180C
181C
1818
1818
1830
1FE0
0FC0
ENDCHAR
STARTCHAR 1FFA
ENCODING 8186
SWIDTH 960 0
DWIDTH 16 0
BBX 14 12 2 0
BITMAP
01F0
C3F8
661C
2C0C
1C0C
180C
180C
1818
1818
0C30
3E78
3CF8
ENDCHAR
STARTCHAR 1FFB
ENCODING 8187
SWIDTH 840 0
DWIDTH 14 0
BBX 14 12 1 0
BITMAP
11E0
37F8
EE18
0C0C
180C
180C
181C
1818
1838
1C70
3CF8
7CF8
ENDCHAR
STARTCHAR 1FFC
ENCODING 8188
SWIDTH 1080 0
DWIDTH 18 0
BBX 17 12 1 0
BITMAP
03C000
0FE000
1C7000
303180
303180
703180
603300
607300
306300
30C300
F9E300
F3E300
ENDCHAR
STARTCHAR 1FFD
ENCODING 8189
SWIDTH 360 0
DWIDTH 6 0
BBX 3 3 3 10
BITMAP
60
E0
80
ENDCHAR
STARTCHAR 1FFE
ENCODING 8190
SWIDTH 360 0
DWIDTH 6 0
BBX 2 3 3 10
BITMAP
C0
C0
40
ENDCHAR
STARTCHAR 2013
ENCODING 8211
SWIDTH 480 0
DWIDTH 8 0
BBX 9 2 1 4
BITMAP
FF80
FF00
ENDCHAR
STARTCHAR 2014
ENCODING 8212
SWIDTH 1020 0
DWIDTH 17 0
BBX 17 2 1 4
BITMAP
FFFF80
FFFF80
ENDCHAR
STARTCHAR 2015
ENCODING 8213
SWIDTH 1020 0
DWIDTH 17 0
BBX 17 2 1 4
BITMAP
FFFF80
FFFF80
ENDCHAR
STARTCHAR 2018
ENCODING 8216
SWIDTH 240 0
DWIDTH 4 0
BBX 3 5 3 8
BITMAP
20
60
60
C0
C0
ENDCHAR
STARTCHAR 2019
ENCODING 8217
SWIDTH 240 0
DWIDTH 4 0
BBX 3 5 3 8
BITMAP
60
60
60
C0
80
ENDCHAR
STARTCHAR 201A
ENCODING 8218
SWIDTH 240 0
DWIDTH 4 0
BBX 4 4 0 -2
BITMAP
70
60
60
C0
ENDCHAR
STARTCHAR 201C
ENCODING 8220
SWIDTH 480 0
DWIDTH 8 0
BBX 6 5 3 8
BITMAP
24
64
6C
CC
D8
ENDCHAR
STARTCHAR 201D
ENCODING 8221
SWIDTH 480 0
DWIDTH 8 0
BBX 7 5 3 8
BITMAP
6E
6C
6C
D8
80
ENDCHAR
STARTCHAR 201E
ENCODING 8222
SWIDTH 480 0
DWIDTH 8 0
BBX 7 4 0 -2
BITMAP
76
66
6C
C8
ENDCHAR
STARTCHAR 2020
ENCODING 8224
SWIDTH 480 0
DWIDTH 8 0
BBX 7 14 2 -2
BITMAP
0C
08
18
18
7E
FE
30
30
30
20
20
60
60
40
ENDCHAR
STARTCHAR 2021
ENCODING 8225
SWIDTH 480 0
DWIDTH 8 0
BBX 8 14 1 -2
BITMAP
06
04
0C
0C
3F
7F
18
18
7E
FE
10
30
30
20
ENDCHAR
STARTCHAR 2022
ENCODING 8226
SWIDTH 360 0
DWIDTH 6 0
BBX 5 4 2 4
BITMAP
70
F8
F8
70
ENDCHAR
STARTCHAR 2026
ENCODING 8230
SWIDTH 1020 0
DWIDTH 17 0
BBX 14 2 2 0
BITMAP
C31C
C31C
ENDCHAR
STARTCHAR 2030
ENCODING 8240
SWIDTH 1260 0
DWIDTH 21 0
BBX 18 12 3 0
BITMAP
306000
F8C000
88C000
898000
9B0000
F60000
0CE380
0DB6C0
1B34C0
332CC0
636C80
C3C780
ENDCHAR
STARTCHAR 2039
ENCODING 8249
SWIDTH 300 0
DWIDTH 5 0
BBX 4 7 2 2
BITMAP
30
60
C0
C0
C0
60
60
ENDCHAR
STARTCHAR 203A
ENCODING 8250
SWIDTH 300 0
DWIDTH 5 0
BBX 5 7 1 2
BITMAP
20
30
30
38
30
60
C0
ENDCHAR
STARTCHAR 2044
ENCODING 8260
SWIDTH 180 0
DWIDTH 3 0
BBX 10 12 -2 0
BITMAP
00C0
0180
0100
0300
0600
0C00
1800
1800
3000
6000
C000
C000
ENDCHAR
STARTCHAR 2070
ENCODING 8304
SWIDTH 360 0
DWIDTH 6 0
BBX 6 7 2 5
BITMAP
38
68
CC
CC
C8
D8
70
ENDCHAR
STARTCHAR 2074
ENCODING 8308
SWIDTH 360 0
DWIDTH 6 0
BBX 6 7 2 5
BITMAP
0C
18
28
58
F8
10
10
ENDCHAR
STARTCHAR 2075
ENCODING 8309
SWIDTH 360 0
DWIDTH 6 0
BBX 6 7 2 5
BITMAP
3C
38
60
78
18
98
F0
ENDCHAR
STARTCHAR 2076
ENCODING 8310
SWIDTH 360 0
DWIDTH 6 0
BBX 6 7 2 5
BITMAP
0C
38
40
F8
C8
D8
70
ENDCHAR
STARTCHAR 2077
ENCODING 8311
SWIDTH 360 0
DWIDTH 6 0
BBX 5 7 3 5
BITMAP
F8
F8
30
60
40
C0
80
ENDCHAR
STARTCHAR 2078
ENCODING 8312
SWIDTH 360 0
DWIDTH 6 0
BBX 6 7 2 5
BITMAP
38
6C
48
70
D8
98
F0
ENDCHAR
STARTCHAR 2079
ENCODING 8313
SWIDTH 360 0
DWIDTH 6 0
BBX 6 7 2 5
BITMAP
38
68
4C
78
08
30
E0
ENDCHAR
STARTCHAR 2080
ENCODING 8320
SWIDTH 360 0
DWIDTH 6 0
BBX 6 7 1 0
BITMAP
38
78
4C
CC
C8
D8
70
ENDCHAR
STARTCHAR 2081
ENCODING 8321
SWIDTH 360 0
DWIDTH 6 0
BBX 4 7 2 0
BITMAP
10
70
E0
20
60
60
60
ENDCHAR
STARTCHAR 2082
ENCODING 8322
SWIDTH 360 0
DWIDTH 6 0
BBX 5 7 1 0
BITMAP
38
78
08
18
70
40
F8
ENDCHAR
STARTCHAR 2083
ENCODING 8323
SWIDTH 360 0
DWIDTH 6 0
BBX 5 7 1 0
BITMAP
38
78
08
30
08
98
F0
ENDCHAR
STARTCHAR 2084
ENCODING 8324
SWIDTH 360 0
DWIDTH 6 0
BBX 6 7 1 0
BITMAP
0C
18
28
58
F8
10
10
ENDCHAR
STARTCHAR 2085
ENCODING 8325
SWIDTH 360 0
DWIDTH 6 0
BBX 6 7 1 0
BITMAP
3C
38
60
70
18
18
F0
ENDCHAR
STARTCHAR 2086
ENCODING 8326
SWIDTH 360 0
DWIDTH 6 0
BBX 6 7 1 0
BITMAP
0C
3C
60
78
C8
C8
70
ENDCHAR
STARTCHAR 2087
ENCODING 8327
SWIDTH 360 0
DWIDTH 6 0
BBX 5 7 2 0
BITMAP
F8
F8
30
20
40
C0
80
ENDCHAR
STARTCHAR 2088
ENCODING 8328
SWIDTH 360 0
DWIDTH 6 0
BBX 6 7 1 0
BITMAP
38
6C
4C
38
D8
88
F0
ENDCHAR
STARTCHAR 2089
ENCODING 8329
SWIDTH 360 0
DWIDTH 6 0
BBX 6 7 1 0
BITMAP
30
78
4C
6C
38
30
E0
ENDCHAR
STARTCHAR 20AC
ENCODING 8364
SWIDTH 540 0
DWIDTH 9 0
BBX 9 12 2 0
BITMAP
0380
0F80
1800
3000
7F00
6000
6000
FC00
6000
6000
3A00
3E00
ENDCHAR
STARTCHAR 20AE
ENCODING 8366
SWIDTH 540 0
DWIDTH 9 0
BBX 10 12 2 0
BITMAP
7FC0
7F80
0C00
0C00
1F00
3C00
7800
1E00
3800
F000
B000
3000
ENDCHAR
STARTCHAR 20B4
ENCODING 8372
SWIDTH 540 0
DWIDTH 9 0
BBX 9 12 2 0
BITMAP
1E00
3F00
0300
0300
FF80
0E00
3800
FF00
C000
C000
EC00
7E00
ENDCHAR
STARTCHAR 20B9
ENCODING 8377
SWIDTH 540 0
DWIDTH 9 0
BBX 10 12 2 0
BITMAP
3FC0
3F80
0600
7F80
7F00
0E00
FC00
F000
6000
3000
3000
1800
ENDCHAR
STARTCHAR 2113
ENCODING 8467
SWIDTH 480 0
DWIDTH 8 0
BBX 7 13 2 0
BITMAP
38
3C
64
64
64
6C
68
70
60
E0
E0
74
3E
ENDCHAR
STARTCHAR 2116
ENCODING 8470
SWIDTH 1080 0
DWIDTH 18 0
BBX 19 12 1 0
BITMAP
183180
1837C0
1C6460
3C6440
366CC0
366780
32E200
63C000
63CF80
61DF80
61C000
C18000
ENDCHAR
STARTCHAR 2122
ENCODING 8482
SWIDTH 840 0
DWIDTH 14 0
BBX 13 6 2 6
BITMAP
FB10
FB38
23B8
22F8
22D8
2218
ENDCHAR
STARTCHAR 2126
ENCODING 8486
SWIDTH 780 0
DWIDTH 13 0
BBX 12 12 1 0
BITMAP
03C0
0FE0
1C70
3030
3030
7030
6030
6070
3060
30C0
F9E0
F3E0
ENDCHAR
STARTCHAR 212E
ENCODING 8494
SWIDTH 960 0
DWIDTH 16 0
BBX 14 12 2 0
BITMAP
0780
1860
2010
6018
601C
E01C
FFE0
6000
6000
2000
2010
1FE0
ENDCHAR
STARTCHAR 2153
ENCODING 8531
SWIDTH 900 0
DWIDTH 15 0
BBX 12 12 3 0
BITMAP
3040
F0C0
A180
2300
6600
6660
4CF0
1830
30E0
3020
6020
C3E0
ENDCHAR
STARTCHAR 2154
ENCODING 8532
SWIDTH 900 0
DWIDTH 15 0
BBX 13 12 2 0
BITMAP
3030
7860
1860
30C0
6180
C330
F278
0618
0C70
1810
3010
31F0
ENDCHAR
STARTCHAR 2155
ENCODING 8533
SWIDTH 900 0
DWIDTH 15 0
BBX 12 12 3 0
BITMAP
3060
F0C0
A180
2300
6300
66F0
4CF0
1880
11E0
3020
6060
C3C0
ENDCHAR
STARTCHAR 2156
ENCODING 8534
SWIDTH 900 0
DWIDTH 15 0
BBX 13 12 2 0
BITMAP
3030
7820
0860
30C0
6180
C378
F378
0640
0CF0
1810
1810
31F0
ENDCHAR
STARTCHAR 2157
ENCODING 8535
SWIDTH 900 0
DWIDTH 15 0
BBX 13 12 2 0
BITMAP
3830
5860
0860
30C0
1980
9B38
F378
0640
0C70
1810
3010
31F0
ENDCHAR
STARTCHAR 2158
ENCODING 8536
SWIDTH 900 0
DWIDTH 15 0
BBX 13 12 2 0
BITMAP
0C30
1820
2860
58C0
F980
1378
1378
0640
0CF0
1810
1810
31F0
ENDCHAR
STARTCHAR 2159
ENCODING 8537
SWIDTH 900 0
DWIDTH 15 0
BBX 12 12 3 0
BITMAP
3060
70C0
A180
2100
6300
6610
4CF0
1980
19E0
3120
6120
C1E0
ENDCHAR
STARTCHAR 215A
ENCODING 8538
SWIDTH 900 0
DWIDTH 15 0
BBX 13 12 2 0
BITMAP
3C30
3C20
6060
78C0
1980
9B08
F378
06C0
0CF0
1898
1890
30F0
ENDCHAR
STARTCHAR 215B
ENCODING 8539
SWIDTH 900 0
DWIDTH 15 0
BBX 12 12 3 0
BITMAP
3060
E0C0
A180
6300
6300
6660
4DB0
19B0
10E0
3120
6320
C1E0
ENDCHAR
STARTCHAR 215C
ENCODING 8540
SWIDTH 900 0
DWIDTH 15 0
BBX 13 12 2 0
BITMAP
3830
5860
1840
30C0
1980
1B30
F658
06C8
0C70
1890
3090
20F0
ENDCHAR
STARTCHAR 215D
ENCODING 8541
SWIDTH 900 0
DWIDTH 15 0
BBX 13 12 2 0
BITMAP
3C30
3860
60C0
70C0
1980
9B30
F658
04C8
0C70
1890
3190
60F0
ENDCHAR
STARTCHAR 215E
ENCODING 8542
SWIDTH 900 0
DWIDTH 15 0
BBX 12 12 3 0
BITMAP
F840
F8C0
3180
6300
4600
C660
8DB0
19B0
30E0
3120
6320
C1E0
ENDCHAR
STARTCHAR 2202
ENCODING 8706
SWIDTH 600 0
DWIDTH 10 0
BBX 9 13 2 0
BITMAP
3E00
3F00
0300
0180
0180
3F80
7380
C100
C300
C300
C600
FE00
7800
ENDCHAR
STARTCHAR 2206
ENCODING 8710
SWIDTH 660 0
DWIDTH 11 0
BBX 11 12 0 0
BITMAP
0180
0380
03C0
06C0
06C0
0CC0
18C0
18C0
30C0
30E0
7FE0
FFE0
ENDCHAR
STARTCHAR 220F
ENCODING 8719
SWIDTH 660 0
DWIDTH 11 0
BBX 12 14 1 -2
BITMAP
1FF0
1FF0
1860
3060
3060
3060
30C0
60C0
60C0
60C0
6180
E180
C180
C180
ENDCHAR
STARTCHAR 2211
ENCODING 8721
SWIDTH 540 0
DWIDTH 9 0
BBX 11 14 0 -2
BITMAP
1FE0
1FE0
1800
0C00
0C00
0600
0600
0600
0C00
1800
3000
6000
FF00
FF00
ENDCHAR
STARTCHAR 2212
ENCODING 8722
SWIDTH 540 0
DWIDTH 9 0
BBX 8 2 2 4
BITMAP
FF
FF
ENDCHAR
STARTCHAR 2215
ENCODING 8725
SWIDTH 180 0
DWIDTH 3 0
BBX 10 12 -2 0
BITMAP
00C0
0180
0100
0300
0600
0C00
1800
1800
3000
6000
C000
C000
ENDCHAR
STARTCHAR 2219
ENCODING 8729
SWIDTH 240 0
DWIDTH 4 0
BBX 2 2 2 4
BITMAP
C0
C0
ENDCHAR
STARTCHAR 221A
ENCODING 8730
SWIDTH 600 0
DWIDTH 10 0
BBX 11 13 2 0
BITMAP
0060
00C0
00C0
0180
0180
0300
2300
E600
6400
2C00
3800
3800
3000
ENDCHAR
STARTCHAR 221E
ENCODING 8734
SWIDTH 600 0
DWIDTH 10 0
BBX 9 5 2 2
BITMAP
7780
DC80
8980
FF00
6600
ENDCHAR
STARTCHAR 222B
ENCODING 8747
SWIDTH 360 0
DWIDTH 6 0
BBX 10 16 -1 -3
BITMAP
01C0
03C0
0300
0600
0600
0600
0600
0C00
0C00
0C00
0C00
0C00
1800
1800
7000
F000
ENDCHAR
STARTCHAR 2248
ENCODING 8776
SWIDTH 540 0
DWIDTH 9 0
BBX 10 7 1 1
BITMAP
3CC0
7F80
6700
0000
7980
DF00
4600
ENDCHAR
STARTCHAR 2260
ENCODING 8800
SWIDTH 540 0
DWIDTH 9 0
BBX 9 10 1 0
BITMAP
0100
0100
0300
7F80
0400
0C00
7F00
FF00
2000
6000
ENDCHAR
STARTCHAR 2264
ENCODING 8804
SWIDTH 540 0
DWIDTH 9 0
BBX 10 10 1 0
BITMAP
00C0
07C0
1E00
7000
7800
1E00
0700
0100
FF00
FF00
ENDCHAR
STARTCHAR 2265
ENCODING 8805
SWIDTH 540 0
DWIDTH 9 0
BBX 9 10 1 0
BITMAP
3000
3C00
0F00
0180
0780
3C00
7000
0000
FF00
FF00
ENDCHAR
STARTCHAR 25CA
ENCODING 9674
SWIDTH 540 0
DWIDTH 9 0
BBX 8 11 2 1
BITMAP
0C
1C
36
66
C3
C3
C6
6C
78
30
20
ENDCHAR
STARTCHAR E0FF
ENCODING 57599
SWIDTH 780 0
DWIDTH 13 0
BBX 12 12 2 0
BITMAP
0F00
3FC0
7E60
F9E0
EE70
AF70
BFF0
EF70
ECE0
7B60
3FC0
1F80
ENDCHAR
STARTCHAR EFFD
ENCODING 61437
SWIDTH 1740 0
DWIDTH 29 0
BBX 28 7 1 0
BITMAP
30061860
781B3DF0
C8130D30
C80E3930
88120B30
DBB20B60
F39CF9C0
ENDCHAR
STARTCHAR F000
ENCODING 61440
SWIDTH 960 0
DWIDTH 16 0
BBX 14 12 1 0
BITMAP
7CFC
8000
8504
8504
8504
8000
3878
8000
8504
8504
8000
3878
ENDCHAR
STARTCHAR F001
ENCODING 61441
SWIDTH 660 0
DWIDTH 11 0
BBX 13 16 0 -3
BITMAP
03D0
0FB8
0C30
0C00
1F30
1F30
1860
1860
3060
3060
30C0
30C0
60C0
6000
6000
C000
ENDCHAR
STARTCHAR F002
ENCODING 61442
SWIDTH 660 0
DWIDTH 11 0
BBX 13 16 0 -3
BITMAP
03D8
0FB0
0C30
0C30
1F30
1F60
1860
1860
3060
30C0
30C0
30E0
6060
6000
6000
C000
ENDCHAR
STARTCHAR F0FF
ENCODING 61695
SWIDTH 480 0
DWIDTH 8 0
BBX 7 7 2 6
BITMAP
38
76
DE
BA
DE
6E
3C
ENDCHAR
STARTCHAR F200
ENCODING 61952
SWIDTH 3540 0
DWIDTH 59 0
BBX 58 13 2 0
BITMAP
0060000000000700
0060000000001E80
006000000C001FC0
006000000C002FC0
C27E308F8F90D6C0
C27F309FCF90DB80
C261B0984C10CF00
C261B0984C10C000
C261B0986C10C000
C261B0986C10C000
C26190986C10C000
626318986618C000
7E7E0F9867CFC000
ENDCHAR
STARTCHAR F506
ENCODING 62726
SWIDTH 900 0
DWIDTH 15 0
BBX 12 12 3 0
BITMAP
30C0
E0C0
A180
6300
6600
66F0
4DF0
1820
3040
20C0
6080
C180
ENDCHAR
STARTCHAR F507
ENCODING 62727
SWIDTH 900 0
DWIDTH 15 0
BBX 14 12 2 0
BITMAP
7030
7860
18C0
3080
6180
C37C
F6F8
0C10
0C30
1860
3040
60C0
ENDCHAR
STARTCHAR F508
ENCODING 62728
SWIDTH 900 0
DWIDTH 15 0
BBX 14 12 2 0
BITMAP
3830
5860
18C0
30C0
1980
1B7C
F678
0C18
0C30
1860
3040
60C0
ENDCHAR
STARTCHAR F509
ENCODING 62729
SWIDTH 900 0
DWIDTH 15 0
BBX 14 12 2 0
BITMAP
0830
1860
78C0
5880
F980
137C
16F8
0C10
0C30
1860
3040
60C0
ENDCHAR
STARTCHAR F50A
ENCODING 62730
SWIDTH 900 0
DWIDTH 15 0
BBX 14 12 2 0
BITMAP
3C30
7860
40C0
7180
1980
9B7C
F6F8
0C10
0830
1860
3040
60C0
ENDCHAR
STARTCHAR F50B
ENCODING 62731
SWIDTH 900 0
DWIDTH 15 0
BBX 14 12 2 0
BITMAP
0830
3860
40C0
F8C0
8980
DB7C
767C
0C18
0C30
1860
3040
60C0
ENDCHAR
STARTCHAR F50C
ENCODING 62732
SWIDTH 900 0
DWIDTH 15 0
BBX 12 12 3 0
BITMAP
3060
E0C0
A180
6300
6300
6660
4CF0
1990
19B0
30F0
6060
C180
ENDCHAR
STARTCHAR F50D
ENCODING 62733
SWIDTH 900 0
DWIDTH 15 0
BBX 13 12 2 0
BITMAP
7030
7860
1840
30C0
6180
C330
F678
06C8
0CD8
1878
3030
30C0
ENDCHAR
STARTCHAR F50E
ENCODING 62734
SWIDTH 900 0
DWIDTH 15 0
BBX 13 12 2 0
BITMAP
0830
1860
2840
58C0
F980
1330
1678
06C8
0CD8
1878
3030
20C0
ENDCHAR
STARTCHAR F50F
ENCODING 62735
SWIDTH 900 0
DWIDTH 15 0
BBX 13 12 2 0
BITMAP
3C30
3860
6040
78C0
1980
9B30
F678
06C8
0CD8
1878
3030
20C0
ENDCHAR
STARTCHAR F510
ENCODING 62736
SWIDTH 900 0
DWIDTH 15 0
BBX 12 12 3 0
BITMAP
F8C0
F8C0
3180
6300
4600
C660
8CF0
1990
31B0
60F0
6060
C180
ENDCHAR
STARTCHAR F511
ENCODING 62737
SWIDTH 900 0
DWIDTH 15 0
BBX 13 12 2 0
BITMAP
3830
6C60
4840
70C0
D980
9B30
F678
06C8
0CD8
1878
3030
20C0
ENDCHAR
STARTCHAR F800
ENCODING 63488
SWIDTH 600 0
DWIDTH 10 0
BBX 8 12 2 0
BITMAP
0E
3F
33
63
63
C3
C3
C3
C6
C6
FC
78
ENDCHAR
STARTCHAR F801
ENCODING 63489
SWIDTH 360 0
DWIDTH 6 0
BBX 6 12 2 0
BITMAP
0C
1C
78
F8
18
18
30
30
30
30
60
60
ENDCHAR
STARTCHAR F802
ENCODING 63490
SWIDTH 480 0
DWIDTH 8 0
BBX 9 12 1 0
BITMAP
0E00
3F00
3180
0180
0300
0700
0E00
1C00
3000
6000
FE00
FE00
ENDCHAR
STARTCHAR F803
ENCODING 63491
SWIDTH 480 0
DWIDTH 8 0
BBX 9 12 0 0
BITMAP
0F00
1F80
1180
0180
0180
0F00
0F00
0300
0180
0300
6700
FE00
ENDCHAR
STARTCHAR F804
ENCODING 63492
SWIDTH 540 0
DWIDTH 9 0
BBX 9 12 1 0
BITMAP
0180
0380
0780
0D80
1B00
3300
6300
6300
FF80
0600
0600
0600
ENDCHAR
STARTCHAR F805
ENCODING 63493
SWIDTH 480 0
DWIDTH 8 0
BBX 9 12 1 0
BITMAP
1F80
1F80
1000
3000
3000
3C00
0E00
0600
0300
0600
DE00
FC00
ENDCHAR
STARTCHAR F806
ENCODING 63494
SWIDTH 540 0
DWIDTH 9 0
BBX 9 12 2 0
BITMAP
0380
0F00
3800
7000
6000
FE00
E600
C300
C200
C600
EE00
7C00
ENDCHAR
STARTCHAR F807
ENCODING 63495
SWIDTH 480 0
DWIDTH 8 0
BBX 9 12 2 0
BITMAP
7F80
7F00
0700
0E00
0C00
1800
3000
3000
6000
6000
C000
C000
ENDCHAR
STARTCHAR F808
ENCODING 63496
SWIDTH 540 0
DWIDTH 9 0
BBX 9 12 1 0
BITMAP
0F00
1F80
3180
3180
3180
1F00
3E00
6300
4300
C300
6700
7E00
ENDCHAR
STARTCHAR F809
ENCODING 63497
SWIDTH 540 0
DWIDTH 9 0
BBX 9 12 1 0
BITMAP
0E00
1F00
3180
2180
6180
7180
3F80
1B00
0300
0600
7C00
F000
ENDCHAR
STARTCHAR F80A
ENCODING 63498
SWIDTH 360 0
DWIDTH 6 0
BBX 6 7 2 7
BITMAP
38
68
CC
CC
C8
D8
70
ENDCHAR
STARTCHAR F80B
ENCODING 63499
SWIDTH 360 0
DWIDTH 6 0
BBX 4 7 3 7
BITMAP
30
F0
A0
20
60
60
40
ENDCHAR
STARTCHAR F80C
ENCODING 63500
SWIDTH 360 0
DWIDTH 6 0
BBX 5 7 2 7
BITMAP
38
78
08
38
60
C0
F8
ENDCHAR
STARTCHAR F80D
ENCODING 63501
SWIDTH 360 0
DWIDTH 6 0
BBX 5 7 2 7
BITMAP
38
68
08
30
08
98
F0
ENDCHAR
STARTCHAR F80E
ENCODING 63502
SWIDTH 360 0
DWIDTH 6 0
BBX 6 7 2 7
BITMAP
0C
18
28
58
F8
10
10
ENDCHAR
STARTCHAR F80F
ENCODING 63503
SWIDTH 360 0
DWIDTH 6 0
BBX 6 7 2 7
BITMAP
3C
38
60
78
18
98
F0
ENDCHAR
STARTCHAR F810
ENCODING 63504
SWIDTH 360 0
DWIDTH 6 0
BBX 6 7 2 7
BITMAP
0C
38
40
F8
C8
D8
70
ENDCHAR
STARTCHAR F811
ENCODING 63505
SWIDTH 360 0
DWIDTH 6 0
BBX 5 7 3 7
BITMAP
F8
F8
30
60
40
C0
80
ENDCHAR
STARTCHAR F812
ENCODING 63506
SWIDTH 360 0
DWIDTH 6 0
BBX 6 7 2 7
BITMAP
38
6C
48
70
D8
98
F0
ENDCHAR
STARTCHAR F813
ENCODING 63507
SWIDTH 360 0
DWIDTH 6 0
BBX 6 7 2 7
BITMAP
38
68
4C
78
08
30
E0
ENDCHAR
STARTCHAR F814
ENCODING 63508
SWIDTH 360 0
DWIDTH 6 0
BBX 5 7 1 -2
BITMAP
30
78
C8
88
88
98
F0
ENDCHAR
STARTCHAR F815
ENCODING 63509
SWIDTH 360 0
DWIDTH 6 0
BBX 4 7 2 -2
BITMAP
30
60
A0
60
60
40
40
ENDCHAR
STARTCHAR F816
ENCODING 63510
SWIDTH 360 0
DWIDTH 6 0
BBX 5 7 1 -2
BITMAP
30
78
08
18
60
C0
F8
ENDCHAR
STARTCHAR F817
ENCODING 63511
SWIDTH 360 0
DWIDTH 6 0
BBX 5 7 1 -2
BITMAP
30
78
08
30
18
18
F0
ENDCHAR
STARTCHAR F818
ENCODING 63512
SWIDTH 360 0
DWIDTH 6 0
BBX 6 7 0 -2
BITMAP
04
1C
38
68
FC
18
18
ENDCHAR
STARTCHAR F819
ENCODING 63513
SWIDTH 360 0
DWIDTH 6 0
BBX 6 7 0 -2
BITMAP
3C
3C
20
78
08
08
F8
ENDCHAR
STARTCHAR F81A
ENCODING 63514
SWIDTH 360 0
DWIDTH 6 0
BBX 5 7 1 -2
BITMAP
08
38
40
F0
98
98
F0
ENDCHAR
STARTCHAR F81B
ENCODING 63515
SWIDTH 360 0
DWIDTH 6 0
BBX 5 7 2 -2
BITMAP
F8
F8
30
60
40
C0
80
ENDCHAR
STARTCHAR F81C
ENCODING 63516
SWIDTH 360 0
DWIDTH 6 0
BBX 5 7 1 -2
BITMAP
30
68
48
70
D8
98
F0
ENDCHAR
STARTCHAR F81D
ENCODING 63517
SWIDTH 360 0
DWIDTH 6 0
BBX 5 7 1 -2
BITMAP
30
78
48
58
78
30
E0
ENDCHAR
STARTCHAR FB00
ENCODING 64256
SWIDTH 780 0
DWIDTH 13 0
BBX 16 16 0 -3
BITMAP
03CF
0F9F
0C38
0C30
1F3E
1F3E
1860
1860
3060
3060
30C0
30C0
60C0
60C0
6180
C180
ENDCHAR
STARTCHAR FB01
ENCODING 64257
SWIDTH 660 0
DWIDTH 11 0
BBX 13 16 0 -3
BITMAP
03D0
0FB8
0C30
0C00
1F30
1F30
1860
1860
3060
3060
30C0
30C0
60C0
6000
6000
C000
ENDCHAR
STARTCHAR FB02
ENCODING 64258
SWIDTH 660 0
DWIDTH 11 0
BBX 13 16 0 -3
BITMAP
03D8
0FB0
0C30
0C30
1F30
1F60
1860
1860
3060
30C0
30C0
30E0
6060
6000
6000
C000
ENDCHAR
STARTCHAR FB03
ENCODING 64259
SWIDTH 1080 0
DWIDTH 18 0
BBX 19 16 0 -3
BITMAP
03CF00
0F9F60
0C3860
0C3000
1F3EC0
1F3EC0
1860C0
1860C0
3061C0
306180
30C180
30C180
60C180
60C000
618000
C18000
ENDCHAR
STARTCHAR FB04
ENCODING 64260
SWIDTH 1080 0
DWIDTH 18 0
BBX 19 16 0 -3
BITMAP
03CF60
0F9F60
0C3860
0C30C0
1F3EC0
1F3EC0
1860C0
186180
306180
306180
30C180
30C1C0
60C1C0
60C000
618000
C18000
ENDCHAR
ENDFONT
